SplineFontDB: 3.0
FontName: DawningofaNewDay
FullName: Dawning of a New Day
FamilyName: Dawning of a New Day
Weight: Regular
Copyright: Copyright (c) 2010, Kimberly Geswein (kimberlygeswein.com)
Version: 001.001
ItalicAngle: 0
UnderlinePosition: 0
UnderlineWidth: 0
Ascent: 819
Descent: 205
sfntRevision: 0x00010083
LayerCount: 2
Layer: 0 1 "Back"  1
Layer: 1 1 "Fore"  0
NeedsXUIDChange: 1
XUID: [1021 288 713564382 9493822]
FSType: 0
OS2Version: 2
OS2_WeightWidthSlopeOnly: 0
OS2_UseTypoMetrics: 1
CreationTime: 1307066038
ModificationTime: 1307076870
PfmFamily: 17
TTFWeight: 400
TTFWidth: 5
LineGap: 0
VLineGap: 0
Panose: 2 0 0 0 0 0 0 0 0 0
OS2TypoAscent: 332
OS2TypoAOffset: 1
OS2TypoDescent: -295
OS2TypoDOffset: 1
OS2TypoLinegap: 0
OS2WinAscent: 0
OS2WinAOffset: 1
OS2WinDescent: 38
OS2WinDOffset: 1
HheadAscent: 0
HheadAOffset: 1
HheadDescent: -38
HheadDOffset: 1
OS2SubXSize: 717
OS2SubYSize: 666
OS2SubXOff: 0
OS2SubYOff: 143
OS2SupXSize: 717
OS2SupYSize: 666
OS2SupXOff: 0
OS2SupYOff: 488
OS2StrikeYSize: 51
OS2StrikeYPos: 256
OS2CodePages: 00000093.00000000
OS2UnicodeRanges: 8000002f.4000004a.00000000.00000000
MarkAttachClasses: 1
DEI: 91125

StartChar: exclam
Encoding: 33 33 4
Width: 113
Flags: HW
LayerCount: 2
Fore
SplineSet
85 -1 m 0,0,1
 70 -1 70 -1 70 12 c 128,-1,2
 70 25 70 25 80.5 32.5 c 128,-1,3
 91 40 91 40 103 40 c 1,4,5
 103 -1 103 -1 85 -1 c 0,0,1
31 486 m 2,6,-1
 29 542 l 1,7,8
 34.2714931033 547.271493103 34.2714931033 547.271493103 38.8327172509 547.271493103 c 0,9,10
 50.2872566634 547.271493103 50.2872566634 547.271493103 58.7336393345 507.014531399 c 128,-1,11
 67.1800220057 466.757569694 67.1800220057 466.757569694 68.7604792252 349.958015733 c 128,-1,12
 70.3409364447 233.158461772 70.3409364447 233.158461772 71 218 c 2,13,-1
 71 202 l 2,14,15
 71 179 71 179 57 179 c 0,16,17
 46 179 46 179 42 189 c 1,18,19
 37 208 37 208 34.5 341 c 128,-1,20
 32 474 32 474 31 486 c 2,6,-1
EndSplineSet
EndChar

StartChar: quotedbl
Encoding: 34 34 5
Width: 198
Flags: HW
LayerCount: 2
Fore
SplineSet
41.5 435.5 m 128,-1,1
 29 480 29 480 29 497.5 c 128,-1,2
 29 515 29 515 44 515 c 0,3,4
 62 515 62 515 70 492.5 c 128,-1,5
 78 470 78 470 78 443 c 128,-1,6
 78 416 78 416 67 391 c 1,7,-1
 63 391 l 2,8,0
 54 391 54 391 41.5 435.5 c 128,-1,1
171.75 462.125 m 2,9,-1
 171 440 l 1,10,-1
 169 408 l 1,11,-1
 160 397 l 1,12,13
 158 404 158 404 135 449 c 128,-1,14
 112 494 112 494 112 504.5 c 128,-1,15
 112 515 112 515 119.5 522.5 c 128,-1,16
 127 530 127 530 135.5 530 c 128,-1,17
 144 530 144 530 151 526.5 c 128,-1,18
 158 523 158 523 161.5 516.5 c 128,-1,19
 165 510 165 510 167.5 503.5 c 128,-1,20
 170 497 170 497 170.5 486.5 c 128,-1,21
 171 476 171 476 171.375 471.125 c 128,-1,22
 171.75 466.25 171.75 466.25 171.75 462.125 c 2,9,-1
EndSplineSet
EndChar

StartChar: numbersign
Encoding: 35 35 6
Width: 435
Flags: HW
LayerCount: 2
Fore
SplineSet
64 163 m 0,0,1
 64 170 64 170 84.5 178 c 128,-1,2
 105 186 105 186 112 186 c 1,3,-1
 112 262 l 1,4,5
 104.75 254.75 104.75 254.75 73.875 242.875 c 128,-1,6
 43 231 43 231 33 231 c 1,7,8
 33 246 33 246 45.5 257.5 c 128,-1,9
 58 269 58 269 72.5 274 c 0,10,11
 112 287.620689655 112 287.620689655 112 310 c 2,12,-1
 107 427 l 1,13,14
 138 427 138 427 140 404 c 1,15,16
 142 397 142 397 145 365.5 c 128,-1,17
 148 334 148 334 150 328 c 1,18,19
 152 329 152 329 164 332 c 2,20,21
 182 336.5 l 2,22,23
 205.6 342.4 205.6 342.4 214.3 348.2 c 2,24,-1
 230.5 359 l 2,25,26
 245 368.666666667 245 368.666666667 245 381.333333333 c 128,-1,27
 245 394 245 394 239.5 414.5 c 128,-1,28
 234 435 234 435 234 451.9375 c 128,-1,29
 234 468.875 234 468.875 245.71875 468.875 c 0,30,31
 252.75 468.875 252.75 468.875 264 461 c 1,32,-1
 282 394 l 1,33,-1
 283 393 l 1,34,-1
 285 393 l 2,35,36
 299 393 299 393 324 399.5 c 128,-1,37
 349 406 349 406 361 406 c 1,38,39
 361 384.333333333 361 384.333333333 321 379 c 0,40,41
 306 377 306 377 293.5 365 c 128,-1,42
 281 353 281 353 281 329 c 0,43,44
 281 271 281 271 296 271 c 0,45,46
 316.304347826 271 316.304347826 271 362.152173913 289.5 c 128,-1,47
 408 308 408 308 415 310 c 1,48,49
 424.329153853 308.167487636 424.329153853 308.167487636 424.329153853 304.201742423 c 0,50,51
 424.329153853 295.874591325 424.329153853 295.874591325 398.455480319 284.720195596 c 128,-1,52
 372.581806784 273.565799867 372.581806784 273.565799867 332.16577213 256.101501569 c 128,-1,53
 291.749737476 238.63720327 291.749737476 238.63720327 292 233 c 2,54,-1
 292 92 l 1,55,-1
 273 92 l 1,56,-1
 255 204 l 1,57,58
 251.297676205 205.234107932 251.297676205 205.234107932 246.306274543 205.234107932 c 0,59,60
 220.070390957 205.234107932 220.070390957 205.234107932 158.220117914 171.138417018 c 1,61,-1
 150 166 l 1,62,-1
 150 73 l 1,63,-1
 127 67 l 1,64,65
 126 71 126 71 124.5 102.5 c 128,-1,66
 123 134 123 134 120.5 140.5 c 128,-1,67
 118 147 118 147 108.5 149 c 128,-1,68
 99 151 99 151 89.5 149 c 0,69,70
 64 143.631578947 64 143.631578947 64 163 c 0,0,1
255 291 m 1,71,-1
 244 337 l 1,72,73
 226 337 226 337 191.5 317 c 128,-1,74
 157 297 157 297 150 281 c 1,75,-1
 150 204 l 1,76,77
 179 211 179 211 197 217.5 c 128,-1,78
 215 224 215 224 235 243.5 c 128,-1,79
 255 263 255 263 255 291 c 1,71,-1
EndSplineSet
EndChar

StartChar: dollar
Encoding: 36 36 7
Width: 301
Flags: HW
LayerCount: 2
Fore
SplineSet
260 534 m 1,0,1
 262 533 262 533 263 533 c 0,2,3
 271 531 271 531 271 523.5 c 128,-1,4
 271 516 271 516 268.5 496.5 c 0,5,6
 261.593220339 442.627118644 261.593220339 442.627118644 264 433 c 1,7,8
 264 421 264 421 272.590909091 399.318181818 c 128,-1,9
 281.181818182 377.636363636 281.181818182 377.636363636 281.181818182 365.181818182 c 128,-1,10
 281.181818182 352.727272727 281.181818182 352.727272727 278.090909091 339.363636364 c 128,-1,11
 275 326 275 326 252.965517241 309.21182266 c 128,-1,12
 230.931034483 292.42364532 230.931034483 292.42364532 230.931034483 286.677339901 c 128,-1,13
 230.931034483 280.931034483 230.931034483 280.931034483 243.965517241 251.965517241 c 0,14,15
 270.263157895 193.526315789 270.263157895 193.526315789 270.263157895 165 c 128,-1,16
 270.263157895 136.473684211 270.263157895 136.473684211 265 117 c 1,17,18
 234 29 234 29 161 -7 c 1,19,-1
 126 -140 l 1,20,21
 122 -149 122 -149 110 -149 c 0,22,23
 108.666666667 -149.333333333 108.666666667 -149.333333333 105.666666667 -149.333333333 c 128,-1,24
 102.666666667 -149.333333333 102.666666667 -149.333333333 96 -148 c 1,25,26
 102 -112 102 -112 111 -76 c 0,27,28
 126.692307692 -13.2307692308 126.692307692 -13.2307692308 123 -12 c 0,29,30
 84.7138810198 6.01699716714 84.7138810198 6.01699716714 55.3569405099 34.0084985836 c 128,-1,31
 26 62 26 62 21.1851851852 77.9259259259 c 128,-1,32
 16.3703703704 93.8518518519 16.3703703704 93.8518518519 16.3703703704 105.925925926 c 128,-1,33
 16.3703703704 118 16.3703703704 118 19.6851851852 132.5 c 128,-1,34
 23 147 23 147 37.5 178 c 128,-1,35
 52 209 52 209 57 221.5 c 128,-1,36
 62 234 62 234 78 249 c 128,-1,37
 94 264 94 264 109 267 c 1,38,39
 125.131147541 253.557377049 125.131147541 253.557377049 78 197 c 0,40,41
 48 161 48 161 43.1388888889 144.027777778 c 128,-1,42
 38.2777777778 127.055555556 38.2777777778 127.055555556 38.2777777778 115.944444444 c 128,-1,43
 38.2777777778 104.833333333 38.2777777778 104.833333333 47.1388888889 87.9166666667 c 0,44,45
 63.6985583224 56.3027522936 63.6985583224 56.3027522936 114 47.5 c 0,46,47
 118.516129032 46.7096774194 118.516129032 46.7096774194 127.5 46.7096774194 c 128,-1,48
 136.483870968 46.7096774194 136.483870968 46.7096774194 145 56 c 1,49,50
 146 60 146 60 151 76 c 128,-1,51
 156 92 156 92 158 98.5 c 128,-1,52
 160 105 160 105 165 121 c 128,-1,53
 170 137 170 137 172 146 c 128,-1,54
 174 155 174 155 177.5 169.5 c 128,-1,55
 181 184 181 184 182.5 194 c 128,-1,56
 184 204 184 204 185.5 216 c 0,57,58
 187.705882353 233.647058824 187.705882353 233.647058824 185 258 c 1,59,60
 133.8 309.2 133.8 309.2 133.8 355.28 c 0,61,62
 133.8 366.8 133.8 366.8 137 378 c 0,63,64
 157 458 157 458 233 464 c 1,65,66
 233 480 233 480 240 502.5 c 128,-1,67
 247 525 247 525 259 534 c 1,68,-1
 260 534 l 1,0,1
177 53 m 1,69,70
 183.285714286 46.7142857143 183.285714286 46.7142857143 191.642857143 51.8571428571 c 128,-1,71
 200 57 200 57 206 68 c 0,72,73
 214.644067797 83.8474576271 214.644067797 83.8474576271 223.5 108 c 2,74,-1
 229 123 l 1,75,76
 231.702702703 147.864864865 231.702702703 147.864864865 231.702702703 166.447772096 c 0,77,78
 231.702702703 216.621621622 231.702702703 216.621621622 212 221 c 1,79,80
 185 103 185 103 177 53 c 1,69,70
206.900408163 417.514285714 m 0,81,82
 186.605714286 417.514285714 186.605714286 417.514285714 168 371 c 0,83,84
 167.379310345 367.689655172 167.379310345 367.689655172 167.379310345 359.379310345 c 128,-1,85
 167.379310345 351.068965517 167.379310345 351.068965517 177.689655172 334.034482759 c 128,-1,86
 188 317 188 317 200 310 c 1,87,-1
 224 400 l 2,88,89
 227 408 227 408 221.5 412.5 c 0,90,91
 215.371428571 417.514285714 215.371428571 417.514285714 206.900408163 417.514285714 c 0,81,82
247 373 m 1,92,-1
 238 342 l 1,93,-1
 247 339 l 1,94,95
 252 353 252 353 252 361.5 c 128,-1,96
 252 370 252 370 247 373 c 1,92,-1
EndSplineSet
EndChar

StartChar: percent
Encoding: 37 37 8
Width: 349
Flags: HW
LayerCount: 2
Fore
SplineSet
103.485977326 2.15840412353 m 0,0,1
 87.7942122 2.15840412353 87.7942122 2.15840412353 87.7942122 27.2864583678 c 0,2,3
 87.7942122 94.76205782 87.7942122 94.76205782 174 362 c 1,4,-1
 168 362 l 2,5,6
 155 362 155 362 130.5 350 c 128,-1,7
 106 338 106 338 86.5 338 c 128,-1,8
 67 338 67 338 42.5 352.5 c 128,-1,9
 18 367 18 367 18 393.5 c 128,-1,10
 18 420 18 420 40 439.5 c 128,-1,11
 62 459 62 459 88 459 c 1,12,-1
 104 459.75 l 1,13,14
 132 459.75 132 459.75 132 439 c 0,15,16
 132 413.869565217 132 413.869565217 101.5 420.5 c 0,17,18
 90 423 90 423 77.5 418.5 c 128,-1,19
 65 414 65 414 61 398 c 1,20,21
 75.4207650273 371.218579235 75.4207650273 371.218579235 100 375 c 0,22,23
 126.936936937 379.144144144 126.936936937 379.144144144 146.468468468 392.572072072 c 128,-1,24
 166 406 166 406 174.5 412 c 128,-1,25
 183 418 183 418 198 430.5 c 128,-1,26
 213 443 213 443 216 445 c 1,27,28
 235.592592593 443.296296296 235.592592593 443.296296296 235.592592593 427.80521262 c 0,29,30
 235.592592593 425.111111111 235.592592593 425.111111111 235 422 c 2,31,-1
 117 5 l 1,32,33
 109.18561134 2.15840412353 109.18561134 2.15840412353 103.485977326 2.15840412353 c 0,0,1
193 122 m 1,34,35
 223.373009196 221.111924745 223.373009196 221.111924745 281.263890506 221.111924745 c 0,36,37
 317.449362561 221.111924745 317.449362561 221.111924745 341.639762318 181.744021509 c 0,38,39
 357.51634819 155.906172503 357.51634819 155.906172503 357.51634819 132.879746929 c 128,-1,40
 357.51634819 109.853321356 357.51634819 109.853321356 346.299833315 89.3987321514 c 0,41,42
 323.05370364 47.0067736492 323.05370364 47.0067736492 256 33 c 1,43,44
 193 33 193 33 193 122 c 1,34,35
233 122 m 1,45,46
 233 68 233 68 262 68 c 1,47,48
 328.510565253 88.6266942874 328.510565253 88.6266942874 328.510565253 134.264393262 c 0,49,50
 328.510565253 167.212169073 328.510565253 167.212169073 299.92666069 184.352825216 c 0,51,52
 287.992597862 191.509218664 287.992597862 191.509218664 274.460245482 191.509218664 c 128,-1,53
 260.927893102 191.509218664 260.927893102 191.509218664 248.605532494 173.273067886 c 128,-1,54
 236.283171887 155.036917108 236.283171887 155.036917108 233 122 c 1,45,46
EndSplineSet
EndChar

StartChar: ampersand
Encoding: 38 38 9
Width: 308
Flags: HW
LayerCount: 2
Fore
SplineSet
197 257 m 1,0,1
 251 249 251 249 276.264705882 231.82 c 128,-1,2
 301.529411765 214.64 301.529411765 214.64 301.529411765 185.937647059 c 128,-1,3
 301.529411765 157.235294118 301.529411765 157.235294118 275.458333333 89.6875 c 0,4,5
 264.916666667 62.375 264.916666667 62.375 264.916666667 26.5541666667 c 128,-1,6
 264.916666667 -9.26666666667 264.916666667 -9.26666666667 286 -43 c 1,7,-1
 276 -83 l 1,8,-1
 230 5 l 1,9,10
 210 -8 210 -8 184 -16.8064516129 c 128,-1,11
 158 -25.6129032258 158 -25.6129032258 147.241935484 -25.6129032258 c 128,-1,12
 136.483870968 -25.6129032258 136.483870968 -25.6129032258 131 -24 c 0,13,14
 85 -12 85 -12 65 24.5 c 0,15,16
 53.5714285714 45.3571428571 53.5714285714 45.3571428571 53.5714285714 69.1785714286 c 128,-1,17
 53.5714285714 93 53.5714285714 93 61.7857142857 122 c 128,-1,18
 70 151 70 151 108.5 206 c 128,-1,19
 147 261 147 261 151.5 279.5 c 128,-1,20
 156 298 156 298 156.5 335 c 128,-1,21
 157 372 157 372 163 394 c 128,-1,22
 169 416 169 416 182.285714286 428.857142857 c 128,-1,23
 195.571428571 441.714285714 195.571428571 441.714285714 204.928571429 441.714285714 c 0,24,25
 250.785714286 441.714285714 250.785714286 441.714285714 250.785714286 379.413865546 c 128,-1,26
 250.785714286 317.113445378 250.785714286 317.113445378 197 257 c 1,0,1
175.863636364 161.820247934 m 1,27,-1
 178.19047619 196.675736961 l 1,28,29
 178.19047619 221.238095238 178.19047619 221.238095238 166 222 c 1,30,31
 154 218 154 218 143 204.5 c 128,-1,32
 132 191 132 191 108.5 152 c 128,-1,33
 85 113 85 113 82.58 104.14 c 128,-1,34
 80.16 95.28 80.16 95.28 80.16 79.03 c 128,-1,35
 80.16 62.78 80.16 62.78 88 48.5 c 0,36,37
 102 23 102 23 133 14 c 0,38,39
 135.666666667 13.1111111111 135.666666667 13.1111111111 140.666666667 13.1111111111 c 0,40,41
 161.222222222 13.1111111111 161.222222222 13.1111111111 182.111111111 24.0555555556 c 128,-1,42
 203 35 203 35 208 50 c 0,43,44
 209 56 209 56 209 75.5 c 0,45,46
 209 122 209 122 216 136 c 1,47,48
 204 127 204 127 189.931818182 131.431818182 c 128,-1,49
 175.863636364 135.863636364 175.863636364 135.863636364 175.863636364 161.820247934 c 1,27,-1
224 210 m 1,50,51
 220.838709677 198.709677419 220.838709677 198.709677419 220.838709677 184.290322581 c 128,-1,52
 220.838709677 169.870967742 220.838709677 169.870967742 227.419354839 143.935483871 c 128,-1,53
 234 118 234 118 253 109 c 1,54,55
 254 111 254 111 256 117.5 c 0,56,57
 262.470588235 138.529411765 262.470588235 138.529411765 268.196333079 152.173796791 c 128,-1,58
 273.922077922 165.818181818 273.922077922 165.818181818 273.922077922 171.915331422 c 0,59,60
 273.922077922 197.116883117 273.922077922 197.116883117 224 210 c 1,50,51
200 407 m 1,61,62
 179.583333333 373.166666667 179.583333333 373.166666667 179.583333333 351.166666667 c 128,-1,63
 179.583333333 329.166666667 179.583333333 329.166666667 190 315 c 1,64,65
 205.666666667 321.714285714 205.666666667 321.714285714 209.333333333 324.857142857 c 128,-1,66
 213 328 213 328 215 329.5 c 128,-1,67
 217 331 217 331 218.5 335 c 128,-1,68
 220 339 220 339 220.5 340 c 0,69,70
 224 347 224 347 224.8 352.7 c 128,-1,71
 225.6 358.4 225.6 358.4 225.6 364.44 c 0,72,73
 225.6 388.6 225.6 388.6 200 407 c 1,61,62
EndSplineSet
EndChar

StartChar: quotesingle
Encoding: 39 39 10
Width: 94
Flags: HW
LayerCount: 2
Fore
SplineSet
27.5 386 m 128,-1,1
 24 390 24 390 24 397 c 128,-1,2
 24 404 24 404 33 433.5 c 128,-1,3
 42 463 42 463 42 476.5 c 128,-1,4
 42 490 42 490 36.5 508 c 128,-1,5
 31 526 31 526 31 538 c 1,6,7
 50 538 50 538 65.1111111111 523.361111111 c 128,-1,8
 80.2222222222 508.722222222 80.2222222222 508.722222222 80.2222222222 491.388888889 c 0,9,10
 80.2222222222 421.351851852 80.2222222222 421.351851852 33 382 c 1,11,0
 31 382 31 382 27.5 386 c 128,-1,1
EndSplineSet
EndChar

StartChar: parenleft
Encoding: 40 40 11
Width: 280
Flags: HW
LayerCount: 2
Fore
SplineSet
139 -120 m 0,0,1
 101 -109 101 -109 84.3974358974 -38.7948717949 c 128,-1,2
 67.7948717949 31.4102564103 67.7948717949 31.4102564103 67.7948717949 107.595571096 c 128,-1,3
 67.7948717949 183.780885781 67.7948717949 183.780885781 82.8974358974 237.39044289 c 128,-1,4
 98 291 98 291 160.311946903 388.03539823 c 128,-1,5
 222.623893805 485.07079646 222.623893805 485.07079646 257.711606234 485.07079646 c 0,6,7
 261.495575221 485.07079646 261.495575221 485.07079646 273.177164602 481.2256059 c 128,-1,8
 284.858753983 477.380415339 284.858753983 477.380415339 284.858753983 469.803228411 c 0,9,10
 284.858753983 465.352786628 284.858753983 465.352786628 282 459 c 1,11,12
 260 459 260 459 233 429.5 c 128,-1,13
 206 400 206 400 182 355 c 0,14,15
 138.298507463 273.059701493 138.298507463 273.059701493 114 209 c 1,16,17
 100.115384615 166.615384615 100.115384615 166.615384615 100.115384615 132.865384615 c 0,18,19
 100.115384615 35.2096153846 100.115384615 35.2096153846 123.922771673 -35.0221764347 c 128,-1,20
 147.73015873 -105.253968254 147.73015873 -105.253968254 160.320987654 -105.253968254 c 0,21,22
 161.174603175 -105.253968254 161.174603175 -105.253968254 162 -105 c 1,23,24
 158.695652174 -120.695652174 158.695652174 -120.695652174 145.155009452 -120.695652174 c 0,25,26
 142.304347826 -120.695652174 142.304347826 -120.695652174 139 -120 c 0,0,1
EndSplineSet
EndChar

StartChar: parenright
Encoding: 41 41 12
Width: 262
Flags: HW
LayerCount: 2
Fore
SplineSet
77 -41 m 1,0,1
 114 -1 114 -1 160.5 158.5 c 128,-1,2
 207 318 207 318 222 417 c 1,3,4
 218 499 218 499 136 522 c 1,5,6
 142.70212766 548.063829787 142.70212766 548.063829787 165.486192847 548.063829787 c 0,7,8
 173.29787234 548.063829787 173.29787234 548.063829787 183 545 c 0,9,10
 213 537 213 537 230 514.5 c 128,-1,11
 247 492 247 492 249.863636364 467.454545455 c 128,-1,12
 252.727272727 442.909090909 252.727272727 442.909090909 252.727272727 428.545454545 c 0,13,14
 252.727272727 386.909090909 252.727272727 386.909090909 243 348 c 1,15,16
 237 225 237 225 161.5 39.5 c 0,17,18
 105.366733467 -98.4168336673 105.366733467 -98.4168336673 53.3792635371 -98.4168336673 c 0,19,20
 35.4428857715 -98.4168336673 35.4428857715 -98.4168336673 18 -82 c 1,21,22
 24 -56 24 -56 33 -51 c 128,-1,23
 42 -46 42 -46 52 -50.5 c 128,-1,24
 62 -55 62 -55 77 -41 c 1,0,1
EndSplineSet
EndChar

StartChar: asterisk
Encoding: 42 42 13
Width: 275
Flags: HW
LayerCount: 2
Fore
SplineSet
147 205 m 1,0,-1
 132 258 l 1,1,2
 122 258 122 258 103.818181818 245.727272727 c 128,-1,3
 85.6363636364 233.454545455 85.6363636364 233.454545455 79.7272727273 233.454545455 c 0,4,5
 62.101010101 233.454545455 62.101010101 233.454545455 54.3838383838 246.477272727 c 128,-1,6
 46.6666666667 259.5 46.6666666667 259.5 46.6666666667 265.416666667 c 0,7,8
 46.6666666667 285.060606061 46.6666666667 285.060606061 71.3333333333 294.03030303 c 128,-1,9
 96 303 96 303 100 315 c 1,10,-1
 102 325 l 1,11,12
 97 329 97 329 85 337.5 c 128,-1,13
 73 346 73 346 70 348.5 c 128,-1,14
 67 351 67 351 60 358 c 128,-1,15
 53 365 53 365 52 368.5 c 128,-1,16
 51 372 51 372 49.5 379.5 c 0,17,18
 47.1153846154 391.423076923 47.1153846154 391.423076923 53 413 c 1,19,20
 103 399 103 399 130 355 c 1,21,22
 165.121212121 411.378787879 165.121212121 411.378787879 180.595270891 411.378787879 c 0,23,24
 190.513257576 411.378787879 190.513257576 411.378787879 196.256628788 402.189393939 c 128,-1,25
 202 393 202 393 203 385 c 128,-1,26
 204 377 204 377 204.5 363.5 c 128,-1,27
 205 350 205 350 206 346 c 1,28,-1
 254 333 l 1,29,30
 250 317 250 317 241 308.5 c 128,-1,31
 232 300 232 300 224 299 c 0,32,33
 203.368421053 296.421052632 203.368421053 296.421052632 200 288 c 2,34,-1
 175 198 l 1,35,-1
 147 205 l 1,0,-1
EndSplineSet
EndChar

StartChar: plus
Encoding: 43 43 14
Width: 413
Flags: HW
LayerCount: 2
Fore
SplineSet
230 249 m 1,0,-1
 254 241 l 1,1,-1
 395 224 l 1,2,3
 402.251766094 227.988471352 402.251766094 227.988471352 402.251766094 222.366044654 c 0,4,5
 402.251766094 208.189327804 402.251766094 208.189327804 376.959791244 201.823163434 c 128,-1,6
 351.667816394 195.456999063 351.667816394 195.456999063 318.272747367 195.456999063 c 128,-1,7
 284.877678341 195.456999063 284.877678341 195.456999063 224 210 c 1,8,-1
 188 73 l 1,9,-1
 154 73 l 1,10,-1
 192 213 l 1,11,12
 179 215 179 215 126 228 c 128,-1,13
 73 241 73 241 67 242 c 1,14,15
 38.2 253.2 38.2 253.2 38.2 276.56 c 0,16,17
 38.2 282.4 38.2 282.4 40 289 c 1,18,-1
 193 248 l 1,19,20
 198 270 198 270 206 314 c 128,-1,21
 214 358 214 358 221 382 c 0,22,23
 224.75 393.25 224.75 393.25 232.875 393.25 c 128,-1,24
 241 393.25 241 393.25 247 391.625 c 128,-1,25
 253 390 253 390 255.5 388.5 c 0,26,27
 265.450980392 382.529411765 265.450980392 382.529411765 262 367 c 2,28,-1
 230 249 l 1,0,-1
EndSplineSet
EndChar

StartChar: comma
Encoding: 44 44 15
Width: 162
Flags: HW
LayerCount: 2
Fore
SplineSet
111.046296296 96.3888888889 m 0,0,1
 149.571428571 96.3888888889 149.571428571 96.3888888889 149.571428571 28.7755102041 c 0,2,3
 149.571428571 12.8571428571 149.571428571 12.8571428571 145 2 c 1,4,5
 126 -68 126 -68 92 -83 c 1,6,7
 85.3333333333 -79 85.3333333333 -79 85.3333333333 -73.6666666667 c 128,-1,8
 85.3333333333 -68.3333333333 85.3333333333 -68.3333333333 87 -64 c 2,9,-1
 90 -54 l 1,10,11
 115 -4 115 -4 115 8 c 0,12,13
 115.6 10.6 115.6 10.6 115.6 18.5 c 128,-1,14
 115.6 26.4 115.6 26.4 104.8 50.7 c 128,-1,15
 94 75 94 75 96 87 c 1,16,17
 99.6111111111 96.3888888889 99.6111111111 96.3888888889 111.046296296 96.3888888889 c 0,0,1
EndSplineSet
EndChar

StartChar: hyphen
Encoding: 45 45 16
Width: 326
Flags: HW
LayerCount: 2
Fore
SplineSet
87 260 m 2,0,-1
 279 265 l 1,1,-1
 284 265 l 2,2,3
 300 265 300 265 300 245 c 0,4,5
 300 228 300 228 279 227 c 2,6,-1
 59 223 l 2,7,8
 58.5 222.95 58.5 222.95 58.025 222.95 c 0,9,10
 49 222.95 49 222.95 49 235.475 c 128,-1,11
 49 248 49 248 51 252.5 c 128,-1,12
 53 257 53 257 57.5 258.5 c 128,-1,13
 62 260 62 260 65.5 260.5 c 128,-1,14
 69 261 69 261 76.5 260.5 c 128,-1,15
 84 260 84 260 87 260 c 2,0,-1
EndSplineSet
EndChar

StartChar: period
Encoding: 46 46 17
Width: 123
Flags: HW
LayerCount: 2
Fore
SplineSet
93 46 m 1,0,1
 100 43 100 43 107.5 30 c 128,-1,2
 115 17 115 17 113 9 c 1,3,4
 103.50957166 -8.62508120269 103.50957166 -8.62508120269 94.4476224915 -8.62508120269 c 0,5,6
 85.3856733229 -8.62508120269 85.3856733229 -8.62508120269 75.1780082249 -0.923797365242 c 0,7,8
 64.9703431269 6.77748647221 64.9703431269 6.77748647221 64.9703431269 15.4404240333 c 0,9,10
 64.9703431269 24.1033615944 64.9703431269 24.1033615944 66.0149316242 28.1699231101 c 0,11,12
 70.104897165 44.0920747638 70.104897165 44.0920747638 93 46 c 1,0,1
EndSplineSet
EndChar

StartChar: slash
Encoding: 47 47 18
Width: 439
Flags: HW
LayerCount: 2
Fore
SplineSet
47 10 m 1,0,1
 47 6.85714285714 47 6.85714285714 40.6428571429 6.85714285714 c 0,2,3
 26.2380952381 6.85714285714 26.2380952381 6.85714285714 24 27 c 1,4,-1
 33.4210524436 43.84963475 l 1,5,6
 92.4474383732 128.99924504 92.4474383732 128.99924504 391 463 c 1,7,-1
 394 464 l 1,8,-1
 400 465 l 1,9,-1
 411.302469136 465.555555556 l 2,10,11
 421.727272727 465.555555556 421.727272727 465.555555556 421.727272727 454.884297521 c 0,12,13
 421.727272727 452.272727273 421.727272727 452.272727273 421.363636364 448.136363636 c 128,-1,14
 421 444 421 444 412 432 c 128,-1,15
 403 420 403 420 399 417 c 0,16,17
 189 225 189 225 47 10 c 1,0,1
EndSplineSet
EndChar

StartChar: zero
Encoding: 48 48 19
Width: 462
Flags: HW
LayerCount: 2
Fore
SplineSet
121 -51 m 1,0,1
 80 -38 80 -38 53 9.5 c 0,2,3
 20.813559322 66.1242937853 20.813559322 66.1242937853 20.813559322 134.011299435 c 128,-1,4
 20.813559322 201.898305085 20.813559322 201.898305085 42 268 c 1,5,6
 78 407 78 407 151.5 476 c 0,7,8
 209.130681818 530.102272727 209.130681818 530.102272727 271.372352789 530.102272727 c 0,9,10
 288.511363636 530.102272727 288.511363636 530.102272727 306 526 c 1,11,12
 429.379746835 487.759493671 429.379746835 487.759493671 429.379746835 354.771671207 c 0,13,14
 429.379746835 303.443037975 429.379746835 303.443037975 411 238 c 0,15,16
 371 92 371 92 288 10 c 0,17,18
 221.922330097 -55.2815533981 221.922330097 -55.2815533981 155.210858705 -55.2815533981 c 0,19,20
 138.126213592 -55.2815533981 138.126213592 -55.2815533981 121 -51 c 1,0,1
70 256 m 0,21,22
 56 204.5 56 204.5 56 160.5 c 128,-1,23
 56 116.5 56 116.5 70 80 c 1,24,25
 105 0 105 0 147 -10 c 0,26,27
 149.27027027 -10.1081081081 149.27027027 -10.1081081081 151.563915267 -10.1081081081 c 0,28,29
 191.702702703 -10.1081081081 191.702702703 -10.1081081081 240.851351351 24.4459459459 c 128,-1,30
 290 59 290 59 314.5 88 c 128,-1,31
 339 117 339 117 351 158 c 1,32,33
 386.765957447 251.340425532 386.765957447 251.340425532 386.765957447 312.719782707 c 0,34,35
 386.765957447 321.70212766 386.765957447 321.70212766 385.882978723 337.85106383 c 128,-1,36
 385 354 385 354 376.5 392 c 128,-1,37
 368 430 368 430 342 449.5 c 128,-1,38
 316 469 316 469 305 474 c 1,39,40
 284.569892473 480.720430108 284.569892473 480.720430108 264.86241184 480.720430108 c 0,41,42
 211.258064516 480.720430108 211.258064516 480.720430108 163 431 c 0,43,44
 97 363 97 363 70 256 c 0,21,22
EndSplineSet
EndChar

StartChar: one
Encoding: 49 49 20
Width: 200
Flags: HW
LayerCount: 2
Fore
SplineSet
4 9 m 1,0,-1
 103 378 l 1,1,2
 121 456 121 456 121 473 c 1,3,4
 119 472 119 472 84 458.5 c 128,-1,5
 49 445 49 445 43 445 c 2,6,-1
 32 445 l 1,7,8
 41 477 41 477 63 496.5 c 128,-1,9
 85 516 85 516 118.5 534 c 128,-1,10
 152 552 152 552 167 564 c 1,11,-1
 169 563 l 1,12,13
 170 564 170 564 171 564 c 0,14,15
 178 561 178 561 178 524 c 1,16,17
 85 190 85 190 45 -2 c 1,18,19
 40 -8 40 -8 26 -17 c 128,-1,20
 12 -26 12 -26 9 -30 c 1,21,22
 4 -19 4 -19 4 9 c 1,0,-1
EndSplineSet
EndChar

StartChar: two
Encoding: 50 50 21
Width: 310
Flags: HW
LayerCount: 2
Fore
SplineSet
260.764705882 86.7716262976 m 1,0,-1
 252.076923077 152.029585799 l 1,1,2
 252.076923077 160.846153846 252.076923077 160.846153846 253.538461538 164.923076923 c 128,-1,3
 255 169 255 169 256 172.5 c 128,-1,4
 257 176 257 176 257.5 178 c 128,-1,5
 258 180 258 180 259.5 182.5 c 128,-1,6
 261 185 261 185 262 185 c 128,-1,7
 263 185 263 185 265 184 c 2,8,-1
 300 149 l 2,9,10
 303 146 303 146 283 36 c 1,11,12
 267 -12 267 -12 241.63 -27.48 c 128,-1,13
 216.26 -42.96 216.26 -42.96 202.41 -42.96 c 128,-1,14
 188.56 -42.96 188.56 -42.96 181 -41 c 0,15,16
 162 -37 162 -37 133 -8 c 0,17,18
 98.4181818182 26.5818181818 98.4181818182 26.5818181818 83.8181818182 26.5818181818 c 128,-1,19
 69.2181818182 26.5818181818 69.2181818182 26.5818181818 46.5807890223 6.12109777015 c 128,-1,20
 23.9433962264 -14.3396226415 23.9433962264 -14.3396226415 11.8964044144 -14.3396226415 c 0,21,22
 10.358490566 -14.3396226415 10.358490566 -14.3396226415 9 -14 c 1,23,24
 31.2178217822 76.8910891089 31.2178217822 76.8910891089 78 148 c 0,25,26
 120.523364486 212.635514019 120.523364486 212.635514019 162.261682243 263.317757009 c 128,-1,27
 204 314 204 314 215 328 c 1,28,29
 235 350 235 350 250 407 c 1,30,31
 262.071428571 443.214285714 262.071428571 443.214285714 262.071428571 469.961038961 c 128,-1,32
 262.071428571 496.707792208 262.071428571 496.707792208 239 503 c 0,33,34
 235.571428571 503.914285714 235.571428571 503.914285714 232.038367347 503.914285714 c 0,35,36
 197.457142857 503.914285714 197.457142857 503.914285714 152.5 414 c 0,37,38
 144.375 397.75 144.375 397.75 138.6875 392.875 c 128,-1,39
 133 388 133 388 130 389 c 0,40,41
 118 391 118 391 124 417 c 1,42,43
 145 484 145 484 182.665 523.99 c 128,-1,44
 220.33 563.98 220.33 563.98 249.613 563.98 c 0,45,46
 254.38 563.98 254.38 563.98 259 563 c 0,47,48
 291.329896907 553.18556701 291.329896907 553.18556701 291.329896907 510.046391753 c 128,-1,49
 291.329896907 466.907216495 291.329896907 466.907216495 274 409 c 1,50,51
 259 349 259 349 230 300 c 128,-1,52
 201 251 201 251 173.5 223.5 c 0,53,54
 98.4285714286 148.428571429 98.4285714286 148.428571429 83 85 c 1,55,56
 103 78 103 78 139 52 c 128,-1,57
 175 26 175 26 187.5 22.5 c 128,-1,58
 200 19 200 19 207.5 17 c 128,-1,59
 215 15 215 15 219 14.5 c 128,-1,60
 223 14 223 14 229 15.5 c 128,-1,61
 235 17 235 17 239 21 c 0,62,63
 250.818181818 32.8181818182 250.818181818 32.8181818182 256 57 c 1,64,65
 260.764705882 70.7647058824 260.764705882 70.7647058824 260.764705882 86.7716262976 c 1,0,-1
EndSplineSet
EndChar

StartChar: three
Encoding: 51 51 22
Width: 396
Flags: HW
LayerCount: 2
Fore
SplineSet
300 375 m 0,0,1
 351.714285714 313.589285714 351.714285714 313.589285714 351.714285714 252.06122449 c 0,2,3
 351.714285714 227.551020408 351.714285714 227.551020408 341.857142857 178.275510204 c 128,-1,4
 332 129 332 129 310 88.5 c 128,-1,5
 288 48 288 48 261.5 24 c 0,6,7
 198.341666667 -33.2 198.341666667 -33.2 134.92 -33.2 c 0,8,9
 113 -33.2 113 -33.2 93 -30 c 1,10,11
 59 -18 59 -18 35 27.5 c 0,12,13
 20.6 54.8 20.6 54.8 20.6 81.6 c 128,-1,14
 20.6 108.4 20.6 108.4 28.8 139.2 c 0,15,16
 43.8142635659 195.59503876 43.8142635659 195.59503876 95 233 c 1,17,-1
 98 231 l 1,18,19
 109 229 109 229 103 211 c 1,20,21
 100 195 100 195 82.5 170 c 128,-1,22
 65 145 65 145 61.275862069 130.931034483 c 128,-1,23
 57.5517241379 116.862068966 57.5517241379 116.862068966 57.5517241379 97.3103448276 c 128,-1,24
 57.5517241379 77.7586206897 57.5517241379 77.7586206897 70 54.5 c 0,25,26
 89 19 89 19 114 17 c 0,27,28
 124.606060606 15.4848484848 124.606060606 15.4848484848 142.257575758 15.4848484848 c 128,-1,29
 159.909090909 15.4848484848 159.909090909 15.4848484848 190.454545455 25.2424242424 c 128,-1,30
 221 35 221 35 256.5 74 c 128,-1,31
 292 113 292 113 309 175 c 0,32,33
 315.617647059 200.588235294 315.617647059 200.588235294 315.617647059 227.492647059 c 128,-1,34
 315.617647059 254.397058824 315.617647059 254.397058824 305 281.5 c 0,35,36
 281.429553265 341.666666667 281.429553265 341.666666667 233.666666667 341.666666667 c 0,37,38
 227.666666667 341.666666667 227.666666667 341.666666667 213.333333333 340.333333333 c 128,-1,39
 199 339 199 339 191 342 c 128,-1,40
 183 345 183 345 182.5 346 c 128,-1,41
 182 347 182 347 178.5 352 c 128,-1,42
 175 357 175 357 179 364 c 1,43,44
 185.545454545 390.181818182 185.545454545 390.181818182 247.5 406 c 0,45,46
 271 412 271 412 295 430.5 c 128,-1,47
 319 449 319 449 328 480 c 1,48,49
 328 491 328 491 323 491 c 1,50,51
 321 492 321 492 271 509 c 0,52,53
 258.454545455 512.272727273 258.454545455 512.272727273 241.446280992 512.272727273 c 1,54,-1
 172.265625 506.875 l 2,55,56
 163.875 506.875 163.875 506.875 159 508 c 0,57,58
 148.382352941 510.794117647 148.382352941 510.794117647 148.382352941 524.191176471 c 128,-1,59
 148.382352941 537.588235294 148.382352941 537.588235294 155 557 c 0,60,61
 157 563 157 563 169.916666667 566.333333333 c 128,-1,62
 182.833333333 569.666666667 182.833333333 569.666666667 190.75 569.666666667 c 128,-1,63
 198.666666667 569.666666667 198.666666667 569.666666667 207.833333333 568.333333333 c 128,-1,64
 217 567 217 567 237.5 562 c 128,-1,65
 258 557 258 557 273.5 554 c 128,-1,66
 289 551 289 551 363 529 c 1,67,68
 365 533 365 533 373.5 535.5 c 0,69,70
 389.033333333 540.068627451 389.033333333 540.068627451 389.033333333 525.244444444 c 0,71,72
 389.033333333 513.633333333 389.033333333 513.633333333 365.516666667 473.316666667 c 0,73,74
 333.601190476 418.601190476 333.601190476 418.601190476 308 393 c 0,75,76
 302 387 302 387 302 384 c 2,77,-1
 301 381 l 1,78,-1
 301 377 l 1,79,80
 300 376 300 376 300 375 c 0,0,1
EndSplineSet
EndChar

StartChar: four
Encoding: 52 52 23
Width: 355
Flags: HW
LayerCount: 2
Fore
SplineSet
160 -47 m 1,0,-1
 219 275 l 2,1,2
 220 279 220 279 103 329 c 1,3,-1
 85 334 l 2,4,5
 74.125 337.375 74.125 337.375 58.6875 337.375 c 128,-1,6
 43.25 337.375 43.25 337.375 22 328 c 1,7,8
 16.4444444444 331.333333333 16.4444444444 331.333333333 16.4444444444 337.666666667 c 128,-1,9
 16.4444444444 344 16.4444444444 344 20 352 c 1,10,11
 20 360 20 360 97 466 c 128,-1,12
 174 572 174 572 182 572 c 1,13,14
 196 569 196 569 191 549 c 0,15,16
 190 547 190 547 189 544 c 128,-1,17
 188 541 188 541 187 539 c 128,-1,18
 186 537 186 537 184.5 535 c 0,19,20
 182.25 532 182.25 532 177 532 c 1,21,-1
 92 394 l 1,22,-1
 89 383 l 1,23,24
 110 377 110 377 146.5 357 c 128,-1,25
 183 337 183 337 194 334 c 0,26,27
 223.117647059 326.058823529 223.117647059 326.058823529 227 328 c 1,28,-1
 235 335 l 2,29,30
 235 336 235 336 237.5 344 c 0,31,32
 245.357142857 369.142857143 245.357142857 369.142857143 247.178571429 378.071428571 c 128,-1,33
 249 387 249 387 256 411 c 128,-1,34
 263 435 263 435 265.5 445 c 128,-1,35
 268 455 268 455 272.5 474 c 0,36,37
 281.137096774 510.467741935 281.137096774 510.467741935 283 544 c 1,38,39
 287 550 287 550 289 554 c 128,-1,40
 291 558 291 558 292.5 560 c 0,41,42
 294.75 563 294.75 563 300 563 c 1,43,44
 301 561 301 561 307.5 551 c 128,-1,45
 314 541 314 541 310 537 c 1,46,-1
 273 346 l 2,47,48
 269 327 269 327 279 321 c 0,49,50
 280.272727273 320.818181818 280.272727273 320.818181818 281.541322314 320.818181818 c 0,51,52
 294.227272727 320.818181818 294.227272727 320.818181818 307.113636364 339.909090909 c 128,-1,53
 320 359 320 359 325 381 c 1,54,55
 336.764705882 377.470588235 336.764705882 377.470588235 336.764705882 362.705882353 c 128,-1,56
 336.764705882 347.941176471 336.764705882 347.941176471 331 329 c 0,57,58
 319 283 319 283 261 275 c 1,59,60
 259 272 259 272 248.5 234 c 128,-1,61
 238 196 238 196 231.5 167.5 c 128,-1,62
 225 139 225 139 221.5 120 c 128,-1,63
 218 101 218 101 211.5 61.5 c 128,-1,64
 205 22 205 22 200 -5 c 1,65,66
 208 -9 208 -9 202 -28 c 0,67,68
 191.33180778 -61.7826086957 191.33180778 -61.7826086957 176.593572779 -61.7826086957 c 0,69,70
 174.347826087 -61.7826086957 174.347826087 -61.7826086957 172 -61 c 0,71,72
 159 -61 159 -61 160 -47 c 1,0,-1
EndSplineSet
EndChar

StartChar: five
Encoding: 53 53 24
Width: 347
Flags: HW
LayerCount: 2
Fore
SplineSet
310 564 m 1,0,-1
 322 562 l 2,1,2
 334.19047619 560.476190476 334.19047619 560.476190476 334.19047619 548.503401361 c 0,3,4
 334.19047619 526.409863946 334.19047619 526.409863946 317.595238095 518.704931973 c 128,-1,5
 301 511 301 511 288.5 512 c 128,-1,6
 276 513 276 513 260.5 516 c 128,-1,7
 245 519 245 519 236.5 521 c 128,-1,8
 228 523 228 523 201 523 c 1,9,-1
 174 526 l 1,10,-1
 164 516 l 1,11,-1
 142 435 l 2,12,13
 137 419 137 419 153 419 c 1,14,15
 165 416 165 416 191 416 c 128,-1,16
 217 416 217 416 229 412 c 1,17,18
 286 399 286 399 307 332.5 c 0,19,20
 316.382978723 302.787234043 316.382978723 302.787234043 316.382978723 262.053191489 c 128,-1,21
 316.382978723 221.319148936 316.382978723 221.319148936 302 166 c 0,22,23
 273 61 273 61 198.5 11 c 0,24,25
 143.720588235 -25.7647058824 143.720588235 -25.7647058824 96.2400519031 -25.7647058824 c 0,26,27
 79.1470588235 -25.7647058824 79.1470588235 -25.7647058824 63 -21 c 2,28,-1
 23 -10 l 1,29,30
 5.2037037037 14.1111111111 5.2037037037 14.1111111111 5.2037037037 47.7407407407 c 128,-1,31
 5.2037037037 81.3703703704 5.2037037037 81.3703703704 14.6018518519 118.685185185 c 128,-1,32
 24 156 24 156 40.7368421053 178.780701754 c 128,-1,33
 57.4736842105 201.561403509 57.4736842105 201.561403509 77.3813481071 201.561403509 c 0,34,35
 80.6315789474 201.561403509 80.6315789474 201.561403509 84 201 c 1,36,37
 99 193 99 193 94 176 c 1,38,39
 94 172 94 172 93 171 c 2,40,-1
 45 122 l 1,41,42
 44 118 44 118 43 115.5 c 0,43,44
 38.7333333333 104.833333333 38.7333333333 104.833333333 38.7333333333 86.9666666667 c 128,-1,45
 38.7333333333 69.1 38.7333333333 69.1 44.8666666667 49.55 c 128,-1,46
 51 30 51 30 66.4117647059 26.0784313725 c 128,-1,47
 81.8235294118 22.1568627451 81.8235294118 22.1568627451 97.2122260669 22.1568627451 c 0,48,49
 137.882352941 22.1568627451 137.882352941 22.1568627451 182.5 49 c 0,50,51
 244 86 244 86 270 172 c 1,52,53
 280.810810811 218.486486486 280.810810811 218.486486486 280.810810811 251.351351351 c 0,54,55
 280.810810811 348.675675676 280.810810811 348.675675676 205 368 c 0,56,57
 198.777777778 369.777777778 198.777777778 369.777777778 189.395061728 369.777777778 c 2,58,-1
 129.75 363.875 l 2,59,60
 122.25 363.875 122.25 363.875 117 365 c 2,61,-1
 103 369 l 1,62,-1
 123 490 l 1,63,64
 119.307692308 508.153846154 119.307692308 508.153846154 119.307692308 522.899408284 c 0,65,66
 119.307692308 556.076923077 119.307692308 556.076923077 138 572 c 1,67,68
 220 570 220 570 310 564 c 1,0,-1
EndSplineSet
EndChar

StartChar: six
Encoding: 54 54 25
Width: 293
Flags: HW
LayerCount: 2
Fore
SplineSet
36 220 m 0,0,1
 63 330 63 330 117.5 431 c 128,-1,2
 172 532 172 532 236 593 c 1,3,-1
 239 591 l 1,4,5
 245 590 245 590 246 581 c 128,-1,6
 247 572 247 572 244 563 c 2,7,-1
 239 552 l 1,8,9
 192 502 192 502 137 396.5 c 128,-1,10
 82 291 82 291 67.75 232 c 128,-1,11
 53.5 173 53.5 173 53.5 143 c 128,-1,12
 53.5 113 53.5 113 62 90 c 0,13,14
 79 44 79 44 115 33 c 1,15,16
 150.279742765 165.977491961 150.279742765 165.977491961 202.5 224 c 0,17,18
 227.307692308 251.564102564 227.307692308 251.564102564 241 247 c 1,19,20
 265 243 265 243 279 212 c 0,21,22
 286.84 194.64 286.84 194.64 286.84 176.34 c 128,-1,23
 286.84 158.04 286.84 158.04 282 140 c 0,24,25
 257 59 257 59 216 12.5 c 0,26,27
 143.677906977 -69.5238372093 143.677906977 -69.5238372093 66 -9.5 c 0,28,29
 22.6296296296 24.0134680135 22.6296296296 24.0134680135 22.6296296296 116.320987654 c 0,30,31
 22.6296296296 163.703703704 22.6296296296 163.703703704 36 220 c 0,0,1
248.022222222 159.527901235 m 0,32,33
 248.022222222 186.219178082 248.022222222 186.219178082 221.096828673 186.219178082 c 0,34,35
 186.363159429 186.219178082 186.363159429 186.219178082 158 91 c 0,36,37
 157 86 157 86 152.5 68 c 128,-1,38
 148 50 148 50 148 39.4782608696 c 128,-1,39
 148 28.9565217391 148 28.9565217391 164.434782609 28.9565217391 c 128,-1,40
 180.869565217 28.9565217391 180.869565217 28.9565217391 206.434782609 54.9782608696 c 128,-1,41
 232 81 232 81 240 118 c 1,42,43
 248.022222222 143.755555556 248.022222222 143.755555556 248.022222222 159.527901235 c 0,32,33
EndSplineSet
EndChar

StartChar: seven
Encoding: 55 55 26
Width: 268
Flags: HW
LayerCount: 2
Fore
SplineSet
65 -54 m 1,0,-1
 61 -54 l 1,1,2
 52.0714285714 -51.5 52.0714285714 -51.5 52.0714285714 -25.6785714286 c 128,-1,3
 52.0714285714 0.142857142857 52.0714285714 0.142857142857 81 85 c 1,4,5
 100 157 100 157 142.5 294.5 c 128,-1,6
 185 432 185 432 203 500 c 1,7,8
 141 522.348837209 141 522.348837209 110.976744186 522.348837209 c 128,-1,9
 80.9534883721 522.348837209 80.9534883721 522.348837209 67 519 c 1,10,11
 59 516 59 516 52 500 c 128,-1,12
 45 484 45 484 31 488 c 1,13,-1
 59 595 l 1,14,15
 71 591 71 591 87.5 579 c 128,-1,16
 104 567 104 567 116.285714286 564.214285714 c 128,-1,17
 128.571428571 561.428571429 128.571428571 561.428571429 164.448979592 561.428571429 c 2,18,-1
 183.923076923 561.538461538 l 2,19,20
 224.538461538 561.538461538 224.538461538 561.538461538 234.769230769 558.769230769 c 128,-1,21
 245 556 245 556 245.5 556 c 128,-1,22
 246 556 246 556 247.5 555.5 c 128,-1,23
 249 555 249 555 249.5 553.5 c 0,24,25
 251 549 251 549 251 541 c 1,26,27
 245.8 528 245.8 528 235 474 c 1,28,29
 219 420 219 420 177.5 292.5 c 128,-1,30
 136 165 136 165 117 93 c 2,31,-1
 92 -2 l 1,32,33
 94 -4 94 -4 94.5 -13 c 128,-1,34
 95 -22 95 -22 93 -26 c 0,35,36
 92 -26 92 -26 80 -38 c 128,-1,37
 68 -50 68 -50 65 -54 c 1,0,-1
EndSplineSet
EndChar

StartChar: eight
Encoding: 56 56 27
Width: 334
Flags: HW
LayerCount: 2
Fore
SplineSet
21 44.5 m 0,0,1
 17.6388888889 60.2361111111 17.6388888889 60.2361111111 17.6388888889 92.1736111111 c 128,-1,2
 17.6388888889 124.111111111 17.6388888889 124.111111111 29.3194444444 167.555555556 c 128,-1,3
 41 211 41 211 49 230.5 c 128,-1,4
 57 250 57 250 68.5 268 c 128,-1,5
 80 286 80 286 88.5 297 c 128,-1,6
 97 308 97 308 113 327.5 c 128,-1,7
 129 347 129 347 136 356 c 1,8,9
 133 374 133 374 123.5 399.5 c 0,10,11
 112.235294118 429.736842105 112.235294118 429.736842105 112.235294118 444.486068111 c 128,-1,12
 112.235294118 459.235294118 112.235294118 459.235294118 118 493 c 1,13,14
 134 553 134 553 158.081081081 578.864864865 c 128,-1,15
 182.162162162 604.72972973 182.162162162 604.72972973 205.167275383 604.72972973 c 0,16,17
 211.513513514 604.72972973 211.513513514 604.72972973 218 603 c 0,18,19
 271 589 271 589 288 544 c 1,20,21
 293 548 293 548 299 560 c 0,22,23
 313.111111111 588.222222222 313.111111111 588.222222222 326 585 c 0,24,25
 330.761904762 583.095238095 330.761904762 583.095238095 330.761904762 575.857142857 c 128,-1,26
 330.761904762 568.619047619 330.761904762 568.619047619 325 555 c 1,27,28
 317 528 317 528 307 514 c 0,29,30
 213 384 213 384 210 376 c 2,31,-1
 205 364 l 1,32,33
 242.894736842 310.947368421 242.894736842 310.947368421 242.894736842 241.540166205 c 0,34,35
 242.894736842 201.052631579 242.894736842 201.052631579 230 155 c 1,36,37
 208 65 208 65 171.902439024 20.3292682927 c 128,-1,38
 135.804878049 -24.3414634146 135.804878049 -24.3414634146 100.370612731 -24.3414634146 c 0,39,40
 91.7804878049 -24.3414634146 91.7804878049 -24.3414634146 83 -22 c 0,41,42
 32 -7 32 -7 21 44.5 c 0,0,1
102 254.5 m 128,-1,44
 78 219 78 219 64.9423076923 170.096153846 c 128,-1,45
 51.8846153846 121.192307692 51.8846153846 121.192307692 51.8846153846 100.932692308 c 128,-1,46
 51.8846153846 80.6730769231 51.8846153846 80.6730769231 55 71.5 c 0,47,48
 64 45 64 45 101 36 c 1,49,50
 111 30 111 30 130 30 c 1,51,52
 169 58 169 58 197 148 c 1,53,54
 207 187.333333333 207 187.333333333 207 213.666666667 c 0,55,56
 207 300 207 300 167 324 c 1,57,43
 126 290 126 290 102 254.5 c 128,-1,44
205 554 m 1,58,59
 201.081632653 555.469387755 201.081632653 555.469387755 193.142857143 555.469387755 c 128,-1,60
 185.204081633 555.469387755 185.204081633 555.469387755 171.602040816 539.234693878 c 128,-1,61
 158 523 158 523 151.325396825 496.412698413 c 128,-1,62
 144.650793651 469.825396825 144.650793651 469.825396825 144.650793651 452.899218947 c 0,63,64
 144.650793651 416.507936508 144.650793651 416.507936508 174 409 c 0,65,66
 175.435897436 408.58974359 175.435897436 408.58974359 177.034845496 408.58974359 c 0,67,68
 191.025641026 408.58974359 191.025641026 408.58974359 219.012820513 441.794871795 c 0,69,70
 256.925925926 486.776522285 256.925925926 486.776522285 256.925925926 506.323446328 c 128,-1,71
 256.925925926 525.87037037 256.925925926 525.87037037 236.962962963 539.935185185 c 128,-1,72
 217 554 217 554 205 554 c 1,58,59
EndSplineSet
EndChar

StartChar: nine
Encoding: 57 57 28
Width: 233
Flags: HW
LayerCount: 2
Fore
SplineSet
67 -18 m 1,0,-1
 144 310 l 1,1,-1
 142 324 l 1,2,-1
 98 318 l 2,3,4
 92 318 92 318 70 324 c 0,5,6
 49 330 49 330 37 361 c 0,7,8
 32.3548387097 373.387096774 32.3548387097 373.387096774 32.3548387097 396.935483871 c 128,-1,9
 32.3548387097 420.483870968 32.3548387097 420.483870968 47.6774193548 478.741935484 c 128,-1,10
 63 537 63 537 89.0340909091 568.420454545 c 128,-1,11
 115.068181818 599.840909091 115.068181818 599.840909091 141.93285124 599.840909091 c 0,12,13
 148.840909091 599.840909091 148.840909091 599.840909091 156 598 c 0,14,15
 205 585 205 585 213 499 c 1,16,17
 209 481 209 481 162 278 c 128,-1,18
 115 75 115 75 107 35 c 1,19,-1
 97 0 l 1,20,21
 89 -41 89 -41 72 -46 c 1,22,-1
 67 -18 l 1,0,-1
67 462 m 1,23,24
 61.4444444444 434.777777778 61.4444444444 434.777777778 61.4444444444 417.361111111 c 0,25,26
 61.4444444444 369.301587302 61.4444444444 369.301587302 94 360 c 0,27,28
 99.0149253731 358.925373134 99.0149253731 358.925373134 103.757184228 358.925373134 c 0,29,30
 148.269162661 358.925373134 148.269162661 358.925373134 176 468 c 1,31,-1
 170 522 l 1,32,33
 170 545 170 545 159.5 551 c 0,34,35
 149.861538462 556.507692308 149.861538462 556.507692308 135.507692308 556.507692308 c 128,-1,36
 121.153846154 556.507692308 121.153846154 556.507692308 101.076923077 533.753846154 c 128,-1,37
 81 511 81 511 67 462 c 1,23,24
EndSplineSet
EndChar

StartChar: colon
Encoding: 58 58 29
Width: 124
Flags: HW
LayerCount: 2
Fore
SplineSet
32 89 m 1,0,1
 40.275862069 113.827586207 40.275862069 113.827586207 61.7004310345 108.163793103 c 128,-1,2
 83.125 102.5 83.125 102.5 83.125 89.3984375 c 0,3,4
 83.125 74.5535714286 83.125 74.5535714286 72.8451086957 68.1898291925 c 128,-1,5
 62.5652173913 61.8260869565 62.5652173913 61.8260869565 56.8913043478 61.8260869565 c 128,-1,6
 51.2173913043 61.8260869565 51.2173913043 61.8260869565 48.1086956522 62.9130434783 c 128,-1,7
 45 64 45 64 42.5 68 c 0,8,9
 32 84.8 32 84.8 32 89 c 1,0,1
101 227 m 0,10,11
 94.0171225478 209.27423416 94.0171225478 209.27423416 78.983950022 209.27423416 c 128,-1,12
 63.9507774962 209.27423416 63.9507774962 209.27423416 63.9507774962 221.460106499 c 0,13,14
 63.9507774962 231.950777496 63.9507774962 231.950777496 72.1976109703 240.19761097 c 128,-1,15
 80.4444444444 248.444444444 80.4444444444 248.444444444 82.7777777778 248.444444444 c 0,16,17
 90.7407407407 248.444444444 90.7407407407 248.444444444 96.6703703704 243.997222222 c 128,-1,18
 102.6 239.55 102.6 239.55 102.6 235.275 c 128,-1,19
 102.6 231 102.6 231 101 227 c 0,10,11
EndSplineSet
EndChar

StartChar: semicolon
Encoding: 59 59 30
Width: 163
Flags: HW
LayerCount: 2
Fore
SplineSet
100 -50 m 0,0,1
 105 -31 105 -31 119 -37 c 1,2,3
 135.025641026 -41.4871794872 135.025641026 -41.4871794872 135.025641026 -56.8461538462 c 128,-1,4
 135.025641026 -72.2051282051 135.025641026 -72.2051282051 130 -88 c 1,5,6
 130 -101 130 -101 118.73 -124.52 c 128,-1,7
 107.46 -148.04 107.46 -148.04 95.0376 -148.04 c 0,8,9
 94.12 -148.04 94.12 -148.04 85 -145 c 1,10,11
 89 -123 89 -123 90.5 -112.5 c 2,12,-1
 94.5 -84.5 l 2,13,14
 97.6 -62.8 97.6 -62.8 98.8 -57.4 c 128,-1,15
 100 -52 100 -52 100 -50 c 0,0,1
84.9583333333 72.3611111111 m 0,16,17
 84.9583333333 75.8333333333 84.9583333333 75.8333333333 86 80 c 0,18,19
 90.9090909091 94.7272727273 90.9090909091 94.7272727273 107.998023715 94.7272727273 c 128,-1,20
 125.086956522 94.7272727273 125.086956522 94.7272727273 125.086956522 74.6713286713 c 128,-1,21
 125.086956522 54.6153846154 125.086956522 54.6153846154 105.022644928 54.6153846154 c 128,-1,22
 84.9583333333 54.6153846154 84.9583333333 54.6153846154 84.9583333333 72.3611111111 c 0,16,17
EndSplineSet
EndChar

StartChar: less
Encoding: 60 60 31
Width: 477
Flags: HW
LayerCount: 2
Fore
SplineSet
72 234 m 1,0,-1
 74 240 l 2,1,2
 76 249 76 249 98 257 c 0,3,4
 100 258 100 258 150 276 c 128,-1,5
 200 294 200 294 208 298 c 0,6,7
 385 401 385 401 418 427 c 1,8,9
 419 426 419 426 427 426 c 1,10,11
 444 418 444 418 443 405 c 1,12,13
 432.841758242 371.985714286 432.841758242 371.985714286 251 285.5 c 0,14,15
 210 266 210 266 181 252.5 c 2,16,-1
 152 239 l 1,17,18
 149 231 149 231 157 223 c 2,19,-1
 449 -81 l 1,20,-1
 447 -85 l 1,21,-1
 447 -89 l 1,22,23
 445 -100 445 -100 436.5 -106.710526316 c 128,-1,24
 428 -113.421052632 428 -113.421052632 422.657894737 -113.421052632 c 128,-1,25
 417.315789474 -113.421052632 417.315789474 -113.421052632 414.157894737 -112.710526316 c 128,-1,26
 411 -112 411 -112 410 -110.5 c 128,-1,27
 409 -109 409 -109 408 -105.5 c 0,28,29
 405.260869565 -95.9130434783 405.260869565 -95.9130434783 272 64 c 1,30,31
 89 222 89 222 72 234 c 1,0,-1
EndSplineSet
EndChar

StartChar: equal
Encoding: 61 61 32
Width: 220
Flags: HW
LayerCount: 2
Fore
SplineSet
186 75 m 1,0,1
 177.555555556 64.4444444444 177.555555556 64.4444444444 152.638888889 64.4444444444 c 0,2,3
 113.555555556 64.4444444444 113.555555556 64.4444444444 76 76 c 0,4,5
 59 81 59 81 65 97.5 c 128,-1,6
 71 114 71 114 79 115 c 1,7,8
 81.9411764706 112.058823529 81.9411764706 112.058823529 100.470588235 108.529411765 c 0,9,10
 169.162790698 95.4451827243 169.162790698 95.4451827243 186 75 c 1,0,1
73.8888888889 241.666666667 m 0,11,12
 79 241.666666667 79 241.666666667 86 239 c 1,13,14
 114 236 114 236 152 219.5 c 128,-1,15
 190 203 190 203 194 181 c 1,16,-1
 183 175 l 1,17,-1
 82 202 l 1,18,19
 75 205 75 205 67.8 214 c 128,-1,20
 60.6 223 60.6 223 60.6 228.44 c 0,21,22
 60.6 241.666666667 60.6 241.666666667 73.8888888889 241.666666667 c 0,11,12
EndSplineSet
EndChar

StartChar: greater
Encoding: 62 62 33
Width: 441
Flags: HW
LayerCount: 2
Fore
SplineSet
145 490 m 2,0,-1
 169 503 l 1,1,-1
 171 502 l 1,2,-1
 173 502 l 1,3,4
 185 498 185 498 193 487 c 0,5,6
 285 369 285 369 414 250 c 0,7,8
 419.818181818 245.636363636 419.818181818 245.636363636 419.818181818 241.545454545 c 128,-1,9
 419.818181818 237.454545455 419.818181818 237.454545455 419 235 c 2,10,-1
 419 230 l 1,11,12
 397.125 223.75 397.125 223.75 327 177 c 1,13,14
 153 48 153 48 129 24 c 0,15,16
 127 22 127 22 116.5 8.5 c 0,17,18
 99.6805555556 -13.125 99.6805555556 -13.125 86.828125 -13.125 c 0,19,20
 83.5 -13.125 83.5 -13.125 71 -10 c 1,21,22
 67 -2 67 -2 67 9 c 128,-1,23
 67 20 67 20 68 21 c 2,24,-1
 355 248 l 1,25,26
 257 327 257 327 151 470 c 1,27,28
 148 471 148 471 145.5 479.5 c 128,-1,29
 143 488 143 488 145 490 c 2,0,-1
EndSplineSet
EndChar

StartChar: question
Encoding: 63 63 34
Width: 426
Flags: HW
LayerCount: 2
Fore
SplineSet
105 -22 m 1,0,1
 109 -7 109 -7 113.5 -1.5 c 128,-1,2
 118 4 118 4 126 3 c 1,3,4
 134 -0.333333333333 134 -0.333333333333 134 -9.83333333333 c 0,5,6
 134 -30 134 -30 127 -37 c 128,-1,7
 120 -44 120 -44 116.5 -47 c 128,-1,8
 113 -50 113 -50 112 -50 c 128,-1,9
 111.043478261 -50.0869565217 111.043478261 -50.0869565217 110.170132325 -50.0869565217 c 0,10,11
 101 -50.0869565217 101 -50.0869565217 101 -40.0434782609 c 128,-1,12
 101 -30 101 -30 105 -22 c 1,0,1
193 278 m 1,13,-1
 188 261 l 2,14,15
 177 221 177 221 163 139 c 1,16,17
 146.518588166 117.179539262 146.518588166 117.179539262 140.265598785 117.179539262 c 128,-1,18
 134.012609405 117.179539262 134.012609405 117.179539262 134.012609405 132.469044051 c 128,-1,19
 134.012609405 147.758548839 134.012609405 147.758548839 153.256468255 223.877311787 c 128,-1,20
 172.500327105 299.996074734 172.500327105 299.996074734 172 306 c 1,21,22
 258.936348409 350.479061977 258.936348409 350.479061977 290 409.5 c 0,23,24
 311.96 451.224 311.96 451.224 320.98 488.512 c 128,-1,25
 330 525.8 330 525.8 330 558.62 c 0,26,27
 330 665.325581395 330 665.325581395 265.493239589 665.325581395 c 0,28,29
 236.11627907 665.325581395 236.11627907 665.325581395 198.558139535 636.162790698 c 128,-1,30
 161 607 161 607 139 552 c 1,31,32
 133.166666667 541.0625 133.166666667 541.0625 133.166666667 527.114583333 c 128,-1,33
 133.166666667 513.166666667 133.166666667 513.166666667 130.066384181 490.956214689 c 128,-1,34
 126.966101695 468.745762712 126.966101695 468.745762712 122.346739443 468.745762712 c 128,-1,35
 117.881355932 468.745762712 117.881355932 468.745762712 111.560677966 483.072881356 c 128,-1,36
 105.24 497.4 105.24 497.4 105.24 516.24 c 128,-1,37
 105.24 535.08 105.24 535.08 112 559 c 0,38,39
 129 625 129 625 181.727272727 665.909090909 c 128,-1,40
 234.454545455 706.818181818 234.454545455 706.818181818 270.52892562 706.818181818 c 0,41,42
 278.545454545 706.818181818 278.545454545 706.818181818 286 705 c 0,43,44
 337 692 337 692 354.5 629.5 c 0,45,46
 362.061728395 602.49382716 362.061728395 602.49382716 362.061728395 567.462962963 c 128,-1,47
 362.061728395 532.432098765 362.061728395 532.432098765 350.530864198 489.216049383 c 128,-1,48
 339 446 339 446 325 416 c 128,-1,49
 311 386 311 386 285 358.5 c 128,-1,50
 259 331 259 331 246.5 320.5 c 128,-1,51
 234 310 234 310 193 278 c 1,13,-1
EndSplineSet
EndChar

StartChar: at
Encoding: 64 64 35
Width: 435
Flags: HW
LayerCount: 2
Fore
SplineSet
52 297 m 1,0,1
 86 423 86 423 151 471 c 0,2,3
 195.916666667 504.347222222 195.916666667 504.347222222 249.633294753 504.347222222 c 0,4,5
 319.691176471 504.347222222 319.691176471 504.347222222 364 462.5 c 0,6,7
 391 437 391 437 404.666666667 394.416666667 c 128,-1,8
 418.333333333 351.833333333 418.333333333 351.833333333 418.333333333 312.333333333 c 128,-1,9
 418.333333333 272.833333333 418.333333333 272.833333333 410 242 c 0,10,11
 394 179 394 179 363.545454545 142.181818182 c 128,-1,12
 333.090909091 105.363636364 333.090909091 105.363636364 298.652892562 105.363636364 c 0,13,14
 291 105.363636364 291 105.363636364 279 108.681818182 c 128,-1,15
 267 112 267 112 246 141.5 c 128,-1,16
 225 171 225 171 223.642857143 171.714285714 c 128,-1,17
 222.285714286 172.428571429 222.285714286 172.428571429 218 172.428571429 c 128,-1,18
 213.714285714 172.428571429 213.714285714 172.428571429 198.857142857 163.214285714 c 128,-1,19
 184 154 184 154 180 153 c 128,-1,20
 176 152 176 152 172 152 c 128,-1,21
 168 152 168 152 165.5 152.5 c 0,22,23
 133.212765957 158.957446809 133.212765957 158.957446809 124.106382979 172.478723404 c 0,24,25
 110.714285714 192.363484646 110.714285714 192.363484646 110.714285714 223.53888518 c 128,-1,26
 110.714285714 254.714285714 110.714285714 254.714285714 113 265 c 0,27,28
 127 313 127 313 151.65 330.85 c 128,-1,29
 176.3 348.7 176.3 348.7 193.6 348.7 c 128,-1,30
 210.9 348.7 210.9 348.7 222 346 c 0,31,32
 261 333 261 333 263 237 c 1,33,34
 265 209 265 209 265.5 199.5 c 128,-1,35
 266 190 266 190 269 174 c 0,36,37
 275.328767123 140.246575342 275.328767123 140.246575342 302.961718897 140.246575342 c 0,38,39
 323.712328767 140.246575342 323.712328767 140.246575342 342.856164384 165.623287671 c 128,-1,40
 362 191 362 191 373.989690722 234.097938144 c 128,-1,41
 385.979381443 277.195876289 385.979381443 277.195876289 385.979381443 314.453608247 c 128,-1,42
 385.979381443 351.711340206 385.979381443 351.711340206 371.5 387.5 c 0,43,44
 345 453 345 453 285 467 c 0,45,46
 267.683544304 471.569620253 267.683544304 471.569620253 251.26365967 471.569620253 c 0,47,48
 199.411392405 471.569620253 199.411392405 471.569620253 156.5 426 c 0,49,50
 100 366 100 366 72 262 c 1,51,52
 59.2448979592 220.163265306 59.2448979592 220.163265306 59.2448979592 178.397959184 c 128,-1,53
 59.2448979592 136.632653061 59.2448979592 136.632653061 71 95 c 0,54,55
 95 10 95 10 158 -7 c 0,56,57
 174.363636364 -11.9090909091 174.363636364 -11.9090909091 186.909090909 -11.9090909091 c 128,-1,58
 199.454545455 -11.9090909091 199.454545455 -11.9090909091 214.727272727 -6.45454545455 c 128,-1,59
 230 -1 230 -1 240 11.5 c 128,-1,60
 250 24 250 24 259 35 c 128,-1,61
 268 46 268 46 274 45 c 0,62,63
 283 42 283 42 283 29 c 128,-1,64
 283 16 283 16 279 0 c 1,65,66
 225.333333333 -39.1851851852 225.333333333 -39.1851851852 166.587105624 -39.1851851852 c 0,67,68
 156.37037037 -39.1851851852 156.37037037 -39.1851851852 146 -38 c 1,69,70
 96 -24 96 -24 64.243902439 43.0463414634 c 128,-1,71
 32.487804878 110.092682927 32.487804878 110.092682927 32.487804878 174.27804878 c 128,-1,72
 32.487804878 238.463414634 32.487804878 238.463414634 52 297 c 1,0,1
229.571428571 296.224489796 m 0,73,74
 229.571428571 314.358490566 229.571428571 314.358490566 208.464959569 314.358490566 c 128,-1,75
 187.358490566 314.358490566 187.358490566 314.358490566 169.179245283 296.179245283 c 128,-1,76
 151 278 151 278 144.458333333 253.5 c 128,-1,77
 137.916666667 229 137.916666667 229 137.916666667 218.232638889 c 0,78,79
 137.916666667 192.083333333 137.916666667 192.083333333 162 185 c 0,80,81
 166.130434783 183.913043478 166.130434783 183.913043478 175.195652174 183.913043478 c 128,-1,82
 184.260869565 183.913043478 184.260869565 183.913043478 197.630434783 199.956521739 c 128,-1,83
 211 216 211 216 216 233.5 c 0,84,85
 229.571428571 281 229.571428571 281 229.571428571 296.224489796 c 0,73,74
EndSplineSet
EndChar

StartChar: A
Encoding: 65 65 36
Width: 674
Flags: HW
LayerCount: 2
Fore
SplineSet
631.5 -98 m 0,0,1
 622.5 -98 622.5 -98 615 -104 c 1,2,3
 598 -40 598 -40 587 83 c 128,-1,4
 576 206 576 206 560 269 c 1,5,6
 532 271 532 271 451.5 290.5 c 128,-1,7
 371 310 371 310 336 310 c 1,8,9
 310.708333333 282.409090909 310.708333333 282.409090909 215.5 137 c 0,10,11
 188 95 188 95 147.585714286 61.4857142857 c 128,-1,12
 107.171428571 27.9714285714 107.171428571 27.9714285714 68.2865306122 27.9714285714 c 0,13,14
 67.1428571429 27.9714285714 67.1428571429 27.9714285714 66 28 c 2,15,-1
 18 29 l 1,16,17
 8 35 8 35 8 43 c 128,-1,18
 8 51 8 51 18 57 c 1,19,20
 28.3235294118 54.6176470588 28.3235294118 54.6176470588 48.5514705882 54.6176470588 c 128,-1,21
 68.7794117647 54.6176470588 68.7794117647 54.6176470588 107.389705882 76.3088235294 c 128,-1,22
 146 98 146 98 186 147.5 c 0,23,24
 251.295109612 228.302698145 251.295109612 228.302698145 307 329 c 1,25,26
 303 330 303 330 288 341.5 c 128,-1,27
 273 353 273 353 269.5 356.5 c 128,-1,28
 266 360 266 360 248 377 c 128,-1,29
 230 394 230 394 216 407.5 c 0,30,31
 177.95959596 444.181818182 177.95959596 444.181818182 174 462 c 1,32,33
 174 475 174 475 182.5 478 c 128,-1,34
 191 481 191 481 201 481 c 2,35,-1
 213 481 l 2,36,37
 244 481 244 481 303 462 c 128,-1,38
 362 443 362 443 392 443 c 1,39,40
 416 472 416 472 461.5 585.5 c 128,-1,41
 507 699 507 699 529 729 c 1,42,43
 553.295427534 772.191871172 553.295427534 772.191871172 562.216951966 772.191871172 c 0,44,45
 567.394140715 772.191871172 567.394140715 772.191871172 567.394140715 757.646933037 c 2,46,-1
 567 747 l 1,47,-1
 590 329 l 1,48,-1
 600 329 l 1,49,50
 662.875469239 358.885253897 662.875469239 358.885253897 678.718494955 358.885253897 c 128,-1,51
 694.561520671 358.885253897 694.561520671 358.885253897 694.561520671 351.267635961 c 0,52,53
 694.561520671 338.687012612 694.561520671 338.687012612 662.873577781 318.313566772 c 128,-1,54
 631.185634891 297.940120932 631.185634891 297.940120932 600 292 c 1,55,56
 598.958333333 282.416666667 598.958333333 282.416666667 598.958333333 247.802083333 c 128,-1,57
 598.958333333 213.1875 598.958333333 213.1875 615.979166667 72.09375 c 128,-1,58
 633 -69 633 -69 633.5 -83.5 c 128,-1,59
 634 -98 634 -98 631.5 -98 c 0,0,1
363 338 m 1,60,61
 390 331 390 331 438 324 c 128,-1,62
 486 317 486 317 499 313 c 1,63,64
 461 366 461 366 400 395 c 1,65,66
 399 393 399 393 389.5 380.5 c 0,67,68
 371.169014085 356.38028169 371.169014085 356.38028169 363 338 c 1,60,61
425 424 m 1,69,-1
 554 319 l 1,70,71
 554.615384615 339.307692308 554.615384615 339.307692308 554.615384615 380.846153846 c 128,-1,72
 554.615384615 422.384615385 554.615384615 422.384615385 550.807692308 525.192307692 c 128,-1,73
 547 628 547 628 541 684 c 1,74,-1
 425 424 l 1,69,-1
250 452 m 0,75,76
 244.006567651 452.856204621 244.006567651 452.856204621 239.386158493 452.856204621 c 0,77,78
 223.837855348 452.856204621 223.837855348 452.856204621 223.837855348 443.160425922 c 0,79,80
 223.837855348 421.12002817 223.837855348 421.12002817 269.57441533 388.200035146 c 128,-1,81
 315.310975312 355.280042122 315.310975312 355.280042122 335.91933772 355.280042122 c 0,82,83
 341.022597408 355.280042122 341.022597408 355.280042122 345 357 c 1,84,85
 351 364 351 364 357 381 c 128,-1,86
 363 398 363 398 373 414 c 1,87,88
 365 418 365 418 250 452 c 0,75,76
EndSplineSet
EndChar

StartChar: B
Encoding: 66 66 37
Width: 941
Flags: HW
LayerCount: 2
Fore
SplineSet
391 212 m 1,0,1
 392 245 l 1,2,3
 403 256 403 256 420.5 256 c 128,-1,4
 438 256 438 256 446.5 244 c 0,5,6
 448.426666667 241.28 448.426666667 241.28 448.426666667 238.457244444 c 0,7,8
 448.426666667 228.826666667 448.426666667 228.826666667 426 218 c 1,9,10
 426 144 426 144 482 86 c 128,-1,11
 538 28 538 28 606.5 28 c 128,-1,12
 675 28 675 28 739 75 c 128,-1,13
 803 122 803 122 843.5 191.5 c 128,-1,14
 884 261 884 261 884 317 c 128,-1,15
 884 373 884 373 845 413.5 c 128,-1,16
 806 454 806 454 754 473 c 128,-1,17
 702 492 702 492 661.5 492 c 128,-1,18
 621 492 621 492 584.5 488 c 0,19,20
 537.571428571 482.857142857 537.571428571 482.857142857 521.071428571 482.857142857 c 128,-1,21
 504.571428571 482.857142857 504.571428571 482.857142857 460 488 c 1,22,-1
 260 123 l 1,23,24
 236 82 236 82 200 55 c 128,-1,25
 164 28 164 28 116 28 c 128,-1,26
 68 28 68 28 37 71.5 c 128,-1,27
 6 115 6 115 6 168 c 1,28,29
 36.9024390244 168 36.9024390244 168 54.5 112.5 c 0,30,31
 61 92 61 92 80.5 74.5 c 128,-1,32
 100 57 100 57 131 57 c 1,33,34
 177 67 177 67 224 130 c 128,-1,35
 271 193 271 193 305 268.5 c 0,36,37
 405.382651277 491.408534453 405.382651277 491.408534453 477 577 c 1,38,39
 540.838983051 662.118644068 540.838983051 662.118644068 602.919491525 718.059322034 c 0,40,41
 719.37804878 823 719.37804878 823 813 823 c 0,42,43
 847 823 847 823 865.5 799.5 c 128,-1,44
 884 776 884 776 884 734 c 128,-1,45
 884 692 884 692 851.5 649.5 c 128,-1,46
 819 607 819 607 764 566 c 128,-1,47
 709 525 709 525 704 520 c 1,48,49
 750.421052632 506.736842105 750.421052632 506.736842105 788.710526316 488.868421053 c 128,-1,50
 827 471 827 471 839 462.5 c 128,-1,51
 851 454 851 454 867.5 439 c 128,-1,52
 884 424 884 424 892 408 c 0,53,54
 913 366 913 366 913 313 c 128,-1,55
 913 260 913 260 866 184 c 128,-1,56
 819 108 819 108 747 54 c 128,-1,57
 675 0 675 0 610 0 c 0,58,59
 527 0 527 0 459 65 c 128,-1,60
 391 130 391 130 391 212 c 1,0,1
807 804 m 0,61,62
 752 804 752 804 665 737 c 1,63,-1
 632.5 704.5 l 2,64,65
 608 680 608 680 582 653.5 c 128,-1,66
 556 627 556 627 553 624 c 0,67,68
 519 584 519 584 479 514 c 1,69,70
 539 514 539 514 665 529 c 1,71,72
 848 654 848 654 865 746 c 1,73,74
 865 774 865 774 849.5 789 c 128,-1,75
 834 804 834 804 807 804 c 0,61,62
EndSplineSet
EndChar

StartChar: C
Encoding: 67 67 38
Width: 439
Flags: HW
LayerCount: 2
Fore
SplineSet
24 160 m 1,0,1
 18.8282828283 181.97979798 18.8282828283 181.97979798 18.8282828283 227.212121212 c 0,2,3
 18.8282828283 272.444444444 18.8282828283 272.444444444 41.5 365.5 c 0,4,5
 75 503 75 503 143.5 624 c 128,-1,6
 212 745 212 745 283 758 c 1,7,8
 304 758 304 758 319 743 c 0,9,10
 334 728 334 728 343.5 717 c 128,-1,11
 353 706 353 706 363.714285714 673.428571429 c 0,12,13
 374.428571429 640.857142857 374.428571429 640.857142857 374.428571429 619.714285714 c 0,14,15
 374.428571429 598.571428571 374.428571429 598.571428571 373 586 c 1,16,17
 373 576 373 576 359 576 c 2,18,-1
 356 576 l 2,19,20
 355 576 355 576 355 577 c 0,21,22
 349.037601887 664.448505651 349.037601887 664.448505651 328.153140807 694.465225534 c 1,23,24
 308.717245017 720.432702354 308.717245017 720.432702354 278 721 c 0,25,26
 237 721 237 721 181.5 625 c 128,-1,27
 126 529 126 529 88.5 418.5 c 128,-1,28
 51 308 51 308 51 245.5 c 0,29,30
 51 183 51 183 89 110.5 c 128,-1,31
 127 38 127 38 196 38 c 0,32,33
 265 38 265 38 330.5 110 c 128,-1,34
 396 182 396 182 411 256 c 1,35,36
 422 253 422 253 422 238.5 c 0,37,38
 422 224 422 224 420 218 c 0,39,40
 397 144 397 144 330.5 72 c 128,-1,41
 264 0 264 0 198.5 0 c 0,42,43
 133 0 133 0 87.5 49 c 128,-1,44
 42 98 42 98 24 160 c 1,0,1
EndSplineSet
EndChar

StartChar: D
Encoding: 68 68 39
Width: 616
Flags: HW
LayerCount: 2
Fore
SplineSet
20 -5 m 1,0,-1
 93 553 l 1,1,2
 96 593 96 593 98 600 c 1,3,-1
 102 629 l 1,4,-1
 122 629 l 1,5,6
 122 604 122 604 116.5 563 c 0,7,8
 89.3416149068 360.546583851 89.3416149068 360.546583851 64 128 c 1,9,10
 65 129 65 129 71 134.5 c 128,-1,11
 77 140 77 140 78.5 141.5 c 128,-1,12
 80 143 80 143 85 147 c 128,-1,13
 90 151 90 151 92 152.5 c 128,-1,14
 94 154 94 154 98.5 157 c 128,-1,15
 103 160 103 160 106 161 c 0,16,17
 121 166 121 166 130 166 c 0,18,19
 160 166 160 166 185.5 142.5 c 128,-1,20
 211 119 211 119 226.5 91.5 c 128,-1,21
 242 64 242 64 269.5 40.5 c 128,-1,22
 297 17 297 17 331 17 c 0,23,24
 385 17 385 17 448.5 75.5 c 128,-1,25
 512 134 512 134 553 211 c 128,-1,26
 594 288 594 288 594 341 c 0,27,28
 594 341.5 594 341.5 593.5 343.5 c 128,-1,29
 593 345.5 593 345.5 593 346 c 1,30,31
 550 305 550 305 508.5 287.5 c 128,-1,32
 467 270 467 270 411.5 270 c 128,-1,33
 356 270 356 270 317 290.5 c 128,-1,34
 278 311 278 311 256.5 347.5 c 0,35,36
 215 417.953488372 215 417.953488372 215 521 c 0,37,38
 215 612.441860465 215 612.441860465 258.5 704.5 c 0,39,40
 280 750 280 750 318.5 779.5 c 128,-1,41
 357 809 357 809 409 809 c 128,-1,42
 461 809 461 809 506.5 775.5 c 128,-1,43
 552 742 552 742 578 689.5 c 0,44,45
 631 582.480769231 631 582.480769231 631 473 c 0,46,47
 631.109589041 468.287671233 631.109589041 468.287671233 631.109589041 463.521298555 c 0,48,49
 631.109589041 381.301369863 631.109589041 381.301369863 597.554794521 280.150684932 c 128,-1,50
 564 179 564 179 505 100.5 c 128,-1,51
 446 22 446 22 368 -1 c 0,52,53
 349.878787879 -6.34343434343 349.878787879 -6.34343434343 331.379757168 -6.34343434343 c 0,54,55
 270.252525253 -6.34343434343 270.252525253 -6.34343434343 205 52 c 1,56,57
 198 61 198 61 188 77.5 c 0,58,59
 162 120.4 162 120.4 138.5 134.5 c 0,60,61
 131 139 131 139 130 138 c 0,62,63
 106 132 106 132 90 108 c 128,-1,64
 74 84 74 84 67 59.5 c 0,65,66
 48.5714285714 -5 48.5714285714 -5 20 -5 c 1,0,-1
284.5 358 m 128,-1,68
 327 298 327 298 418 298 c 1,69,70
 430.317769964 296.828944405 430.317769964 296.828944405 441.834029589 296.828944405 c 0,71,72
 544.22207337 296.828944405 544.22207337 296.828944405 583.254558401 389.395288174 c 0,73,74
 602.45895214 434.93890425 602.45895214 434.93890425 602.45895214 487.087674057 c 128,-1,75
 602.45895214 539.236443865 602.45895214 539.236443865 585.475120046 597.04145354 c 0,76,77
 551.565737636 712.453109009 551.565737636 712.453109009 475.455782497 764.260263962 c 0,78,79
 446.060319125 784.269411557 446.060319125 784.269411557 414 790 c 1,80,81
 369 790 369 790 334 761.5 c 128,-1,82
 299 733 299 733 280 689 c 0,83,84
 242 601 242 601 242 509.5 c 128,-1,67
 242 418 242 418 284.5 358 c 128,-1,68
EndSplineSet
EndChar

StartChar: E
Encoding: 69 69 40
Width: 472
Flags: HW
LayerCount: 2
Fore
SplineSet
345 436 m 0,0,1
 402 436 402 436 402 403.5 c 128,-1,2
 402 371 402 371 371 348.5 c 0,3,4
 319.333333333 311 319.333333333 311 241 311 c 0,5,6
 222 311 222 311 194 326 c 128,-1,7
 166 341 166 341 151 341 c 2,8,-1
 146 341 l 1,9,10
 50 268 50 268 50 160 c 0,11,12
 50 110 50 110 72 83 c 128,-1,13
 94 56 94 56 146 38 c 0,14,15
 166 32 166 32 183 32 c 128,-1,16
 200 32 200 32 224 35 c 128,-1,17
 248 38 248 38 272.5 44 c 128,-1,18
 297 50 297 50 329 65 c 128,-1,19
 361 80 361 80 382.5 92.5 c 128,-1,20
 404 105 404 105 433 122 c 128,-1,21
 462 139 462 139 482 148 c 1,22,23
 491 128 491 128 491 120.5 c 128,-1,24
 491 113 491 113 482 109 c 0,25,26
 259 0 259 0 190.5 0 c 128,-1,27
 122 0 122 0 67.5 44 c 128,-1,28
 13 88 13 88 13 157 c 0,29,30
 13 195 13 195 34 238 c 128,-1,31
 55 281 55 281 73 304 c 128,-1,32
 91 327 91 327 127 369 c 1,33,-1
 127 373 l 1,34,-1
 117 461 l 1,35,36
 117 505 117 505 144 569.5 c 128,-1,37
 171 634 171 634 217.5 686 c 128,-1,38
 264 738 264 738 307 738 c 128,-1,39
 350 738 350 738 376 707.5 c 128,-1,40
 402 677 402 677 402 636 c 0,41,42
 402 635 402 635 402.5 628 c 128,-1,43
 403 621 403 621 402.5 617 c 128,-1,44
 402 613 402 613 401 607.5 c 0,45,46
 398.909090909 596 398.909090909 596 387 596 c 2,47,-1
 382 596 l 1,48,49
 370.090163934 667.459016393 370.090163934 667.459016393 345.5 695 c 0,50,51
 333 709 333 709 318 709 c 0,52,53
 251 709 251 709 198.5 624 c 128,-1,54
 146 539 146 539 146 468 c 0,55,56
 146 440 146 440 156 396 c 1,57,-1
 165 396 l 2,58,59
 189 396 189 396 243.5 416 c 128,-1,60
 298 436 298 436 326 436 c 0,61,62
 335.5 436 335.5 436 345 436 c 0,0,1
193 364 m 0,63,64
 193 340 193 340 250 340 c 0,65,66
 285 340 285 340 321 352 c 128,-1,67
 357 364 357 364 373 388 c 1,68,69
 359 408 359 408 331 408 c 128,-1,70
 303 408 303 408 248 395 c 128,-1,71
 193 382 193 382 193 364 c 0,63,64
EndSplineSet
EndChar

StartChar: F
Encoding: 70 70 41
Width: 711
Flags: HW
LayerCount: 2
Fore
SplineSet
144 526 m 1,0,-1
 143 558 l 1,1,2
 143 639.333333333 143 639.333333333 165 643 c 1,3,4
 180 635 180 635 184 606 c 1,5,6
 281 547 281 547 369 547 c 0,7,8
 425 547 425 547 512.5 583 c 128,-1,9
 600 619 600 619 618 661 c 0,10,11
 623 672 623 672 631.5 699 c 128,-1,12
 640 726 640 726 648 745.5 c 128,-1,13
 656 765 656 765 668.5 786.5 c 0,14,15
 694.953488372 832 694.953488372 832 742 832 c 0,16,17
 761 832 761 832 761 806.5 c 128,-1,18
 761 781 761 781 742 757 c 0,19,20
 685 685.75 685 685.75 647 643 c 1,21,22
 648.285714286 631.214285714 648.285714286 631.214285714 648.285714286 598.785714286 c 128,-1,23
 648.285714286 566.357142857 648.285714286 566.357142857 628.642857143 476.178571429 c 128,-1,24
 609 386 609 386 609 345 c 0,25,26
 609 330 609 330 637 330 c 0,27,28
 686 330 686 330 751 388 c 1,29,-1
 761 378 l 1,30,31
 761 375 761 375 749.5 360 c 128,-1,32
 738 345 738 345 732 341 c 0,33,34
 696 315 696 315 673.5 307 c 128,-1,35
 651 299 651 299 600 293 c 1,36,37
 520.977653631 124.648044693 520.977653631 124.648044693 453 68 c 0,38,39
 423 43 423 43 380 25.5 c 128,-1,40
 337 8 337 8 276.5 8 c 128,-1,41
 216 8 216 8 131.5 40 c 128,-1,42
 47 72 47 72 4 123 c 1,43,44
 28 161 28 161 67 161 c 0,45,46
 74 161 74 161 80 151 c 1,47,48
 50 137.363636364 50 137.363636364 50 127 c 0,49,50
 50 101 50 101 147.5 68.5 c 128,-1,51
 245 36 245 36 289 36 c 0,52,53
 385 36 385 36 446 94.5 c 128,-1,54
 507 153 507 153 553 256 c 0,55,56
 563 277 563 277 563 295 c 128,-1,57
 563 313 563 313 553.5 322 c 128,-1,58
 544 331 544 331 529 331 c 2,59,-1
 525 331 l 1,60,61
 507 322 507 322 496 311 c 1,62,63
 486 315 486 315 486 330 c 0,64,65
 486 397 486 397 510 397 c 0,66,67
 522 397 522 397 541 373 c 128,-1,68
 560 349 560 349 577 349 c 2,69,-1
 580 349 l 1,70,71
 602.931787176 424.851296044 602.931787176 424.851296044 606 521.5 c 0,72,73
 607 553 607 553 607 614 c 1,74,-1
 600 614 l 1,75,76
 466 517 466 517 355 517 c 0,77,78
 326 517 326 517 272 538 c 128,-1,79
 218 559 218 559 193 559 c 0,80,81
 182 559 182 559 169 542.5 c 128,-1,82
 156 526 156 526 144 526 c 1,0,-1
742 804 m 1,83,-1
 737 804 l 2,84,85
 710 804 710 804 687.5 768 c 128,-1,86
 665 732 665 732 665 704 c 2,87,-1
 665 699 l 1,88,89
 725 752 725 752 742 804 c 1,83,-1
EndSplineSet
EndChar

StartChar: G
Encoding: 71 71 42
Width: 786
Flags: HW
LayerCount: 2
Fore
SplineSet
439 577 m 1,0,1
 452 576 452 576 454 576 c 0,2,3
 515 576 515 576 603.5 638.5 c 128,-1,4
 692 701 692 701 714 757 c 0,5,6
 716 762 716 762 723 813 c 128,-1,7
 730 864 730 864 732 869 c 1,8,9
 736 900 736 900 763 937 c 128,-1,10
 790 974 790 974 818 974 c 128,-1,11
 846 974 846 974 846 931 c 0,12,13
 846 909 846 909 833.5 882 c 128,-1,14
 821 855 821 855 809 838.5 c 128,-1,15
 797 822 797 822 775 795 c 128,-1,16
 753 768 753 768 751 765 c 1,17,18
 751 695 751 695 760.5 563 c 128,-1,19
 770 431 770 431 770.86 392.8 c 128,-1,20
 771.72 354.6 771.72 354.6 771.72 324.72 c 128,-1,21
 771.72 294.84 771.72 294.84 763.36 242.92 c 128,-1,22
 755 191 755 191 732 135.5 c 128,-1,23
 709 80 709 80 662.5 45 c 128,-1,24
 616 10 616 10 544.5 9.5 c 128,-1,25
 473 9 473 9 418 69.5 c 128,-1,26
 363 130 363 130 363 213 c 0,27,28
 363 268 363 268 404 310 c 128,-1,29
 445 352 445 352 499 352 c 1,30,31
 499 341 499 341 472 322 c 128,-1,32
 445 303 445 303 418 273.5 c 128,-1,33
 391 244 391 244 391 208 c 0,34,35
 391 138 391 138 441.5 87.5 c 128,-1,36
 492 37 492 37 554 37.5 c 128,-1,37
 616 38 616 38 654 70 c 128,-1,38
 692 102 692 102 709 150 c 0,39,40
 744.980769231 251.592760181 744.980769231 251.592760181 744.980769231 346.756656805 c 1,41,-1
 742 463 l 1,42,43
 730 594 730 594 714 709 c 1,44,45
 629 637 629 637 571.5 601.5 c 128,-1,46
 514 566 514 566 429 539 c 0,47,48
 429 538 429 538 420 529 c 1,49,-1
 222 237 l 1,50,51
 205 223 205 223 171.5 180 c 128,-1,52
 138 137 138 137 106 110.5 c 128,-1,53
 74 84 74 84 37 84 c 0,54,55
 20.1 84 20.1 84 14.05 89.5 c 128,-1,56
 8 95 8 95 4 104 c 1,57,-1
 13 113 l 1,58,59
 107.761670762 140.638820639 107.761670762 140.638820639 179 225 c 0,60,61
 237.542207792 294.326298701 237.542207792 294.326298701 299.271103896 389.663149351 c 128,-1,62
 361 485 361 485 392 529 c 1,63,-1
 393 539 l 2,64,65
 393 548 393 548 380.5 565 c 0,66,67
 344 614.64 344 614.64 344 662 c 0,68,69
 344 664 344 664 344 678.5 c 128,-1,70
 344 693 344 693 345 706.5 c 128,-1,71
 346 720 346 720 351.5 739.5 c 0,72,73
 362.076923077 777 362.076923077 777 407 777 c 0,74,75
 438 777 438 777 453 753 c 128,-1,76
 468 729 468 729 468 691.5 c 128,-1,77
 468 654 468 654 439 577 c 1,0,1
373 670 m 0,78,79
 373 630.882352941 373 630.882352941 383 607.941176471 c 128,-1,80
 393 585 393 585 407 585 c 2,81,-1
 409 585 l 2,82,83
 410 585 410 585 411 586 c 0,84,85
 439.114285714 604.742857143 439.114285714 604.742857143 445 643 c 0,86,87
 447 656 447 656 448 679.5 c 128,-1,88
 449 703 449 703 440 725 c 128,-1,89
 431 747 431 747 411 747 c 0,90,91
 373 747 373 747 373 670 c 0,78,79
819 938 m 1,92,93
 794 938 794 938 777 903.5 c 128,-1,94
 760 869 760 869 760 841 c 0,95,96
 760 840 760 840 761 822 c 1,97,98
 819 870 819 870 819 938 c 1,92,93
EndSplineSet
EndChar

StartChar: H
Encoding: 72 72 43
Width: 894
Flags: HW
LayerCount: 2
Fore
SplineSet
284 636 m 1,0,1
 286.102292769 591.851851852 286.102292769 591.851851852 368.081618656 591.851851852 c 0,2,3
 434.148148148 591.851851852 434.148148148 591.851851852 501.074074074 615.925925926 c 128,-1,4
 568 640 568 640 564 663 c 1,5,6
 577 719 577 719 595.5 756 c 0,7,8
 624.5 814 624.5 814 640 814 c 1,9,10
 660.807579838 808.503658156 660.807579838 808.503658156 660.807579838 786.150042679 c 0,11,12
 660.807579838 751.565675484 660.807579838 751.565675484 611.001118732 676.63057312 c 0,13,14
 605 667 605 667 602 663 c 0,15,16
 573 627 573 627 573 515 c 1,17,18
 590 499 590 499 652 453.5 c 128,-1,19
 714 408 714 408 750.5 367 c 128,-1,20
 787 326 787 326 800 275 c 1,21,-1
 848 738 l 1,22,-1
 870 734 l 1,23,24
 825 146 825 146 819 1 c 1,25,26
 814 -11 814 -11 786 -11 c 1,27,-1
 786 219 l 2,28,29
 786 233 786 233 767 277 c 128,-1,30
 748 321 748 321 739 323 c 1,31,32
 682 295 682 295 631.5 295 c 128,-1,33
 581 295 581 295 545 304 c 1,34,35
 480.545676998 117.421696574 480.545676998 117.421696574 396 38 c 0,36,37
 325.53422502 -28.1951219512 325.53422502 -28.1951219512 229.270077335 -28.1951219512 c 0,38,39
 224.170731707 -28.1951219512 224.170731707 -28.1951219512 219 -28 c 0,40,41
 189 -28 189 -28 137 -4.5 c 128,-1,42
 85 19 85 19 44.5 53.5 c 128,-1,43
 4 88 4 88 6 115 c 1,44,45
 12 163 12 163 82 191 c 1,46,-1
 82 182 l 1,47,48
 33 133 33 133 33 121 c 0,49,50
 33 94 33 94 70.5 64.5 c 128,-1,51
 108 35 108 35 154 18 c 128,-1,52
 200 1 200 1 229 1 c 0,53,54
 292 1 292 1 358.5 55.5 c 128,-1,55
 425 110 425 110 466.5 183.5 c 128,-1,56
 508 257 508 257 508 314 c 0,57,58
 508 332 508 332 488 359 c 128,-1,59
 468 386 468 386 468 413.5 c 0,60,61
 468 470.666666667 468 470.666666667 535 493 c 1,62,63
 537 506 537 506 542.5 531 c 0,64,65
 552.285714286 575.480519481 552.285714286 575.480519481 552.285714286 591.883116883 c 128,-1,66
 552.285714286 608.285714286 552.285714286 608.285714286 552 614 c 1,67,68
 521 591 521 591 401.5 575.5 c 0,69,70
 362.505263158 570.442105263 362.505263158 570.442105263 334.95734072 570.442105263 c 0,71,72
 278.084210526 570.442105263 278.084210526 570.442105263 270 592 c 1,73,74
 270 636 270 636 284 636 c 1,0,1
545 342 m 1,75,76
 564.8 317.7 564.8 317.7 621.05 317.7 c 0,77,78
 695.971428571 317.7 695.971428571 317.7 733 342 c 1,79,80
 666 409 666 409 662 414 c 128,-1,81
 658 419 658 419 648.5 426 c 128,-1,82
 639 433 639 433 630 439 c 128,-1,83
 621 445 621 445 609.5 452 c 0,84,85
 584.887850467 466.981308411 584.887850467 466.981308411 573 465 c 0,86,87
 561.620689655 462.155172414 561.620689655 462.155172414 548 360 c 0,88,89
 546 345 546 345 545 342 c 1,75,76
539 457 m 1,90,91
 498 457 498 457 498 411.5 c 0,92,93
 498 387 498 387 516 361 c 1,94,95
 539 409 539 409 539 457 c 1,90,91
643 780 m 1,96,97
 626 780 626 780 619 757.5 c 128,-1,98
 612 735 612 735 612 715 c 2,99,-1
 612 711 l 1,100,101
 643 752 643 752 643 780 c 1,96,97
EndSplineSet
EndChar

StartChar: I
Encoding: 73 73 44
Width: 547
Flags: HW
LayerCount: 2
Fore
SplineSet
34.5 6.5 m 128,-1,1
 13 14 13 14 13 31 c 128,-1,2
 13 48 13 48 28 48 c 0,3,4
 38 48 38 48 55 42.5 c 128,-1,5
 72 37 72 37 84 37 c 0,6,7
 153 37 153 37 223 74.5 c 128,-1,8
 293 112 293 112 347.5 173.5 c 128,-1,9
 402 235 402 235 445 308.5 c 128,-1,10
 488 382 488 382 511.5 458.5 c 128,-1,11
 535 535 535 535 535 602 c 128,-1,12
 535 669 535 669 505 703.5 c 128,-1,13
 475 738 475 738 408 738 c 0,14,15
 370 738 370 738 338.5 698.5 c 128,-1,16
 307 659 307 659 292.5 612 c 128,-1,17
 278 565 278 565 278 530 c 0,18,19
 278 424 278 424 373 396 c 1,20,-1
 354 388 l 1,21,22
 352 386 352 386 329.5 397 c 128,-1,23
 307 408 307 408 297 416 c 1,24,25
 248 446 248 446 248 532 c 0,26,27
 248 577 248 577 265.5 629.5 c 128,-1,28
 283 682 283 682 321 724 c 128,-1,29
 359 766 359 766 406 766 c 0,30,31
 554 766 554 766 554 591.5 c 128,-1,32
 554 417 554 417 448 263 c 128,-1,33
 342 109 342 109 184 28 c 0,34,35
 128 -1 128 -1 76 -1 c 0,36,0
 56 -1 56 -1 34.5 6.5 c 128,-1,1
EndSplineSet
EndChar

StartChar: J
Encoding: 74 74 45
Width: 551
Flags: HW
LayerCount: 2
Fore
SplineSet
479 49 m 1,0,-1
 567 57 l 1,1,2
 581 57 581 57 581 42 c 0,3,4
 581 23 581 23 553.5 18 c 128,-1,5
 526 13 526 13 495 10 c 128,-1,6
 464 7 464 7 458 -9 c 1,7,8
 431.514029851 -125.979701493 431.514029851 -125.979701493 392.257014925 -206.489850746 c 128,-1,9
 353 -287 353 -287 318 -331.5 c 128,-1,10
 283 -376 283 -376 232 -406 c 128,-1,11
 181 -436 181 -436 129 -436 c 128,-1,12
 77 -436 77 -436 42.5 -409.5 c 128,-1,13
 8 -383 8 -383 -9.5 -340 c 0,14,15
 -43 -257.685714286 -43 -257.685714286 -43 -164 c 0,16,17
 -43 -93.1111111111 -43 -93.1111111111 -18.5 -30.5 c 0,18,19
 -5 4 -5 4 21.5 26 c 128,-1,20
 48 48 48 48 83.5 48 c 128,-1,21
 119 48 119 48 119 32 c 1,22,-1
 118 28 l 1,23,24
 108.294117647 29.4705882353 108.294117647 29.4705882353 92.9705882353 29.4705882353 c 128,-1,25
 77.6470588235 29.4705882353 77.6470588235 29.4705882353 56.3235294118 19.2352941176 c 128,-1,26
 35 9 35 9 21 -13 c 128,-1,27
 7 -35 7 -35 -1.5 -66 c 0,28,29
 -15 -115.235294118 -15 -115.235294118 -15 -162.617647059 c 128,-1,30
 -15 -210 -15 -210 -8.5 -247 c 128,-1,31
 -2 -284 -2 -284 13 -322 c 128,-1,32
 28 -360 28 -360 57.5 -384 c 128,-1,33
 87 -408 87 -408 127 -408 c 0,34,35
 189 -408 189 -408 244 -363.5 c 128,-1,36
 299 -319 299 -319 335.5 -250.5 c 0,37,38
 407.582402235 -115.222067039 407.582402235 -115.222067039 429 9 c 1,39,40
 289 52 289 52 289 169 c 1,41,42
 287.666666667 186.333333333 287.666666667 186.333333333 287.666666667 210.416666667 c 128,-1,43
 287.666666667 234.5 287.666666667 234.5 294.333333333 268.25 c 128,-1,44
 301 302 301 302 324.5 338.5 c 128,-1,45
 348 375 348 375 369 400 c 128,-1,46
 390 425 390 425 433.5 470 c 128,-1,47
 477 515 477 515 505 547 c 1,48,49
 511 562 511 562 515.5 589.5 c 128,-1,50
 520 617 520 617 524 640.5 c 128,-1,51
 528 664 528 664 536 687.5 c 0,52,53
 553.191489362 738 553.191489362 738 606 738 c 0,54,55
 628 738 628 738 633.5 732.5 c 128,-1,56
 639 727 639 727 639 701 c 128,-1,57
 639 675 639 675 624 648.5 c 128,-1,58
 609 622 609 622 580 589.5 c 128,-1,59
 551 557 551 557 544.5 547 c 128,-1,60
 538 537 538 537 535.5 521 c 128,-1,61
 533 505 533 505 527.5 456 c 0,62,63
 507.191653787 275.071097372 507.191653787 275.071097372 493.095826893 184.035548686 c 128,-1,64
 479 93 479 93 479 49 c 1,0,-1
315 175 m 0,65,66
 315 128 315 128 347.5 87 c 128,-1,67
 380 46 380 46 426 46 c 0,68,69
 436 46 436 46 439 56 c 1,70,-1
 496 454 l 1,71,-1
 496 491 l 1,72,73
 431 441 431 441 373 345.5 c 128,-1,74
 315 250 315 250 315 175 c 0,65,66
612 714 m 1,75,76
 581 714 581 714 566.5 681.5 c 128,-1,77
 552 649 552 649 552 614 c 1,78,79
 553 607 553 607 553 605 c 1,80,81
 612 651 612 651 612 714 c 1,75,76
EndSplineSet
EndChar

StartChar: K
Encoding: 75 75 46
Width: 795
Flags: HW
LayerCount: 2
Fore
SplineSet
567 300 m 1,0,-1
 567 291 l 1,1,2
 575 276 575 276 629.5 171.5 c 128,-1,3
 684 67 684 67 730 -13.5 c 128,-1,4
 776 -94 776 -94 838 -191.5 c 128,-1,5
 900 -289 900 -289 957.5 -345 c 128,-1,6
 1015 -401 1015 -401 1058 -401 c 0,7,8
 1157 -401 1157 -401 1227.5 -363.5 c 128,-1,9
 1298 -326 1298 -326 1368 -247 c 1,10,11
 1397 -208 1397 -208 1397 -172 c 128,-1,12
 1397 -136 1397 -136 1366 -108.5 c 128,-1,13
 1335 -81 1335 -81 1291 -67 c 1,14,-1
 1291 -55 l 1,15,16
 1351 -55 1351 -55 1388.5 -87 c 128,-1,17
 1426 -119 1426 -119 1426 -173 c 128,-1,18
 1426 -227 1426 -227 1388.5 -277 c 128,-1,19
 1351 -327 1351 -327 1295.5 -361 c 128,-1,20
 1240 -395 1240 -395 1179 -416 c 128,-1,21
 1118 -437 1118 -437 1069 -437 c 0,22,23
 1067.33898305 -437.06779661 1067.33898305 -437.06779661 1065.66187877 -437.06779661 c 0,24,25
 1017.86440678 -437.06779661 1017.86440678 -437.06779661 955.93220339 -381.033898305 c 128,-1,26
 894 -325 894 -325 832 -234 c 128,-1,27
 770 -143 770 -143 715.5 -53 c 128,-1,28
 661 37 661 37 610 126 c 128,-1,29
 559 215 559 215 539 243 c 1,30,31
 530 240 530 240 530 233 c 1,32,33
 465.77328469 86.7058151264 465.77328469 86.7058151264 425.733466332 29.450714519 c 0,34,35
 330.824834003 -106.264269102 330.824834003 -106.264269102 180 -107 c 2,36,-1
 123 -107 l 1,37,38
 63 -91 63 -91 36 -34.5 c 128,-1,39
 9 22 9 22 9 91 c 0,40,41
 9 168 9 168 31 201 c 0,42,43
 41 216 41 216 56 216 c 0,44,45
 86 216 86 216 86 200 c 1,46,47
 74 190 74 190 62 172 c 1,48,49
 37 140 37 140 37 90 c 0,50,51
 37 -79 37 -79 184 -79 c 0,52,53
 268 -79 268 -79 342.5 -23.5 c 128,-1,54
 417 32 417 32 458 115 c 128,-1,55
 499 198 499 198 499 280 c 1,56,-1
 397 271 l 1,57,58
 347 271 347 271 310.5 294 c 128,-1,59
 274 317 274 317 274 366 c 0,60,61
 274 386 274 386 295.5 397.5 c 0,62,63
 326.347826087 414 326.347826087 414 375.173913043 414 c 128,-1,64
 424 414 424 414 456 399.5 c 128,-1,65
 488 385 488 385 520 346 c 1,66,-1
 530 366 l 1,67,68
 536.125 375.1875 536.125 375.1875 552.0625 461.59375 c 128,-1,69
 568 548 568 548 567.5 552.5 c 128,-1,70
 567 557 567 557 566 563.5 c 128,-1,71
 565 570 565 570 565 571 c 1,72,73
 541.66208157 570.185886566 541.66208157 570.185886566 467.155806525 561.017555783 c 128,-1,74
 392.649531479 551.849224999 392.649531479 551.849224999 362.561937379 551.849224999 c 128,-1,75
 332.474343279 551.849224999 332.474343279 551.849224999 332.474343279 557.832246923 c 0,76,77
 332.474343279 567.205550734 332.474343279 567.205550734 379 590 c 1,78,-1
 454.875 588.5 l 1,79,80
 528.545454545 588.5 528.545454545 588.5 567 612 c 0,81,82
 590.55450237 626.132701422 590.55450237 626.132701422 609.5 699 c 0,83,84
 616 724 616 724 631 744 c 128,-1,85
 646 764 646 764 670 764 c 0,86,87
 680 764 680 764 685.5 759 c 128,-1,88
 691 754 691 754 691.5 748.5 c 128,-1,89
 692 743 692 743 692 735.5 c 2,90,-1
 692 727 l 2,91,92
 692 677 692 677 615 612 c 1,93,-1
 558 346 l 1,94,-1
 558 340 l 1,95,96
 618 340 618 340 680 367 c 128,-1,97
 742 394 742 394 796.5 439 c 0,98,99
 892.117437722 517.950177936 892.117437722 517.950177936 974 630 c 1,100,-1
 993 630 l 1,101,-1
 993 612 l 2,102,103
 993 604 993 604 908 498 c 1,104,105
 800 367 800 367 567 300 c 1,0,-1
373 376 m 1,106,107
 311 381.391304348 311 381.391304348 311 361 c 0,108,109
 311 330 311 330 337 314.5 c 128,-1,110
 363 299 363 299 396 299 c 2,111,-1
 426.375 298.25 l 1,112,113
 476.8125 298.25 476.8125 298.25 482 319 c 1,114,115
 459 376 459 376 373 376 c 1,106,107
661 725 m 1,116,117
 643 715 643 715 643 682 c 2,118,-1
 643 679 l 1,119,120
 662 697 662 697 662 710.5 c 128,-1,121
 662 724 662 724 661 725 c 1,116,117
EndSplineSet
EndChar

StartChar: L
Encoding: 76 76 47
Width: 958
Flags: HW
LayerCount: 2
Fore
SplineSet
617 157 m 1,0,-1
 607 157 l 1,1,2
 581.470588235 139.325791855 581.470588235 139.325791855 493.235294118 92.6628959276 c 128,-1,3
 405 46 405 46 400 43 c 0,4,5
 340 13 340 13 224 13 c 0,6,7
 118.609375 13 118.609375 13 62.5 70 c 0,8,9
 31 102 31 102 31 148 c 0,10,11
 31 217.565217391 31 217.565217391 99 256 c 0,12,13
 155.41509434 287.886792453 155.41509434 287.886792453 233.5 303 c 0,14,15
 282.818181818 312.545454545 282.818181818 312.545454545 314 317 c 1,16,-1
 332 317 l 2,17,18
 403 317 403 317 523 269 c 0,19,20
 524 269 524 269 532 264.5 c 128,-1,21
 540 260 540 260 548 256 c 128,-1,22
 556 252 556 252 565.5 247.5 c 0,23,24
 584.851851852 238.333333333 584.851851852 238.333333333 595.925925926 230.666666667 c 128,-1,25
 607 223 607 223 607 222 c 0,26,27
 622 213 622 213 626 213 c 1,28,29
 705 315 705 315 721 367 c 1,30,31
 714.419354839 366.419354839 714.419354839 366.419354839 694.903225806 366.419354839 c 128,-1,32
 675.387096774 366.419354839 675.387096774 366.419354839 621.193548387 377.709677419 c 128,-1,33
 567 389 567 389 504.5 412.5 c 128,-1,34
 442 436 442 436 397 477.5 c 128,-1,35
 352 519 352 519 352 566 c 0,36,37
 352 585 352 585 367 585 c 1,38,-1
 375.5 574 l 2,39,40
 384 563 384 563 396.5 546.5 c 128,-1,41
 409 530 409 530 423.5 512.5 c 0,42,43
 459.219512195 469.390243902 459.219512195 469.390243902 474 462 c 0,44,45
 588 400 588 400 701 400 c 0,46,47
 735 400 735 400 748 411 c 1,48,-1
 994 656 l 2,49,50
 1007 670 1007 670 1034.5 681 c 0,51,52
 1070.9516129 695.580645161 1070.9516129 695.580645161 1097.60483871 695.580645161 c 0,53,54
 1163.22135706 695.580645161 1163.22135706 695.580645161 1165 644 c 1,55,56
 1165 595 1165 595 1142.5 554.5 c 128,-1,57
 1120 514 1120 514 1088.5 488.5 c 128,-1,58
 1057 463 1057 463 1008.5 441 c 0,59,60
 939.084424765 409.512522574 939.084424765 409.512522574 837.704715266 383.211077961 c 0,61,62
 822 379 822 379 815 377 c 1,63,64
 813 375 813 375 790.5 367 c 128,-1,65
 768 359 768 359 765 357 c 1,66,67
 753 339 753 339 660 193 c 1,68,69
 714.364772727 123.942045455 714.364772727 123.942045455 813.5 -104.5 c 0,70,71
 848 -184 848 -184 888 -259 c 128,-1,72
 928 -334 928 -334 980.423913043 -378.510869565 c 128,-1,73
 1032.84782609 -423.02173913 1032.84782609 -423.02173913 1093.30860113 -423.02173913 c 0,74,75
 1094.65217391 -423.02173913 1094.65217391 -423.02173913 1096 -423 c 0,76,77
 1240.03682172 -423 1240.03682172 -423 1291.25809457 -411.494735278 c 0,78,79
 1400.93736119 -386.858701724 1400.93736119 -386.858701724 1421.61010095 -288.138854299 c 0,80,81
 1426.90585627 -261.740419468 1426.90585627 -261.740419468 1426.95292813 -222.870209734 c 128,-1,82
 1427 -184 1427 -184 1397 -140 c 128,-1,83
 1367 -96 1367 -96 1322 -76 c 1,84,-1
 1341 -74 l 1,85,86
 1397 -74 1397 -74 1427 -124 c 128,-1,87
 1457 -174 1457 -174 1457 -226 c 128,-1,88
 1457 -278 1457 -278 1445.5 -314 c 128,-1,89
 1434 -350 1434 -350 1417 -374 c 128,-1,90
 1400 -398 1400 -398 1369.5 -414.5 c 128,-1,91
 1339 -431 1339 -431 1312 -440 c 128,-1,92
 1285 -449 1285 -449 1241.5 -453.5 c 0,93,94
 1178.66666667 -460 1178.66666667 -460 1086 -460 c 1,95,96
 1076.4 -461.505882353 1076.4 -461.505882353 1066.87086505 -461.505882353 c 0,97,98
 1025.77647059 -461.505882353 1025.77647059 -461.505882353 981.388235294 -430.252941176 c 128,-1,99
 937 -399 937 -399 899.5 -341 c 128,-1,100
 862 -283 862 -283 822.5 -207.5 c 128,-1,101
 783 -132 783 -132 752 -62.5 c 0,102,103
 676.478010094 106.815428983 676.478010094 106.815428983 617 157 c 1,0,-1
92.5 216 m 128,-1,105
 67 188 67 188 67 148.5 c 128,-1,106
 67 109 67 109 92.5 84 c 0,107,108
 135.34 42 135.34 42 219 42 c 0,109,110
 340.285714286 42 340.285714286 42 390 71 c 1,111,112
 425 89 425 89 491.5 125.5 c 128,-1,113
 558 162 558 162 561 165 c 2,114,-1
 579 184 l 1,115,116
 557 225 557 225 469.5 252.5 c 128,-1,117
 382 280 382 280 330 280 c 128,-1,118
 278 280 278 280 240.5 275 c 128,-1,119
 203 270 203 270 160.5 257 c 128,-1,104
 118 244 118 244 92.5 216 c 128,-1,105
1132 629 m 0,120,121
 1132 666.909090909 1132 666.909090909 1090.12809917 666.909090909 c 0,122,123
 1077.40909091 666.909090909 1077.40909091 666.909090909 1057.70454545 659.954545455 c 128,-1,124
 1038 653 1038 653 1022 637 c 2,125,-1
 814 419 l 1,126,-1
 829 419 l 2,127,128
 881 419 881 419 950 444.5 c 128,-1,129
 1019 470 1019 470 1075.5 520.5 c 128,-1,130
 1132 571 1132 571 1132 629 c 0,120,121
EndSplineSet
EndChar

StartChar: M
Encoding: 77 77 48
Width: 856
Flags: HW
LayerCount: 2
Fore
SplineSet
516 574 m 1,0,-1
 515 529.5 l 1,1,-1
 515 517 l 1,2,3
 485 309 485 309 477 281 c 1,4,5
 497 316 497 316 546 409 c 128,-1,6
 595 502 595 502 626 556.5 c 128,-1,7
 657 611 657 611 702 663.5 c 128,-1,8
 747 716 747 716 784 723 c 1,9,10
 828 723 828 723 828 589 c 2,11,-1
 828 564 l 1,12,13
 826.668377823 493.424024641 826.668377823 493.424024641 805.334188912 352.21201232 c 0,14,15
 772.121212121 132.373737374 772.121212121 132.373737374 772.121212121 75.9292929293 c 128,-1,16
 772.121212121 19.4848484848 772.121212121 19.4848484848 778.560606061 -29.7575757576 c 128,-1,17
 785 -79 785 -79 809 -137 c 0,18,19
 858.554265297 -256.756141134 858.554265297 -256.756141134 1026 -285 c 1,20,21
 1053.30957947 -274.907329328 1053.30957947 -274.907329328 1058.19128246 -274.907329328 c 128,-1,22
 1063.07298545 -274.907329328 1063.07298545 -274.907329328 1063.07298545 -276.197296845 c 0,23,24
 1063.07298545 -284.887592408 1063.07298545 -284.887592408 1032.45124761 -295.719048123 c 128,-1,25
 1001.82950977 -306.550503839 1001.82950977 -306.550503839 992.240510641 -306.550503839 c 128,-1,26
 982.651511517 -306.550503839 982.651511517 -306.550503839 978 -305 c 1,27,28
 879.515151515 -305 879.515151515 -305 822.5 -234 c 0,29,30
 770.960629921 -169.818897638 770.960629921 -169.818897638 751 -78 c 1,31,32
 747.542857143 -39.0285714286 747.542857143 -39.0285714286 747.542857143 38.5285714286 c 128,-1,33
 747.542857143 116.085714286 747.542857143 116.085714286 767.771428571 304.042857143 c 128,-1,34
 788 492 788 492 790 564 c 1,35,-1
 789 641 l 1,36,37
 786 670 786 670 775 670 c 1,38,39
 684.926229508 599.942622951 684.926229508 599.942622951 613 469 c 0,40,41
 574 398 574 398 558.5 366 c 128,-1,42
 543 334 543 334 520.5 284.5 c 0,43,44
 487.393939394 211.666666667 487.393939394 211.666666667 449 91 c 1,45,46
 441 83 441 83 432 83 c 128,-1,47
 423 83 423 83 420 91 c 1,48,49
 420 150 420 150 487 545 c 1,50,51
 481.46875 575.421875 481.46875 575.421875 456 552.5 c 0,52,53
 448.533783784 545.780405405 448.533783784 545.780405405 355.766891892 428.390202703 c 128,-1,54
 263 311 263 311 241 281 c 1,55,56
 237 270 237 270 217.5 201.5 c 128,-1,57
 198 133 198 133 194 121 c 0,58,59
 178 71 178 71 141.5 33.5 c 128,-1,60
 105 -4 105 -4 61 -4 c 0,61,62
 26 -4 26 -4 24 8 c 0,63,64
 23 14 23 14 23 26 c 0,65,66
 23 58 23 58 42 83 c 1,67,68
 213 290 213 290 231 385 c 1,69,70
 239.019029491 393.019029491 239.019029491 393.019029491 239.019029491 483.812283969 c 128,-1,71
 239.019029491 574.605538447 239.019029491 574.605538447 231.943143812 574.605538447 c 0,72,73
 231.486284576 574.605538447 231.486284576 574.605538447 231 574 c 2,74,-1
 47 498 l 1,75,76
 41 498 41 498 36.5 502.5 c 128,-1,77
 32 507 32 507 32 513 c 0,78,79
 32 523.555555556 32 523.555555556 66.5 532.5 c 2,80,-1
 80 536 l 1,81,82
 90 541 90 541 124 560 c 0,83,84
 199.798165138 602.357798165 199.798165138 602.357798165 231 604 c 1,85,86
 251.307692308 604 251.307692308 604 257.153846154 594.5 c 128,-1,87
 263 585 263 585 265.5 579.5 c 128,-1,88
 268 574 268 574 269 563.5 c 128,-1,89
 270 553 270 553 270.5 547.5 c 128,-1,90
 271 542 271 542 270.5 530 c 128,-1,91
 270 518 270 518 270 504.5 c 128,-1,92
 270 491 270 491 265 436.5 c 128,-1,93
 260 382 260 382 260 347 c 1,94,95
 430.093071403 570.469558245 430.093071403 570.469558245 464.852451265 602.28143543 c 0,96,97
 480.362044235 616.475856295 480.362044235 616.475856295 489.541284328 616.475856295 c 128,-1,98
 498.720524421 616.475856295 498.720524421 616.475856295 502.776918407 609.178932217 c 128,-1,99
 506.833312393 601.882008139 506.833312393 601.882008139 516 574 c 1,0,-1
60 25 m 1,100,101
 87 25 87 25 115 53.5 c 128,-1,102
 143 82 143 82 156 111 c 1,103,-1
 173.5 156.5 l 2,104,105
 191 202 191 202 194 215 c 1,106,-1
 194 220 l 1,107,108
 192 217 192 217 175 197.5 c 128,-1,109
 158 178 158 178 146.5 164.5 c 128,-1,110
 135 151 135 151 117 128 c 128,-1,111
 99 105 99 105 88 88.5 c 0,112,113
 60 46.5 60 46.5 60 25 c 1,100,101
EndSplineSet
EndChar

StartChar: N
Encoding: 78 78 49
Width: 631
Flags: HW
LayerCount: 2
Fore
SplineSet
561 175 m 1,0,-1
 563 71 l 1,1,2
 583 -90 583 -90 742 -90 c 0,3,4
 750 -90 750 -90 780 -86 c 128,-1,5
 810 -82 810 -82 817 -80 c 1,6,7
 798 -109 798 -109 718 -109 c 128,-1,8
 638 -109 638 -109 595.5 -69.5 c 128,-1,9
 553 -30 553 -30 534 52 c 1,10,-1
 533 170 l 2,11,12
 533 239 533 239 548 374 c 128,-1,13
 563 509 563 509 563 577 c 2,14,-1
 563 639 l 1,15,-1
 241 336 l 1,16,-1
 222 184 l 2,17,18
 215 123 215 123 172.5 59 c 128,-1,19
 130 -5 130 -5 75 -5 c 0,20,21
 48 -5 48 -5 30 14 c 128,-1,22
 12 33 12 33 13 62 c 1,23,24
 18 114 18 114 53.5 174.5 c 128,-1,25
 89 235 89 235 120.5 270 c 128,-1,26
 152 305 152 305 202 355 c 1,27,28
 204 365 204 365 204 414.5 c 128,-1,29
 204 464 204 464 184 553 c 0,30,31
 181 563 181 563 165 563 c 0,32,33
 164 563 164 563 156 562 c 1,34,35
 86 507 86 507 22 507 c 1,36,37
 22 527 22 527 32 532 c 0,38,39
 36 534 36 534 45.5 537.5 c 128,-1,40
 55 541 55 541 63.5 544 c 128,-1,41
 72 547 72 547 120.5 572.5 c 128,-1,42
 169 598 169 598 175 600 c 1,43,-1
 184 601 l 1,44,45
 195 601 195 601 203 592.5 c 128,-1,46
 211 584 211 584 213 572 c 2,47,-1
 242 375 l 1,48,-1
 581 704 l 1,49,-1
 600 686 l 1,50,-1
 604 628 l 1,51,52
 604 552 604 552 582.5 402 c 128,-1,53
 561 252 561 252 561 175 c 1,0,-1
76.5 158 m 128,-1,55
 50 110 50 110 50 66.5 c 128,-1,56
 50 23 50 23 70 23 c 0,57,58
 105 23 105 23 133 55.5 c 128,-1,59
 161 88 161 88 175.5 135 c 0,60,61
 205 230.620689655 205 230.620689655 205 298 c 1,62,-1
 194 298 l 2,63,64
 192 298 192 298 169.5 275 c 128,-1,65
 147 252 147 252 138 241 c 1,66,54
 103 206 103 206 76.5 158 c 128,-1,55
EndSplineSet
EndChar

StartChar: O
Encoding: 79 79 50
Width: 508
Flags: HW
LayerCount: 2
Fore
SplineSet
488 586 m 1,0,-1
 477 369 l 1,1,-1
 477 359 l 1,2,-1
 544 388 l 1,3,-1
 544 382 l 2,4,5
 544 375 544 375 538 371.5 c 128,-1,6
 532 368 532 368 515.5 359.5 c 0,7,8
 469.367346939 335.734693878 469.367346939 335.734693878 466.683673469 331.367346939 c 128,-1,9
 464 327 464 327 452.5 287.5 c 128,-1,10
 441 248 441 248 439 245 c 0,11,12
 340 9 340 9 175 9 c 0,13,14
 103.979591837 9 103.979591837 9 71 59.5 c 0,15,16
 36.5230125523 112.292887029 36.5230125523 112.292887029 31.2615062762 159.646443515 c 0,17,18
 23 234 23 234 23 289 c 2,19,-1
 24 367.5 l 1,20,-1
 24 388 l 2,21,22
 24 405 24 405 42 520 c 1,23,24
 49.3784860558 558.737051793 49.3784860558 558.737051793 65.6892430279 599.868525896 c 0,25,26
 95.8793103448 676 95.8793103448 676 138 676 c 1,27,-1
 138 661 l 1,28,29
 50 514 50 514 50 282 c 0,30,31
 50 196 50 196 66 145 c 128,-1,32
 82 94 82 94 138 47 c 0,33,34
 150 38 150 38 169 38 c 0,35,36
 263 38 263 38 335.5 124.5 c 128,-1,37
 408 211 408 211 429 311 c 1,38,39
 412.529411765 310.058823529 412.529411765 310.058823529 397.207612457 310.058823529 c 0,40,41
 282.294117647 310.058823529 282.294117647 310.058823529 228.647058824 366.529411765 c 128,-1,42
 175 423 175 423 175 567 c 0,43,44
 175 648.5 175 648.5 189.5 713.75 c 128,-1,45
 204 779 204 779 222 817 c 128,-1,46
 240 855 240 855 273 881.5 c 128,-1,47
 306 908 306 908 342 908 c 128,-1,48
 378 908 378 908 403 889.5 c 128,-1,49
 428 871 428 871 444.5 841 c 0,50,51
 474.457446809 786.531914894 474.457446809 786.531914894 487 728 c 1,52,-1
 488 586 l 1,0,-1
459 445 m 1,53,-1
 467 633 l 1,54,55
 467 698.857142857 467 698.857142857 452 757.428571429 c 0,56,57
 423.443533358 868.934774506 423.443533358 868.934774506 355 879 c 0,58,59
 349.776119403 879.746268657 349.776119403 879.746268657 344.70817554 879.746268657 c 0,60,61
 315.820895522 879.746268657 315.820895522 879.746268657 289.910447761 853.373134328 c 128,-1,62
 264 827 264 827 248 784 c 128,-1,63
 232 741 232 741 221 689.5 c 0,64,65
 202 600.545454545 202 600.545454545 202 545.272727273 c 128,-1,66
 202 490 202 490 217.5 443.5 c 128,-1,67
 233 397 233 397 271 363.5 c 128,-1,68
 309 330 309 330 363 330 c 1,69,-1
 390 329.25 l 1,70,71
 433.357142857 329.25 433.357142857 329.25 439 349 c 1,72,73
 447 408 447 408 459 435 c 1,74,-1
 459 445 l 1,53,-1
EndSplineSet
EndChar

StartChar: P
Encoding: 80 80 51
Width: 496
Flags: HW
LayerCount: 2
Fore
SplineSet
32 29 m 128,-1,1
 12 59 12 59 12 95 c 128,-1,2
 12 131 12 131 18 157.5 c 128,-1,3
 24 184 24 184 40 209.5 c 128,-1,4
 56 235 56 235 66.5 249.5 c 128,-1,5
 77 264 77 264 104 294 c 128,-1,6
 131 324 131 324 144 340.5 c 128,-1,7
 157 357 157 357 218 425 c 128,-1,8
 279 493 279 493 302 517 c 1,9,10
 339.531914894 601 339.531914894 601 339.531914894 707.35943866 c 0,11,12
 339.531914894 720.021276596 339.531914894 720.021276596 339 733 c 1,13,14
 313 733 313 733 265 715 c 128,-1,15
 217 697 217 697 180 697 c 1,16,-1
 180 722 l 1,17,18
 224 722 224 722 252 727.5 c 128,-1,19
 280 733 280 733 312 753 c 0,20,21
 317 756 317 756 346 785 c 128,-1,22
 375 814 375 814 390 814 c 1,23,24
 390 777 390 777 374.275 706.7 c 128,-1,25
 358.55 636.4 358.55 636.4 358.55 612.85 c 128,-1,26
 358.55 589.3 358.55 589.3 359 583 c 1,27,-1
 567 792 l 2,28,29
 625 849 625 849 692 849 c 0,30,31
 717 849 717 849 727.5 840 c 128,-1,32
 738 831 738 831 738 794 c 128,-1,33
 738 757 738 757 713 684 c 128,-1,34
 688 611 688 611 648.5 542 c 128,-1,35
 609 473 609 473 552 424 c 128,-1,36
 495 375 495 375 445.5 375 c 128,-1,37
 396 375 396 375 340 423 c 1,38,39
 320 317 320 317 302 262 c 1,40,41
 299 248 299 248 282 209 c 128,-1,42
 265 170 265 170 255.5 152 c 128,-1,43
 246 134 246 134 226 101.5 c 128,-1,44
 206 69 206 69 187.5 49.5 c 128,-1,45
 169 30 169 30 142.5 14.5 c 128,-1,46
 116 -1 116 -1 84 -1 c 128,-1,0
 52 -1 52 -1 32 29 c 128,-1,1
40 102 m 0,47,48
 40 28 40 28 89 28 c 0,49,50
 132 28 132 28 170.5 66 c 128,-1,51
 209 104 209 104 234.5 160 c 128,-1,52
 260 216 260 216 279 280.5 c 0,53,54
 315 402.710526316 315 402.710526316 315 479 c 1,55,56
 303 479 303 479 241 413.5 c 128,-1,57
 179 348 179 348 156.5 319 c 128,-1,58
 134 290 134 290 111.5 264 c 128,-1,59
 89 238 89 238 81.5 227 c 128,-1,60
 74 216 74 216 61.5 194 c 0,61,62
 40 156.16 40 156.16 40 102 c 0,47,48
567 762 m 1,63,64
 439 634 439 634 395.938572017 585.182429219 c 128,-1,65
 352.877144034 536.364858437 352.877144034 536.364858437 350.938572017 530.246142956 c 128,-1,66
 349 524.127427474 349 524.127427474 349 494.563713737 c 128,-1,67
 349 465 349 465 371.5 434.5 c 128,-1,68
 394 404 394 404 430 404 c 0,69,70
 484 404 484 404 536.5 450 c 128,-1,71
 589 496 589 496 624 562.5 c 128,-1,72
 659 629 659 629 680.5 699.5 c 128,-1,73
 702 770 702 770 702 821 c 1,74,75
 656.111111111 821 656.111111111 821 611 792 c 0,76,77
 597 783 597 783 567 762 c 1,63,64
EndSplineSet
EndChar

StartChar: Q
Encoding: 81 81 52
Width: 619
Flags: HW
LayerCount: 2
Fore
SplineSet
478.043741238 603.07764873 m 2,0,-1
 478 587 l 2,1,2
 478 352 478 352 373 170 c 1,3,4
 390 116 390 116 422.5 75.5 c 128,-1,5
 455 35 455 35 502 35 c 0,6,7
 577 35 577 35 638 85 c 0,8,9
 639 85 639 85 639 80 c 0,10,11
 639 47 639 47 590.5 28 c 128,-1,12
 542 9 542 9 495.5 9 c 128,-1,13
 449 9 449 9 416 38.5 c 128,-1,14
 383 68 383 68 345 131 c 1,15,16
 312 96 312 96 293 78.5 c 128,-1,17
 274 61 274 61 237 40.5 c 128,-1,18
 200 20 200 20 158 20 c 128,-1,19
 116 20 116 20 76.5 56.5 c 128,-1,20
 37 93 37 93 24 142 c 1,21,22
 16.3728813559 182.677966102 16.3728813559 182.677966102 16.3728813559 235.262711864 c 0,23,24
 16.3728813559 425.316384181 16.3728813559 425.316384181 81.5 593 c 0,25,26
 125 705 125 705 184 718 c 1,27,-1
 230 718 l 1,28,29
 230 706 230 706 214.5 695.5 c 128,-1,30
 199 685 199 685 180 674 c 128,-1,31
 161 663 161 663 156 652 c 0,32,33
 45.9224137931 410.413793103 45.9224137931 410.413793103 45.9224137931 258.853448276 c 128,-1,34
 45.9224137931 107.293103448 45.9224137931 107.293103448 168 56 c 0,35,36
 174.631578947 54.1052631579 174.631578947 54.1052631579 185.921052632 54.1052631579 c 128,-1,37
 197.210526316 54.1052631579 197.210526316 54.1052631579 219.105263158 65.0526315789 c 128,-1,38
 241 76 241 76 259 93 c 128,-1,39
 277 110 277 110 299 132.5 c 128,-1,40
 321 155 321 155 326 160 c 1,41,42
 318.5 190 318.5 190 311.75 226 c 128,-1,43
 305 262 305 262 297 301.5 c 128,-1,44
 289 341 289 341 288.5 348.5 c 128,-1,45
 288 356 288 356 281.4375 392.09375 c 128,-1,46
 274.875 428.1875 274.875 428.1875 274.875 437.375 c 2,47,-1
 267.666666667 519.055555556 l 1,48,-1
 269.888888889 541.12345679 l 2,49,50
 269.888888889 551 269.888888889 551 269 567 c 1,51,52
 271 579 271 579 274.5 615 c 128,-1,53
 278 651 278 651 281 674.5 c 128,-1,54
 284 698 284 698 292.5 732.5 c 128,-1,55
 301 767 301 767 312.5 789.5 c 0,56,57
 340.954413191 845.171677983 340.954413191 845.171677983 391 860 c 1,58,59
 478.043741238 860 478.043741238 860 478.043741238 603.07764873 c 2,0,-1
316 699 m 0,60,61
 298 595 298 595 297.407407407 570.259259259 c 128,-1,62
 296.814814815 545.518518519 296.814814815 545.518518519 296.814814815 523.773662551 c 0,63,64
 296.814814815 398.740740741 296.814814815 398.740740741 336 265 c 1,65,66
 339 251 339 251 347.5 234.5 c 128,-1,67
 356 218 356 218 362.5 218 c 128,-1,68
 369 218 369 218 391 265.5 c 128,-1,69
 413 313 413 313 420 341 c 1,70,71
 459 471 459 471 459 562.5 c 128,-1,72
 459 654 459 654 429 795 c 0,73,74
 426 808 426 808 415.5 820.5 c 128,-1,75
 405 833 405 833 391 833 c 0,76,77
 374 833 374 833 348 780.5 c 128,-1,78
 322 728 322 728 316 699 c 0,60,61
EndSplineSet
EndChar

StartChar: R
Encoding: 82 82 53
Width: 632
Flags: HW
LayerCount: 2
Fore
SplineSet
488.23270848 731.464454761 m 0,0,1
 524.919701196 731.464454761 524.919701196 731.464454761 524.919701196 684.197531226 c 128,-1,2
 524.919701196 636.930607691 524.919701196 636.930607691 478.342940809 557.778326347 c 0,3,4
 418.644150694 456.326542415 418.644150694 456.326542415 345.465366989 414.058326357 c 0,5,6
 316.833167527 397.520309027 316.833167527 397.520309027 291 395 c 1,7,8
 326.239766082 364.356725146 326.239766082 364.356725146 404.5 197.5 c 0,9,10
 431 141 431 141 469 95.5 c 128,-1,11
 507 50 507 50 544 50 c 0,12,13
 620 50 620 50 652 100 c 1,14,15
 652 26 652 26 534 13 c 1,16,17
 489 15 489 15 452.5 55 c 128,-1,18
 416 95 416 95 391.5 149 c 128,-1,19
 367 203 367 203 342 255 c 128,-1,20
 317 307 317 307 283.615853659 335.487804878 c 128,-1,21
 250.231707317 363.975609756 250.231707317 363.975609756 214.567221892 363.975609756 c 0,22,23
 204.536585366 363.975609756 204.536585366 363.975609756 194 362 c 1,24,25
 152.541025641 169.979487179 152.541025641 169.979487179 138.770512821 118.48974359 c 128,-1,26
 125 67 125 67 120 44 c 128,-1,27
 115 21 115 21 106.5 5 c 128,-1,28
 98 -11 98 -11 96.5 -14 c 128,-1,29
 95 -17 95 -17 85 -24.5 c 128,-1,30
 75 -32 75 -32 73 -34 c 1,31,32
 17.3428571429 -32.3134199134 17.3428571429 -32.3134199134 17.3428571429 38.8 c 128,-1,33
 17.3428571429 110.073089701 17.3428571429 110.073089701 72.5 264 c 0,34,35
 94 324 94 324 114.5 378.5 c 0,36,37
 166.913513514 517.843243243 166.913513514 517.843243243 177 575 c 1,38,39
 177 607 177 607 169.5 617.5 c 128,-1,40
 162 628 162 628 152 624 c 128,-1,41
 142 620 142 620 123.5 610 c 128,-1,42
 105 600 105 600 92 598 c 1,43,-1
 92 622 l 1,44,45
 97 630 97 630 129 650 c 128,-1,46
 161 670 161 670 172 670 c 0,47,48
 193 670 193 670 204 624.5 c 128,-1,49
 215 579 215 579 215 536 c 1,50,51
 221 554 221 554 292.5 614.5 c 0,52,53
 430.730719263 731.464454761 430.730719263 731.464454761 488.23270848 731.464454761 c 0,0,1
150 378 m 1,54,55
 113 332 113 332 80 215 c 128,-1,56
 47 98 47 98 47 31 c 1,57,58
 51.8709473707 9.08073683175 51.8709473707 9.08073683175 59.8249260431 9.08073683175 c 0,59,60
 71.1773283243 9.08073683175 71.1773283243 9.08073683175 88.8100919864 53.7318870891 c 0,61,62
 126.792639497 149.914452032 126.792639497 149.914452032 144.947653383 289.156015627 c 0,63,64
 150.53343653 331.99669777 150.53343653 331.99669777 150.53343653 351.130934045 c 128,-1,65
 150.53343653 370.265170321 150.53343653 370.265170321 150 378 c 1,54,55
503.724137931 665.383472057 m 0,66,67
 503.724137931 688.674418605 503.724137931 688.674418605 483.09653867 688.674418605 c 0,68,69
 477.174418605 688.674418605 477.174418605 688.674418605 459.587209302 684.837209302 c 128,-1,70
 442 681 442 681 394 650 c 1,71,72
 374 630 374 630 329.5 595.5 c 128,-1,73
 285 561 285 561 257.5 537.5 c 128,-1,74
 230 514 230 514 212.109090909 484.327272727 c 128,-1,75
 194.218181818 454.654545455 194.218181818 454.654545455 194.218181818 438.4 c 128,-1,76
 194.218181818 422.145454545 194.218181818 422.145454545 196 414 c 1,77,78
 216.063694268 406.038216561 216.063694268 406.038216561 237.699460424 406.038216561 c 0,79,80
 284 406.038216561 284 406.038216561 337.5 442.5 c 0,81,82
 416 496 416 496 466 573 c 0,83,84
 503.724137931 631.300940439 503.724137931 631.300940439 503.724137931 665.383472057 c 0,66,67
EndSplineSet
EndChar

StartChar: S
Encoding: 83 83 54
Width: 800
Flags: HW
LayerCount: 2
Fore
SplineSet
473.134948097 -19.7647058824 m 0,0,1
 357.974945534 -19.7647058824 357.974945534 -19.7647058824 208 113 c 1,2,-1
 25 25 l 1,3,4
 20 25 20 25 14.5 40 c 128,-1,5
 9 55 9 55 9 61 c 128,-1,6
 9 67 9 67 43 77.5 c 0,7,8
 160.838306064 113.891241578 160.838306064 113.891241578 199 149 c 1,9,10
 183.82962963 206.362962963 183.82962963 206.362962963 183.82962963 253.825925926 c 128,-1,11
 183.82962963 301.288888889 183.82962963 301.288888889 202.5 336 c 0,12,13
 238 402 238 402 365 439 c 1,14,15
 357 433 357 433 362.5 425.5 c 128,-1,16
 368 418 368 418 365 415 c 1,17,18
 273.308025099 368.053708851 273.308025099 368.053708851 248.499558993 346.002103263 c 0,19,20
 208.530382583 310.474533357 208.530382583 310.474533357 208.530382583 252.719275148 c 0,21,22
 208.530382583 215.750882204 208.530382583 215.750882204 227 160 c 1,23,24
 255 181 255 181 403 286 c 128,-1,25
 551 391 551 391 657 479 c 1,26,-1
 676 734 l 2,27,28
 682 802 682 802 729 858.5 c 128,-1,29
 776 915 776 915 839 915 c 1,30,31
 883 906 883 906 901.333333333 886.291666667 c 128,-1,32
 919.666666667 866.583333333 919.666666667 866.583333333 919.666666667 843.111111111 c 0,33,34
 919.666666667 785.413793103 919.666666667 785.413793103 856 696.5 c 0,35,36
 827 656 827 656 799.5 621.5 c 0,37,38
 726.447852761 529.852760736 726.447852761 529.852760736 697 482 c 1,39,40
 705.529411765 421.227941176 705.529411765 421.227941176 705.529411765 364.569852941 c 128,-1,41
 705.529411765 307.911764706 705.529411765 307.911764706 697.764705882 256.955882353 c 128,-1,42
 690 206 690 206 675 159.5 c 128,-1,43
 660 113 660 113 636 77 c 0,44,45
 571.490196078 -19.7647058824 571.490196078 -19.7647058824 473.134948097 -19.7647058824 c 0,0,1
245 127 m 1,46,47
 368.78280543 12.0588235294 368.78280543 12.0588235294 465.780276817 12.0588235294 c 0,48,49
 542.5 12.0588235294 542.5 12.0588235294 587.5 65 c 0,50,51
 646.507246377 134.420289855 646.507246377 134.420289855 661 225 c 0,52,53
 670.68 285.5 670.68 285.5 670.68 336.61 c 128,-1,54
 670.68 387.72 670.68 387.72 661 437 c 1,55,-1
 245 127 l 1,46,47
838 886 m 1,56,57
 747.0625 875.895833333 747.0625 875.895833333 722 784 c 0,58,59
 703.680608365 716.828897338 703.680608365 716.828897338 699.840304183 635.414448669 c 128,-1,60
 696 554 696 554 693 531 c 1,61,62
 736 567 736 567 814.5 682 c 128,-1,63
 893 797 893 797 893 838 c 0,64,65
 893 861 893 861 877 873.5 c 128,-1,66
 861 886 861 886 838 886 c 1,56,57
EndSplineSet
EndChar

StartChar: T
Encoding: 84 84 55
Width: 686
Flags: HW
LayerCount: 2
Fore
SplineSet
157.125 730.5 m 0,0,1
 175 730.5 175 730.5 175 688.111111111 c 0,2,3
 175 668.333333333 175 668.333333333 171 649 c 1,4,5
 209 649 209 649 278 640.5 c 128,-1,6
 347 632 347 632 383 632 c 0,7,8
 459 632 459 632 540 669.5 c 128,-1,9
 621 707 621 707 665 765 c 1,10,11
 665 795 665 795 676 834 c 128,-1,12
 687 873 687 873 695 886.5 c 128,-1,13
 703 900 703 900 714 908 c 1,14,15
 730 908 730 908 740 893.5 c 128,-1,16
 750 879 750 879 750.5 856 c 128,-1,17
 751 833 751 833 724 796 c 128,-1,18
 697 759 697 759 694.5 732 c 128,-1,19
 692 705 692 705 677.5 606 c 128,-1,20
 663 507 663 507 653.5 464.5 c 128,-1,21
 644 422 644 422 623 361.5 c 128,-1,22
 602 301 602 301 567.5 236 c 128,-1,23
 533 171 533 171 491 122 c 128,-1,24
 449 73 449 73 391 41 c 128,-1,25
 333 9 333 9 269 9 c 0,26,27
 181 9 181 9 97 69 c 128,-1,28
 13 129 13 129 13 212 c 0,29,30
 13 263 13 263 42 311 c 128,-1,31
 71 359 71 359 114.5 359 c 128,-1,32
 158 359 158 359 158 334 c 1,33,34
 110 334 110 334 75 302.5 c 128,-1,35
 40 271 40 271 40 218 c 0,36,37
 40 145 40 145 114.5 91 c 128,-1,38
 189 37 189 37 265 37 c 0,39,40
 393 37 393 37 487 160 c 1,41,42
 655 397 655 397 657 718 c 1,43,44
 653 715 653 715 623 692 c 128,-1,45
 593 669 593 669 564 650 c 128,-1,46
 535 631 535 631 487.5 617.181818182 c 128,-1,47
 440 603.363636364 440 603.363636364 410.318181818 603.363636364 c 128,-1,48
 380.636363636 603.363636364 380.636363636 603.363636364 360.818181818 604.181818182 c 128,-1,49
 341 605 341 605 297.775 609.275 c 128,-1,50
 254.55 613.55 254.55 613.55 216.6275 613.55 c 128,-1,51
 178.705 613.55 178.705 613.55 146 603 c 1,52,-1
 146 728 l 1,53,54
 152.25 730.5 152.25 730.5 157.125 730.5 c 0,0,1
723 860 m 1,55,56
 714 843 714 843 714 813 c 1,57,58
 724 825 724 825 724 836.5 c 128,-1,59
 724 848 724 848 723 860 c 1,55,56
EndSplineSet
EndChar

StartChar: U
Encoding: 85 85 56
Width: 758
Flags: HW
LayerCount: 2
Fore
SplineSet
190 596 m 1,0,1
 158 576 158 576 122 576 c 0,2,3
 97.75 576 97.75 576 82.875 576 c 128,-1,4
 68 576 68 576 59.5 576.5 c 128,-1,5
 51 577 51 577 44.5 578.5 c 128,-1,6
 38 580 38 580 31.5 582.5 c 0,7,8
 18 587.692307692 18 587.692307692 18 600 c 1,9,-1
 20 606 l 1,10,11
 45 625 45 625 67 625 c 0,12,13
 76 625 76 625 67 606 c 1,14,15
 75 604 75 604 98 604 c 128,-1,16
 121 604 121 604 167 625 c 128,-1,17
 213 646 213 646 237 646 c 1,18,-1
 237 624 l 1,19,-1
 160 189 l 1,20,-1
 160 175 l 2,21,22
 160 130 160 130 184 84 c 128,-1,23
 208 38 208 38 251.5 38 c 128,-1,24
 295 38 295 38 340 102 c 128,-1,25
 385 166 385 166 431.5 292 c 128,-1,26
 478 418 478 418 510 472 c 1,27,-1
 559 661 l 1,28,29
 560 671 560 671 572 671 c 0,30,31
 587 671 587 671 587 648 c 0,32,33
 587 593 587 593 562.5 480.5 c 128,-1,34
 538 368 538 368 538 311 c 0,35,36
 538 56 538 56 708 56 c 0,37,38
 733 56 733 56 747.5 62 c 128,-1,39
 762 68 762 68 784 85 c 1,40,41
 786 85 786 85 790.5 81 c 128,-1,42
 795 77 795 77 795 76 c 0,43,44
 795 28 795 28 705 28 c 0,45,46
 647 28 647 28 606.5 53 c 128,-1,47
 566 78 566 78 547 118.5 c 0,48,49
 507.692307692 202.287449393 507.692307692 202.287449393 507.692307692 294.961538462 c 0,50,51
 507.692307692 302.730769231 507.692307692 302.730769231 508.846153846 331.865384615 c 128,-1,52
 510 361 510 361 510 407 c 1,53,54
 505 386 505 386 461.5 285 c 128,-1,55
 418 184 418 184 409 164.5 c 128,-1,56
 400 145 400 145 387.5 123 c 128,-1,57
 375 101 375 101 353 70.5 c 0,58,59
 308.639344262 9 308.639344262 9 246.819672131 9 c 128,-1,60
 185 9 185 9 157.5 57 c 128,-1,61
 130 105 130 105 130 171 c 1,62,-1
 132 208 l 1,63,-1
 190 558 l 1,64,-1
 190 596 l 1,0,1
EndSplineSet
EndChar

StartChar: V
Encoding: 86 86 57
Width: 514
Flags: HW
LayerCount: 2
Fore
SplineSet
510 832 m 1,0,-1
 515 832 l 2,1,2
 529 832 529 832 529 818 c 2,3,-1
 529 813 l 2,4,5
 529 796 529 796 526.5 766 c 128,-1,6
 524 736 524 736 522.5 713.5 c 128,-1,7
 521 691 521 691 494.5 577 c 128,-1,8
 468 463 468 463 438.5 341.5 c 128,-1,9
 409 220 409 220 385 140.5 c 128,-1,10
 361 61 361 61 346 35.5 c 128,-1,11
 331 10 331 10 311 0 c 1,12,13
 304 6 304 6 283 47 c 1,14,-1
 151 454 l 1,15,-1
 113 661 l 1,16,-1
 109 661 l 1,17,-1
 103 662 l 1,18,19
 86 662 86 662 55.5 656 c 128,-1,20
 25 650 25 650 7 650 c 1,21,22
 7 664 7 664 20 670 c 1,23,24
 27 676 27 676 72 691 c 128,-1,25
 117 706 117 706 123 709 c 1,26,-1
 128 709 l 2,27,28
 138 709 138 709 141.12600171 693.919571306 c 0,29,30
 142 691 142 691 143.5 675 c 128,-1,31
 145 659 145 659 163.5 564 c 128,-1,32
 182 469 182 469 190 445 c 1,33,34
 203 391 203 391 250.5 253 c 128,-1,35
 298 115 298 115 311 85 c 1,36,-1
 321 67 l 1,37,38
 328 67 328 67 331 76 c 1,39,40
 335 82 335 82 350.5 118.5 c 128,-1,41
 366 155 366 155 369 160 c 1,42,43
 463 513 463 513 475 575 c 128,-1,44
 487 637 487 637 501 765 c 0,45,46
 502 770 502 770 499.5 785.5 c 0,47,48
 493.588235294 822.152941176 493.588235294 822.152941176 510 832 c 1,0,-1
EndSplineSet
EndChar

StartChar: W
Encoding: 87 87 58
Width: 897
Flags: HW
LayerCount: 2
Fore
SplineSet
514 198 m 1,0,-1
 475.758786057 452.934974548 l 2,1,2
 476 454 476 454 476 455 c 128,-1,3
 476 456 476 456 475 457 c 0,4,5
 473 459 473 459 467 463 c 1,6,-1
 459 445 l 1,7,8
 433 341 433 341 422.5 302.5 c 0,9,10
 386.072992701 168.934306569 386.072992701 168.934306569 336 67 c 0,11,12
 334 61 334 61 331 59.5 c 128,-1,13
 328 58 328 58 327 57 c 128,-1,14
 326 56 326 56 321.625 56 c 2,15,-1
 311 56 l 2,16,17
 259 56 259 56 231 198 c 0,18,19
 222 243 222 243 222 302 c 2,20,-1
 226 699 l 1,21,-1
 202 699 l 1,22,-1
 80 643 l 1,23,24
 72 643 72 643 56.5 637.5 c 128,-1,25
 41 632 41 632 40 632 c 2,26,-1
 37 632 l 2,27,28
 13 632 13 632 13 647 c 0,29,30
 13 659 13 659 24 661 c 2,31,32
 80 670 l 1,33,34
 91 677 91 677 157 705 c 128,-1,35
 223 733 223 733 231 737 c 1,36,-1
 241 738 l 1,37,38
 260 738 260 738 260 715 c 0,39,40
 260 671 260 671 250 583 c 128,-1,41
 240 495 240 495 240 452 c 1,42,-1
 241 416 l 2,43,44
 241 393 241 393 248.5 307.5 c 128,-1,45
 256 222 256 222 260 198 c 128,-1,46
 264 174 264 174 279 134 c 128,-1,47
 294 94 294 94 311 94 c 0,48,49
 322 94 322 94 326 104 c 2,50,-1
 467 539 l 1,51,-1
 477 548 l 1,52,53
 494 537 494 537 496 520 c 2,54,-1
 544 208 l 1,55,56
 548 160 548 160 590 103 c 128,-1,57
 632 46 632 46 678 46 c 0,58,59
 696 46 696 46 714 61.5 c 128,-1,60
 732 77 732 77 745 102 c 0,61,62
 770.458333333 150.958333333 770.458333333 150.958333333 779 180 c 1,63,64
 811 257 811 257 833.5 352 c 128,-1,65
 856 447 856 447 856 508.5 c 128,-1,66
 856 570 856 570 840.5 626.5 c 128,-1,67
 825 683 825 683 786 729.5 c 128,-1,68
 747 776 747 776 695 776 c 0,69,70
 667 776 667 776 666 775 c 2,71,-1
 647 765 l 2,72,73
 645 765 645 765 641.5 769 c 128,-1,74
 638 773 638 773 639 776.5 c 128,-1,75
 640 780 640 780 642 784.5 c 128,-1,76
 644 789 644 789 647 792 c 128,-1,77
 650 795 650 795 652 797.5 c 128,-1,78
 654 800 654 800 659 801 c 128,-1,79
 664 802 664 802 665.5 803 c 0,80,81
 668.5 805 668.5 805 678.625 805 c 2,82,-1
 697 805 l 2,83,84
 747 805 747 805 784 776.5 c 128,-1,85
 821 748 821 748 840 703 c 128,-1,86
 859 658 859 658 867.5 612.5 c 128,-1,87
 876 567 876 567 876 522 c 128,-1,88
 876 477 876 477 862.5 395.5 c 128,-1,89
 849 314 849 314 826 225.5 c 128,-1,90
 803 137 803 137 763.5 72.5 c 128,-1,91
 724 8 724 8 680 8 c 0,92,93
 617 8 617 8 572 68.5 c 128,-1,94
 527 129 527 129 514 198 c 1,0,-1
EndSplineSet
EndChar

StartChar: X
Encoding: 88 88 59
Width: 817
Flags: HW
LayerCount: 2
Fore
SplineSet
855.933919619 44.0018903592 m 1,0,1
 790.486214339 16.475 790.486214339 16.475 739.72625 16.475 c 0,2,3
 722.525 16.475 722.525 16.475 702.7625 20.7375 c 128,-1,4
 683 25 683 25 651.5 51.5 c 128,-1,5
 620 78 620 78 594.5 106 c 0,6,7
 492.125 218.411764706 492.125 218.411764706 415 291 c 1,8,9
 247.182410423 -46.4592833876 247.182410423 -46.4592833876 203.246545018 -116.482068878 c 128,-1,10
 159.310679612 -186.504854369 159.310679612 -186.504854369 147.628640777 -186.504854369 c 128,-1,11
 135.946601942 -186.504854369 135.946601942 -186.504854369 120 -178 c 1,12,13
 283 76 283 76 381 323 c 1,14,15
 295.054054054 388.891891892 295.054054054 388.891891892 250 479 c 0,16,17
 223.277777778 532.444444444 223.277777778 532.444444444 199.638888889 591.222222222 c 128,-1,18
 176 650 176 650 166 674 c 1,19,-1
 32 616 l 1,20,21
 26.7103825137 622.010928962 26.7103825137 622.010928962 26.7103825137 628.310908059 c 0,22,23
 26.7103825137 648.213114754 26.7103825137 648.213114754 87.8551912568 674.606557377 c 128,-1,24
 149 701 149 701 189 701 c 1,25,26
 200 678 200 678 223.5 616 c 128,-1,27
 247 554 247 554 264.5 515 c 128,-1,28
 282 476 282 476 318 428 c 128,-1,29
 354 380 354 380 399 352 c 1,30,31
 413 389 413 389 445 486.5 c 128,-1,32
 477 584 477 584 507 654 c 128,-1,33
 537 724 537 724 575 779 c 1,34,35
 576.143203433 784.716017166 576.143203433 784.716017166 580.274920416 784.716017166 c 128,-1,36
 584.406637399 784.716017166 584.406637399 784.716017166 593.203318699 775.282372675 c 128,-1,37
 602 765.848728184 602 765.848728184 602 759 c 1,38,39
 438.987277354 352.923664122 438.987277354 352.923664122 435 329 c 1,40,41
 465.648648649 304.189189189 465.648648649 304.189189189 511.324324324 247.094594595 c 128,-1,42
 557 190 557 190 585 157.5 c 0,43,44
 681.112217195 45.9411764706 681.112217195 45.9411764706 766.223183391 45.9411764706 c 0,45,46
 805.041176471 45.9411764706 805.041176471 45.9411764706 844 67 c 1,47,-1
 855.933919619 44.0018903592 l 1,0,1
EndSplineSet
EndChar

StartChar: Y
Encoding: 89 89 60
Width: 598
Flags: HW
LayerCount: 2
Fore
SplineSet
288.513409748 -402.889011212 m 0,0,1
 187.179780348 -402.889011212 187.179780348 -402.889011212 65 -190 c 1,2,3
 34.0060000819 -149.822592699 34.0060000819 -149.822592699 34.0060000819 -104.440380023 c 0,4,5
 34.0060000819 -83.9647627199 34.0060000819 -83.9647627199 43.4381066453 -85.0792417099 c 0,6,7
 62.5897964367 -87.3421673618 62.5897964367 -87.3421673618 94 -176 c 1,8,9
 192.001338628 -365.829364587 192.001338628 -365.829364587 278.016912556 -365.829364587 c 0,10,11
 311.959297944 -365.829364587 311.959297944 -365.829364587 344.035319607 -336.27007913 c 0,12,13
 432.295667933 -254.934779567 432.295667933 -254.934779567 482.54333737 12.938061781 c 0,14,15
 507.576572439 146.391491194 507.576572439 146.391491194 513 278 c 1,16,17
 485.33280982 176.702384342 485.33280982 176.702384342 425.763639388 155.232478567 c 0,18,19
 412.248033669 150.361187273 412.248033669 150.361187273 399.364933713 150.361187273 c 0,20,21
 360.245334905 150.361187273 360.245334905 150.361187273 326.957668998 195.276262565 c 0,22,23
 271.058555221 270.700983272 271.058555221 270.700983272 271.058555221 419.538944621 c 0,24,25
 271.058555221 464.965663345 271.058555221 464.965663345 276 514 c 1,26,27
 265.315216515 511.62560367 265.315216515 511.62560367 221.581130084 484.205732376 c 128,-1,28
 177.847043652 456.785861082 177.847043652 456.785861082 164.753748587 456.785861082 c 0,29,30
 149.193265797 456.785861082 149.193265797 456.785861082 148 472 c 1,31,32
 157.126778915 476.225360609 157.126778915 476.225360609 211.5779082 511.49901101 c 128,-1,33
 266.029037486 546.772661411 266.029037486 546.772661411 281.530936657 546.772661411 c 128,-1,34
 297.032835828 546.772661411 297.032835828 546.772661411 300.117475983 540.328527451 c 128,-1,35
 303.202116137 533.88439349 303.202116137 533.88439349 304 528 c 0,36,37
 307.266666667 400.6 307.266666667 400.6 309.633333333 343.8 c 128,-1,38
 312 287 312 287 334 246 c 128,-1,39
 356 205 356 205 399 191 c 1,40,41
 444 201 444 201 471.5 237.5 c 128,-1,42
 499 274 499 274 509.5 325 c 128,-1,43
 520 376 520 376 525 426.5 c 128,-1,44
 530 477 530 477 535 530.5 c 128,-1,45
 540 584 540 584 550 611 c 1,46,-1
 570 604 l 1,47,48
 558.881783103 139.119556014 558.881783103 139.119556014 476.035365281 -145.317326414 c 0,49,50
 401.013830677 -402.889011212 401.013830677 -402.889011212 288.513409748 -402.889011212 c 0,0,1
EndSplineSet
EndChar

StartChar: Z
Encoding: 90 90 61
Width: 723
Flags: HW
LayerCount: 2
Fore
SplineSet
1105 -13 m 1,0,1
 1109 -25 1109 -25 1111 -25 c 1,2,3
 1031 -132 1031 -132 894 -132 c 0,4,5
 818 -132 818 -132 715 -98 c 128,-1,6
 612 -64 612 -64 527 -24 c 128,-1,7
 442 16 442 16 343.5 50 c 128,-1,8
 245 84 245 84 171.5 84 c 128,-1,9
 98 84 98 84 41 37 c 1,10,11
 15 37 15 37 13 47 c 1,12,13
 47 79 47 79 69 91 c 128,-1,14
 91 103 91 103 146 123 c 1,15,-1
 165 131 l 1,16,-1
 534 416 l 1,17,-1
 619 510 l 1,18,-1
 619 519 l 1,19,20
 590 519 590 519 535.5 504.5 c 128,-1,21
 481 490 481 490 454 490 c 0,22,23
 387 490 387 490 326 520 c 1,24,25
 313 498 313 498 289 492 c 1,26,-1
 289 599 l 1,27,28
 310.333333333 599 310.333333333 599 311.5 588.5 c 0,29,30
 312.844827586 576.396551724 312.844827586 576.396551724 332.422413793 562.698275862 c 128,-1,31
 352 549 352 549 378 540.5 c 128,-1,32
 404 532 404 532 423 530.5 c 128,-1,33
 442 529 442 529 481 529 c 0,34,35
 595 529 595 529 647 567 c 0,36,37
 662 578 662 578 684 609 c 128,-1,38
 706 640 706 640 728 660.5 c 128,-1,39
 750 681 750 681 776 681 c 0,40,41
 791.666666667 681 791.666666667 681 795.333333333 675.5 c 128,-1,42
 799 670 799 670 799 661 c 0,43,44
 799 630.695652174 799 630.695652174 578.5 428 c 0,45,46
 498 354 498 354 487 341 c 1,47,48
 466 327 466 327 231 142 c 1,49,-1
 212 123 l 1,50,51
 215.616438356 123.438356164 215.616438356 123.438356164 219.791330456 123.438356164 c 0,52,53
 278.162403037 123.438356164 278.162403037 123.438356164 489 20.5 c 0,54,55
 574 -21 574 -21 687 -56 c 128,-1,56
 800 -91 800 -91 891 -91 c 0,57,58
 944 -91 944 -91 991 -79 c 1,59,60
 1034.125 -71.5 1034.125 -71.5 1047.5625 -60.75 c 128,-1,61
 1061 -50 1061 -50 1076 -36.5 c 128,-1,62
 1091 -23 1091 -23 1105 -13 c 1,0,1
761 641.695814022 m 128,-1,64
 761 645.391628044 761 645.391628044 758.643627929 645.391628044 c 128,-1,65
 756.287255859 645.391628044 756.287255859 645.391628044 748.288268085 636.428703054 c 128,-1,66
 740.289280311 627.465778065 740.289280311 627.465778065 740.289280311 625.674065503 c 128,-1,67
 740.289280311 623.882352941 740.289280311 623.882352941 743.585816626 623.882352941 c 128,-1,68
 746.882352941 623.882352941 746.882352941 623.882352941 753.941176471 630.941176471 c 128,-1,63
 761 638 761 638 761 641.695814022 c 128,-1,64
EndSplineSet
EndChar

StartChar: bracketleft
Encoding: 91 91 62
Width: 619
Flags: HW
LayerCount: 2
Fore
SplineSet
109 369 m 1,0,-1
 105 58 l 1,1,2
 126 58 126 58 164 71.5 c 128,-1,3
 202 85 202 85 222 85 c 2,4,-1
 604 85 l 1,5,6
 604 38 604 38 586 38 c 0,7,8
 548 38 548 38 471 47.5 c 128,-1,9
 394 57 394 57 368.5 57 c 0,10,11
 328 57 328 57 304 57 c 128,-1,12
 280 57 280 57 263.5 56 c 0,13,14
 233.530612245 54.1836734694 233.530612245 54.1836734694 203 47 c 0,15,16
 200 46 200 46 157 27.5 c 128,-1,17
 114 9 114 9 94 9 c 128,-1,18
 74 9 74 9 71 20 c 1,19,-1
 80 311 l 1,20,-1
 81 348 l 1,21,22
 81 449 81 449 61 520 c 1,23,-1
 42 577 l 1,24,-1
 24 614 l 1,25,26
 24 619 24 619 42 633 c 1,27,-1
 44 633 l 1,28,-1
 46 634 l 1,29,30
 90 634 90 634 174.5 613 c 128,-1,31
 259 592 259 592 311 592 c 1,32,-1
 411 596 l 2,33,34
 412 596 412 596 429.5 602 c 0,35,36
 470.333333333 616 470.333333333 616 490 616 c 1,37,38
 490 553.428571429 490 553.428571429 405.102040816 553.428571429 c 1,39,-1
 332 556 l 2,40,41
 324 556 324 556 301 557 c 2,42,-1
 278 558 l 1,43,44
 190 568 190 568 90 586 c 1,45,-1
 89 572 l 1,46,47
 89 537 89 537 98.5 467 c 128,-1,48
 108 397 108 397 109 369 c 1,0,-1
EndSplineSet
EndChar

StartChar: backslash
Encoding: 92 92 63
Width: 345
Flags: HW
LayerCount: 2
Fore
SplineSet
316 0 m 1,0,-1
 307 9 l 1,1,2
 283 47 283 47 191.5 178.5 c 128,-1,3
 100 310 100 310 65 357 c 0,4,5
 30 404 30 404 13 416 c 1,6,-1
 13 426 l 2,7,8
 13 445 13 445 28 445 c 2,9,-1
 32 445 l 1,10,-1
 61 416 l 1,11,-1
 297 94 l 2,12,13
 303 85 303 85 313.5 78 c 128,-1,14
 324 71 324 71 330 63 c 128,-1,15
 336 55 336 55 336 33.5 c 0,16,17
 336 12 336 12 316 0 c 1,0,-1
EndSplineSet
EndChar

StartChar: bracketright
Encoding: 93 93 64
Width: 439
Flags: HW
LayerCount: 2
Fore
SplineSet
417 28 m 0,0,1
 417 0 417 0 397 0 c 2,2,-1
 123 9 l 1,3,4
 53 14 53 14 53 68 c 1,5,6
 67 68 67 68 88.5 57.5 c 128,-1,7
 110 47 110 47 123 47 c 2,8,-1
 359 47 l 2,9,10
 370 47 370 47 370 70 c 1,11,-1
 311 520 l 1,12,13
 313.56 526.72 313.56 526.72 313.56 536.58 c 128,-1,14
 313.56 546.44 313.56 546.44 302 558 c 0,15,16
 301 558 301 558 215.5 566 c 128,-1,17
 130 574 130 574 111.5 576.5 c 128,-1,18
 93 579 93 579 61.5 586 c 128,-1,19
 30 593 30 593 29 596 c 1,20,-1
 9 614 l 1,21,22
 13 625 13 625 32.5 625 c 128,-1,23
 52 625 52 625 78.5 617 c 128,-1,24
 105 609 105 609 157.104166667 601.479166667 c 128,-1,25
 209.208333333 593.958333333 209.208333333 593.958333333 260.520833333 593.958333333 c 128,-1,26
 311.833333333 593.958333333 311.833333333 593.958333333 341 596 c 1,27,-1
 407 76 l 1,28,29
 417 42 417 42 417 28 c 0,0,1
EndSplineSet
EndChar

StartChar: asciicircum
Encoding: 94 94 65
Width: 298
Flags: HW
LayerCount: 2
Fore
SplineSet
278 423 m 1,0,-1
 279 419 l 1,1,2
 279 410 279 410 272 403 c 128,-1,3
 265 396 265 396 255.5 396 c 128,-1,4
 246 396 246 396 241 407 c 1,5,6
 190 555 190 555 184 567 c 1,7,8
 184 570.6 184 570.6 175 586.8 c 128,-1,9
 166 603 166 603 165 605 c 1,10,11
 133.229508197 584.93442623 133.229508197 584.93442623 94.5 496 c 0,12,13
 59.2258064516 415 59.2258064516 415 28 415 c 0,14,15
 17 415 17 415 13 425 c 1,16,17
 19 436 19 436 47.5 493 c 2,18,-1
 80 558 l 2,19,20
 82 561 82 561 103 595 c 128,-1,21
 124 629 124 629 127 633 c 2,22,-1
 132 642.5 l 2,23,24
 146.879518072 670.771084337 146.879518072 670.771084337 151.939759036 674.385542169 c 128,-1,25
 157 678 157 678 162 683 c 0,26,27
 170 691 170 691 181.5 691 c 128,-1,28
 193 691 193 691 193 689 c 0,29,30
 193 634 193 634 242.5 506.5 c 0,31,32
 259 464 259 464 260 463 c 2,33,-1
 278 425 l 1,34,-1
 278 423 l 1,0,-1
EndSplineSet
EndChar

StartChar: underscore
Encoding: 95 95 66
Width: 449
Flags: HW
LayerCount: 2
Fore
SplineSet
311 38 m 1,0,-1
 418 39 l 1,1,2
 418 33 418 33 414 21 c 128,-1,3
 410 9 410 9 407 9 c 2,4,-1
 20 9 l 1,5,-1
 20 28 l 1,6,-1
 311 38 l 1,0,-1
EndSplineSet
EndChar

StartChar: grave
Encoding: 96 96 67
Width: 166
Flags: HW
LayerCount: 2
Fore
SplineSet
56 538.5 m 128,-1,1
 50 548 50 548 41.1955459879 562.880883777 c 128,-1,2
 32.3910919759 577.761767554 32.3910919759 577.761767554 32.3910919759 592.320356414 c 128,-1,3
 32.3910919759 606.878945274 32.3910919759 606.878945274 43.6907104241 606.878945274 c 128,-1,4
 54.9903288724 606.878945274 54.9903288724 606.878945274 67.6788669381 590.026142008 c 128,-1,5
 80.3674050039 573.173338741 80.3674050039 573.173338741 87.6837025019 557.586669371 c 128,-1,6
 95 542 95 542 107.5 526 c 128,-1,7
 120 510 120 510 123 503.25 c 128,-1,8
 126 496.5 126 496.5 126 494.5 c 0,9,10
 126 486.5 126 486.5 121 484 c 1,11,12
 114 485 114 485 108 488 c 128,-1,13
 102 491 102 491 97.5 493 c 128,-1,14
 93 495 93 495 87.5 500.5 c 2,15,-1
 79.5 508.5 l 2,16,17
 77 511 77 511 71 518.5 c 128,-1,18
 65 526 65 526 63.5 527.5 c 128,-1,0
 62 529 62 529 56 538.5 c 128,-1,1
EndSplineSet
EndChar

StartChar: a
Encoding: 97 97 68
Width: 401
Flags: HW
LayerCount: 2
Fore
SplineSet
251 254 m 1,0,1
 221.578947368 180.447368421 221.578947368 180.447368421 221.578947368 116.397506925 c 0,2,3
 221.578947368 10 221.578947368 10 337 10 c 1,4,5
 366 14 366 14 380.5 22 c 128,-1,6
 395 30 395 30 412 49.5 c 128,-1,7
 429 69 429 69 445 82 c 1,8,-1
 450 82 l 1,9,10
 445 26 445 26 411.5 6.5 c 128,-1,11
 378 -13 378 -13 320 -13 c 0,12,13
 195 -13 195 -13 185 92 c 1,14,15
 180 66 180 66 139.615384615 31.3846153846 c 128,-1,16
 99.2307692308 -3.23076923077 99.2307692308 -3.23076923077 67.2781065089 -3.23076923077 c 0,17,18
 64.6153846154 -3.23076923077 64.6153846154 -3.23076923077 62 -3 c 0,19,20
 0.174663314343 14.4565656524 0.174663314343 14.4565656524 0.174663314343 70.6774794614 c 0,21,22
 0.174663314343 145.207263963 0.174663314343 145.207263963 76.9713303577 215.063400954 c 0,23,24
 136.942688831 269.614823487 136.942688831 269.614823487 193.917690126 269.614823487 c 0,25,26
 225.648874809 269.614823487 225.648874809 269.614823487 251 254 c 1,0,1
31 76 m 1,27,28
 31 60 31 60 32.5 50.5 c 128,-1,29
 34 41 34 41 42.5 33 c 128,-1,30
 51 25 51 25 67 25 c 0,31,32
 111 27 111 27 155.5 95.5 c 128,-1,33
 200 164 200 164 203 213 c 1,34,35
 186.836734694 232.755102041 186.836734694 232.755102041 159.38483965 232.755102041 c 0,36,37
 123.352671406 232.755102041 123.352671406 232.755102041 84.1763357028 186.87755102 c 128,-1,38
 45 141 45 141 31 76 c 1,27,28
EndSplineSet
EndChar

StartChar: b
Encoding: 98 98 69
Width: 270
Flags: HW
LayerCount: 2
Fore
SplineSet
279 193 m 1,0,-1
 193 184 l 1,1,2
 191 170 191 170 160 94 c 1,3,4
 150 62 150 62 128 35 c 128,-1,5
 106 8 106 8 77 8 c 0,6,7
 72.7575757576 7.51515151515 72.7575757576 7.51515151515 68.7502295684 7.51515151515 c 0,8,9
 39.696969697 7.51515151515 39.696969697 7.51515151515 21.8484848485 34.7575757576 c 128,-1,10
 4 62 4 62 4 104.5 c 128,-1,11
 4 147 4 147 13 192 c 1,12,13
 30 383 30 383 52.5 486 c 128,-1,14
 75 589 75 589 96 616.5 c 128,-1,15
 117 644 117 644 149 644 c 1,16,17
 226.696409602 633.697713644 226.696409602 633.697713644 226.696409602 561.711854518 c 0,18,19
 226.696409602 530.995676196 226.696409602 530.995676196 212.550172714 489.048728821 c 0,20,21
 177.214774713 384.270893402 177.214774713 384.270893402 84.4149075845 272.266674052 c 1,22,-1
 49 233 l 1,23,24
 34.8055555556 142.671717172 34.8055555556 142.671717172 34.8055555556 110.974747475 c 128,-1,25
 34.8055555556 79.2777777778 34.8055555556 79.2777777778 40.4027777778 64.6388888889 c 128,-1,26
 46 50 46 50 55 47 c 128,-1,27
 64 44 64 44 84 46 c 1,28,29
 123 52 123 52 146.5 122 c 0,30,31
 161.226666667 165.866666667 161.226666667 165.866666667 161.226666667 188.333333333 c 128,-1,32
 161.226666667 210.8 161.226666667 210.8 156 222 c 1,33,-1
 237.666666667 220.666666667 l 2,34,35
 259 220.666666667 259 220.666666667 269 222 c 2,36,-1
 292.5 223 l 2,37,38
 300.8 223 300.8 223 300.8 220.08 c 0,39,40
 300.8 214.8 300.8 214.8 279 193 c 1,0,-1
157 608 m 1,41,42
 113 595 113 595 83.2746478873 481.288732394 c 128,-1,43
 53.5492957746 367.577464789 53.5492957746 367.577464789 53.5492957746 309.076572109 c 0,44,45
 53.5492957746 301.647887324 53.5492957746 301.647887324 54 295 c 1,46,47
 92 315 92 315 145 411 c 128,-1,48
 198 507 198 507 198 553 c 0,49,50
 198 572 198 572 196.5 581.5 c 128,-1,51
 195 591 195 591 185.5 599.5 c 128,-1,52
 176 608 176 608 157 608 c 1,41,42
EndSplineSet
EndChar

StartChar: c
Encoding: 99 99 70
Width: 334
Flags: HW
LayerCount: 2
Fore
SplineSet
96.3348408945 34.6116941489 m 0,0,1
 130.020085523 34.6116941489 130.020085523 34.6116941489 166.234524806 44.9787662618 c 128,-1,2
 202.448964088 55.3458383746 202.448964088 55.3458383746 256.438645144 73.0340758157 c 128,-1,3
 310.4283262 90.7223132568 310.4283262 90.7223132568 328.439888688 90.7223132568 c 128,-1,4
 346.451451176 90.7223132568 346.451451176 90.7223132568 346.451451176 80.5414014284 c 0,5,6
 346.451451176 76.1657711394 346.451451176 76.1657711394 344 70 c 1,7,8
 192.075594899 1.38081036285 192.075594899 1.38081036285 107.016313895 1.38081036285 c 0,9,10
 58.8757962299 1.38081036285 58.8757962299 1.38081036285 32.4422326357 23.1228905868 c 128,-1,11
 6.00866904153 44.8649708108 6.00866904153 44.8649708108 6.00866904153 74.5387337676 c 128,-1,12
 6.00866904153 104.212496724 6.00866904153 104.212496724 17.1582713499 133.797994764 c 0,13,14
 42.3742730394 200.708719282 42.3742730394 200.708719282 98.390457329 237.418568625 c 0,15,16
 130.959687206 258.762605838 130.959687206 258.762605838 159.477982163 258.762605838 c 0,17,18
 207.830082185 258.762605838 207.830082185 258.762605838 241 202 c 1,19,-1
 241 199 l 1,20,-1
 223 181 l 1,21,22
 202.293603565 225.725816299 202.293603565 225.725816299 165.16486772 225.725816299 c 0,23,24
 152.449863536 225.725816299 152.449863536 225.725816299 137.808897355 220.480508655 c 0,25,26
 88.8371064043 202.935757424 88.8371064043 202.935757424 57.6620468012 144.739424361 c 0,27,28
 37 106.168355926 37 106.168355926 37 67 c 1,29,30
 46.6862223106 34.6116941489 46.6862223106 34.6116941489 96.3348408945 34.6116941489 c 0,0,1
EndSplineSet
EndChar

StartChar: d
Encoding: 100 100 71
Width: 416
Flags: HW
LayerCount: 2
Fore
SplineSet
3 78 m 1,0,1
 23 144 23 144 46.5 184 c 128,-1,2
 70 224 70 224 103 241.5 c 128,-1,3
 136 259 136 259 163 263.5 c 128,-1,4
 190 268 190 268 238 268 c 1,5,6
 241 280 241 280 248 315.5 c 128,-1,7
 255 351 255 351 258.5 363.5 c 128,-1,8
 262 376 262 376 269 401.5 c 0,9,10
 280.882562278 444.786476868 280.882562278 444.786476868 293.441281139 467.393238434 c 128,-1,11
 306 490 306 490 309 496 c 128,-1,12
 312 502 312 502 313.5 504.5 c 128,-1,13
 315 507 315 507 317.5 509.5 c 0,14,15
 322 514 322 514 331 514 c 0,16,17
 362.058960468 514 362.058960468 514 362.058960468 448.279455563 c 2,18,-1
 362 439 l 2,19,20
 362 387 362 387 318 295.5 c 128,-1,21
 274 204 274 204 274 156 c 0,22,23
 274 49 274 49 332 49 c 0,24,25
 351 49 351 49 384 64 c 128,-1,26
 417 79 417 79 436 79 c 1,27,-1
 446 78 l 1,28,29
 429 52 429 52 395.5 37 c 128,-1,30
 362 22 362 22 340.5 22 c 128,-1,31
 319 22 319 22 311 23 c 128,-1,32
 303 24 303 24 296 27.5 c 128,-1,33
 289 31 289 31 284.5 33 c 128,-1,34
 280 35 280 35 274.5 42.5 c 128,-1,35
 269 50 269 50 266.5 53 c 128,-1,36
 264 56 264 56 259 67 c 128,-1,37
 254 78 254 78 252.5 81 c 128,-1,38
 251 84 251 84 245.5 98 c 128,-1,39
 240 112 240 112 238 116 c 1,40,41
 235 113 235 113 215 91.5 c 128,-1,42
 195 70 195 70 187 62.5 c 128,-1,43
 179 55 179 55 159.5 38 c 128,-1,44
 140 21 140 21 127 14 c 0,45,46
 89.8571428571 -6 89.8571428571 -6 61.4285714286 -6 c 128,-1,47
 33 -6 33 -6 20.5 7.5 c 128,-1,48
 8 21 8 21 5.5 36.5 c 128,-1,49
 3 52 3 52 3 78 c 1,0,1
83.5 179 m 128,-1,51
 39 127 39 127 39 74.5 c 128,-1,52
 39 22 39 22 67 22 c 0,53,54
 106 22 106 22 167.5 81.5 c 128,-1,55
 229 141 229 141 229 183 c 0,56,57
 229 208 229 208 218.5 219.5 c 128,-1,58
 208 231 208 231 184 231 c 0,59,50
 128 231 128 231 83.5 179 c 128,-1,51
333 466 m 1,60,61
 307 430 307 430 290.5 369.5 c 128,-1,62
 274 309 274 309 274 268 c 0,63,64
 274 266 274 266 275 259 c 1,65,-1
 284 268 l 2,66,67
 296 280 296 280 333 410 c 1,68,-1
 333.5 422 l 2,69,70
 334 434 334 434 334 437 c 128,-1,71
 334 440 334 440 333.5 452 c 128,-1,72
 333 464 333 464 333 466 c 1,60,61
EndSplineSet
EndChar

StartChar: e
Encoding: 101 101 72
Width: 326
Flags: HW
LayerCount: 2
Fore
SplineSet
0 105 m 1,0,1
 -0.705882352941 113.588235294 -0.705882352941 113.588235294 -0.705882352941 122.162629758 c 0,2,3
 -0.705882352941 186.470588235 -0.705882352941 186.470588235 41.6470588235 254.235294118 c 128,-1,4
 84 322 84 322 151 322 c 0,5,6
 164 322 164 322 172 314.5 c 128,-1,7
 180 307 180 307 180 289.5 c 128,-1,8
 180 272 180 272 170.5 248.5 c 128,-1,9
 161 225 161 225 141.5 201 c 128,-1,10
 122 177 122 177 108 162 c 128,-1,11
 94 147 94 147 68.5 123 c 128,-1,12
 43 99 43 99 38 94 c 1,13,14
 37 86 37 86 37 85 c 0,15,16
 37 58 37 58 63 43 c 128,-1,17
 89 28 89 28 117 28 c 0,18,19
 184 28 184 28 223.5 52 c 128,-1,20
 263 76 263 76 315 133 c 0,21,22
 323 143 323 143 324.5 149 c 128,-1,23
 326 155 326 155 335 162 c 1,24,25
 345 158 345 158 345 143 c 1,26,27
 335 112 335 112 305 76.5 c 128,-1,28
 275 41 275 41 233.5 16.5 c 0,29,30
 176.755102041 -17 176.755102041 -17 137.27755102 -17 c 128,-1,31
 97.8 -17 97.8 -17 60.9 10 c 128,-1,32
 24 37 24 37 0 105 c 1,0,1
153 285 m 1,33,34
 110 285 110 285 73 239 c 128,-1,35
 36 193 36 193 36 151 c 0,36,37
 36 137 36 137 38 131 c 1,38,39
 75 151 75 151 114 199.5 c 128,-1,40
 153 248 153 248 153 285 c 1,33,34
EndSplineSet
EndChar

StartChar: f
Encoding: 102 102 73
Width: 324
Flags: HW
LayerCount: 2
Fore
SplineSet
-32 -239 m 0,0,1
 -32 -171 -32 -171 -25 -121.5 c 128,-1,2
 -18 -72 -18 -72 5 13 c 1,3,-1
 148 364 l 1,4,5
 151.572173194 364.338740562 151.572173194 364.338740562 154.872023229 364.338740562 c 0,6,7
 194.857642747 364.338740562 194.857642747 364.338740562 194.857642747 314.600953944 c 0,8,9
 194.857642747 244.035733029 194.857642747 244.035733029 132.768862695 137.545720354 c 0,10,11
 95.3139105436 73.3057992913 95.3139105436 73.3057992913 64 51 c 1,12,13
 75 3 75 3 145 3 c 0,14,15
 233 3 233 3 319 61 c 0,16,17
 328 67 328 67 334.5 75.5 c 128,-1,18
 341 84 341 84 346 88 c 128,-1,19
 351 92 351 92 362 92 c 1,20,21
 362 60 362 60 312 29.5 c 128,-1,22
 262 -1 262 -1 208.5 -17 c 128,-1,23
 155 -33 155 -33 122 -35 c 1,24,25
 122 -53 122 -53 131 -87.5 c 128,-1,26
 140 -122 140 -122 140 -147.5 c 0,27,28
 140 -173 140 -173 126.5 -228 c 128,-1,29
 113 -283 113 -283 84.5 -333.5 c 128,-1,30
 56 -384 56 -384 22 -384 c 0,31,32
 -32 -384 -32 -384 -32 -239 c 0,0,1
-4 -228 m 0,33,34
 -4 -347 -4 -347 31 -347 c 0,35,36
 57 -347 57 -347 84.5 -261.5 c 128,-1,37
 112 -176 112 -176 112 -132.5 c 0,38,39
 112 -89 112 -89 99 -60.5 c 128,-1,40
 86 -32 86 -32 44 -14 c 1,41,42
 19 -30 19 -30 7.5 -100 c 128,-1,43
 -4 -170 -4 -170 -4 -228 c 0,33,34
92 147 m 1,44,-1
 92 137 l 1,45,46
 119 168 119 168 139 212 c 128,-1,47
 159 256 159 256 159 292 c 0,48,49
 159 294 159 294 158.5 300 c 128,-1,50
 158 306 158 306 158 307 c 2,51,-1
 148 298 l 1,52,-1
 92 147 l 1,44,-1
EndSplineSet
EndChar

StartChar: g
Encoding: 103 103 74
Width: 396
Flags: HW
LayerCount: 2
Fore
SplineSet
235 213 m 1,0,-1
 227 7 l 2,1,2
 227 6 227 6 227.5 -2 c 128,-1,3
 228 -10 228 -10 228 -12 c 1,4,5
 258 0 258 0 317 34.5 c 128,-1,6
 376 69 376 69 426 83 c 1,7,8
 436 77 436 77 436 68 c 0,9,10
 436 66 436 66 389.5 43.5 c 0,11,12
 245.736389685 -26.0630372493 245.736389685 -26.0630372493 218 -59 c 1,13,14
 203 -213 203 -213 193.5 -259 c 128,-1,15
 184 -305 184 -305 181.5 -317.5 c 128,-1,16
 179 -330 179 -330 170 -354 c 128,-1,17
 161 -378 161 -378 151 -389 c 0,18,19
 123.727272727 -419 123.727272727 -419 88.8636363636 -419 c 128,-1,20
 54 -419 54 -419 20.5 -405.5 c 128,-1,21
 -13 -392 -13 -392 -28 -371 c 1,22,23
 -30 -361 -30 -361 -30 -338 c 0,24,25
 -30 -264 -30 -264 49 -168 c 1,26,27
 55 -163 55 -163 86 -138 c 0,28,29
 168.666666667 -71.3333333333 168.666666667 -71.3333333333 181 -59 c 1,30,31
 191 -42 191 -42 191 7 c 0,32,33
 191 10 191 10 190.5 26 c 128,-1,34
 190 42 190 42 190 45 c 1,35,36
 118 -3 118 -3 70 -3 c 1,37,38
 27.6124466701 -1.07329303046 27.6124466701 -1.07329303046 9.415250944 43.735782912 c 0,39,40
 1.17212385766 64.0337954835 1.17212385766 64.0337954835 1.17212385766 92.5912264301 c 128,-1,41
 1.17212385766 121.148657377 1.17212385766 121.148657377 27.2892262598 158.501106038 c 0,42,43
 69.3232853371 218.617845237 69.3232853371 218.617845237 166 247 c 1,44,45
 235 247 235 247 235 213 c 1,0,-1
0 -334 m 0,46,47
 0 -359 0 -359 28 -374.5 c 128,-1,48
 56 -390 56 -390 85.5 -390 c 128,-1,49
 115 -390 115 -390 136.5 -354.5 c 128,-1,50
 158 -319 158 -319 166.5 -266.5 c 0,51,52
 181 -176.941176471 181 -176.941176471 181 -120 c 2,53,-1
 181 -97 l 1,54,55
 115 -140 115 -140 57.5 -206.5 c 128,-1,56
 0 -273 0 -273 0 -334 c 0,46,47
38 49 m 1,57,58
 38 25 38 25 74 25 c 1,59,60
 135 27 135 27 168.12 73.08 c 128,-1,61
 201.24 119.16 201.24 119.16 201.24 153.1632 c 0,62,63
 201.24 156.12 201.24 156.12 201 159 c 2,64,-1
 201 169 l 2,65,66
 201 191 201 191 191 204.5 c 128,-1,67
 181 218 181 218 163 218 c 0,68,69
 158.555555556 218.533333333 158.555555556 218.533333333 154.146666667 218.533333333 c 0,70,71
 108.955555556 218.533333333 108.955555556 218.533333333 71.3964769648 167.766666667 c 128,-1,72
 33.837398374 117 33.837398374 117 33.837398374 76.6999140723 c 0,73,74
 33.837398374 62.5284552846 33.837398374 62.5284552846 38 49 c 1,57,58
EndSplineSet
EndChar

StartChar: h
Encoding: 104 104 75
Width: 404
Flags: HW
LayerCount: 2
Fore
SplineSet
400.901020952 46.0897125753 m 0,0,1
 346.821754237 7 346.821754237 7 283 7 c 0,2,3
 250 7 250 7 229.5 27 c 128,-1,4
 209 47 209 47 204 77.5 c 128,-1,5
 199 108 199 108 197.6 132.5 c 128,-1,6
 196.2 157 196.2 157 196.2 173.5 c 128,-1,7
 196.2 190 196.2 190 198 208 c 1,8,9
 195 219 195 219 170.5 219 c 128,-1,10
 146 219 146 219 123 194 c 128,-1,11
 100 169 100 169 85.5 134.5 c 128,-1,12
 71 100 71 100 57.5 66 c 128,-1,13
 44 32 44 32 31.8490566038 15.0754716981 c 128,-1,14
 19.6981132075 -1.84905660377 19.6981132075 -1.84905660377 11.9622641509 -1.84905660377 c 128,-1,15
 4.22641509434 -1.84905660377 4.22641509434 -1.84905660377 0 0 c 1,16,17
 -0.878048780488 5.85365853659 -0.878048780488 5.85365853659 -0.878048780488 14.3735871505 c 0,18,19
 -0.878048780488 64.0731707317 -0.878048780488 64.0731707317 34.2693089431 229.265752033 c 128,-1,20
 69.4166666667 394.458333333 69.4166666667 394.458333333 103 512 c 0,21,22
 105 519 105 519 114.5 542.5 c 128,-1,23
 124 566 124 566 135 576.5 c 128,-1,24
 146 587 146 587 158 587 c 128,-1,25
 170 587 170 587 177 582 c 1,26,-1
 177 584 l 1,27,28
 187 577 187 577 193 550 c 128,-1,29
 199 523 199 523 199 507 c 0,30,31
 199 413.4 199 413.4 150 335 c 0,32,33
 130 303 130 303 110 275 c 128,-1,34
 90 247 90 247 78.3620689655 221.862068966 c 128,-1,35
 66.724137931 196.724137931 66.724137931 196.724137931 66.724137931 184.948275862 c 128,-1,36
 66.724137931 173.172413793 66.724137931 173.172413793 67 170 c 1,37,38
 122 247 122 247 184 247 c 0,39,40
 206.222222222 247 206.222222222 247 216 241.5 c 0,41,42
 224 237 224 237 226 228.5 c 128,-1,43
 228 220 228 220 228.5 185.5 c 128,-1,44
 229 151 229 151 231.5 126.5 c 128,-1,45
 234 102 234 102 240 74.5 c 128,-1,46
 246 47 246 47 256.585365854 39.0609756098 c 128,-1,47
 267.170731707 31.1219512195 267.170731707 31.1219512195 275.963414634 31.1219512195 c 128,-1,48
 284.756097561 31.1219512195 284.756097561 31.1219512195 295 36 c 0,49,50
 382.861681216 79.1533036062 382.861681216 79.1533036062 411.364759051 79.1533036062 c 0,51,52
 424.39669775 79.1533036062 424.39669775 79.1533036062 424.39669775 71.1131104053 c 128,-1,53
 424.39669775 63.0729172043 424.39669775 63.0729172043 400.901020952 46.0897125753 c 0,0,1
131 500 m 1,54,55
 94 357 94 357 93.5 337.5 c 128,-1,56
 93 318 93 318 93 316 c 2,57,-1
 94 302 l 1,58,59
 140.931472991 320.652252086 140.931472991 320.652252086 161.33525578 467.837566555 c 0,60,61
 167.251511299 510.515237556 167.251511299 510.515237556 167.251511299 537.545181949 c 128,-1,62
 167.251511299 564.575126342 167.251511299 564.575126342 158.220843867 564.575126342 c 128,-1,63
 149.190176434 564.575126342 149.190176434 564.575126342 131 500 c 1,54,55
EndSplineSet
EndChar

StartChar: i
Encoding: 105 105 76
Width: 207
Flags: HW
LayerCount: 2
Fore
SplineSet
13 214 m 1,0,-1
 17 227 l 2,1,2
 36.6923076923 291 36.6923076923 291 51 291 c 0,3,4
 70.5925925926 291 70.5925925926 291 70.5925925926 275.761316872 c 0,5,6
 70.5925925926 273.111111111 70.5925925926 273.111111111 70 270 c 0,7,8
 32 177 32 177 32 93 c 0,9,10
 32 55 32 55 51 29.5 c 128,-1,11
 70 4 70 4 109 4 c 1,12,13
 207.019381125 42.4178526755 207.019381125 42.4178526755 231.699639876 42.4178526755 c 0,14,15
 240.005100213 42.4178526755 240.005100213 42.4178526755 240.005100213 38.0671331511 c 0,16,17
 240.005100213 26.3266070772 240.005100213 26.3266070772 187.773529528 3.4476333836 c 128,-1,18
 135.541958844 -19.43134031 135.541958844 -19.43134031 106.09849928 -19.43134031 c 128,-1,19
 76.6550397171 -19.43134031 76.6550397171 -19.43134031 61.8275198585 -14.715670155 c 128,-1,20
 47 -10 47 -10 40 -6 c 128,-1,21
 33 -2 33 -2 23 11.5 c 128,-1,22
 13 25 13 25 10 47.5 c 128,-1,23
 7 70 7 70 7 112 c 128,-1,24
 7 154 7 154 13 214 c 1,0,-1
118 433 m 1,25,-1
 118 433 l 1,25,-1
EndSplineSet
EndChar

StartChar: j
Encoding: 106 106 77
Width: 132
Flags: HW
LayerCount: 2
Fore
SplineSet
-218 -257 m 0,0,1
 -218 -217 -218 -217 -193.5 -176 c 128,-1,2
 -169 -135 -169 -135 -134 -104 c 128,-1,3
 -99 -73 -99 -73 -64 -47 c 128,-1,4
 -29 -21 -29 -21 -4.5 -2.5 c 128,-1,5
 20 16 20 16 20 23 c 2,6,-1
 20 126 l 1,7,8
 25.4030567601 205.695087212 25.4030567601 205.695087212 45.4626830968 205.695087212 c 0,9,10
 57.9459278436 205.695087212 57.9459278436 205.695087212 60.2468088922 184.5037581 c 0,11,12
 60.7845981229 179.550669113 60.7845981229 179.550669113 60 175 c 2,13,-1
 58 41 l 1,14,15
 62 45 62 45 172 136 c 1,16,17
 187.859812635 144.458566739 187.859812635 144.458566739 193.625443884 140.115671036 c 128,-1,18
 199.391075133 135.772775334 199.391075133 135.772775334 199.391075133 132.253097477 c 0,19,20
 199.391075133 107.565053667 199.391075133 107.565053667 67 13 c 1,21,-1
 58 4 l 1,22,23
 55.6956521739 4 55.6956521739 4 52.347826087 -34.5 c 128,-1,24
 49 -73 49 -73 48 -81 c 0,25,26
 40.1897206186 -231.347878093 40.1897206186 -231.347878093 24.6977592593 -297.878152778 c 0,27,28
 -8.62899517446 -441 -8.62899517446 -441 -88 -441 c 0,29,30
 -149 -441 -149 -441 -183.5 -381.5 c 128,-1,31
 -218 -322 -218 -322 -218 -257 c 0,0,1
-198 -266 m 0,32,33
 -198 -308 -198 -308 -168 -360 c 128,-1,34
 -138 -412 -138 -412 -98 -412 c 128,-1,35
 -58 -412 -58 -412 -33 -373.5 c 128,-1,36
 -8 -335 -8 -335 3 -277.5 c 0,37,38
 22 -178.181818182 22 -178.181818182 22 -105 c 0,39,40
 22 -99 22 -99 21 -60.5 c 128,-1,41
 20 -22 20 -22 20 -14 c 1,42,43
 -49.2962962963 -50.5730452675 -49.2962962963 -50.5730452675 -119 -113.5 c 0,44,45
 -198 -184.819444444 -198 -184.819444444 -198 -266 c 0,32,33
85 426 m 1,46,-1
 85 426 l 1,46,-1
EndSplineSet
EndChar

StartChar: k
Encoding: 107 107 78
Width: 375
Flags: HW
LayerCount: 2
Fore
SplineSet
3 -6 m 1,0,-1
 60 303 l 1,1,-1
 127 585 l 1,2,3
 152.139725473 604.856739685 152.139725473 604.856739685 167.508005771 604.856739685 c 0,4,5
 191.678845917 604.856739685 191.678845917 604.856739685 191.678845917 555.738715466 c 0,6,7
 191.678845917 457.257111618 191.678845917 457.257111618 115.989065377 263.170407828 c 0,8,9
 88.1839261836 192.159589527 88.1839261836 192.159589527 61 140 c 1,10,11
 69 148 69 148 93.5 175 c 128,-1,12
 118 202 118 202 129.5 213 c 128,-1,13
 141 224 141 224 164.5 244.5 c 128,-1,14
 188 265 188 265 205.5 274.5 c 0,15,16
 250.920454545 299.156818182 250.920454545 299.156818182 297 301 c 1,17,18
 330.61721423 290.349001432 330.61721423 290.349001432 330.61721423 264.816977427 c 128,-1,19
 330.61721423 239.284953421 330.61721423 239.284953421 282.312634243 191.565285002 c 128,-1,20
 234.008054256 143.845616583 234.008054256 143.845616583 175 112 c 1,21,22
 201 75 201 75 246 50.5 c 128,-1,23
 291 26 291 26 334 26 c 128,-1,24
 377 26 377 26 391 45 c 1,25,26
 393 45 393 45 396.5 41.5 c 128,-1,27
 400 38 400 38 400 36 c 0,28,29
 400 16 400 16 378.916666667 2.25 c 128,-1,30
 357.833333333 -11.5 357.833333333 -11.5 348.416666667 -11.5 c 128,-1,31
 339 -11.5 339 -11.5 336 -11 c 0,32,33
 297 -8 297 -8 252.5 19 c 128,-1,34
 208 46 208 46 168.5 70.5 c 128,-1,35
 129 95 129 95 103.5 95 c 128,-1,36
 78 95 78 95 70 93 c 1,37,38
 63 82 63 82 55.5 54 c 128,-1,39
 48 26 48 26 37 10 c 128,-1,40
 26 -6 26 -6 3 -6 c 1,0,-1
108 149 m 1,41,42
 125.422222222 140.466666667 125.422222222 140.466666667 152.322222222 140.466666667 c 128,-1,43
 179.222222222 140.466666667 179.222222222 140.466666667 219.5 168.5 c 0,44,45
 282 212 282 212 291 269 c 1,46,47
 219 269 219 269 108 149 c 1,41,42
146 546 m 1,48,-1
 70 235 l 1,49,50
 74 244 74 244 86 266.5 c 128,-1,51
 98 289 98 289 102 297.5 c 128,-1,52
 106 306 106 306 115 325.5 c 128,-1,53
 124 345 124 345 128.5 359 c 128,-1,54
 133 373 133 373 140 395 c 0,55,56
 152.435294118 434.082352941 152.435294118 434.082352941 165 499 c 1,57,58
 165 547.65578885 165 547.65578885 151.809461869 547.65578885 c 0,59,60
 149.161051441 547.65578885 149.161051441 547.65578885 146 546 c 1,48,-1
EndSplineSet
EndChar

StartChar: l
Encoding: 108 108 79
Width: 233
Flags: HW
LayerCount: 2
Fore
SplineSet
4 116 m 1,0,1
 8 228 8 228 68 388 c 128,-1,2
 128 548 128 548 169 562 c 1,3,4
 181 562 181 562 186 539 c 128,-1,5
 191 516 191 516 191 501 c 0,6,7
 191 447 191 447 168 373.5 c 128,-1,8
 145 300 145 300 114 255 c 1,9,10
 102 235 102 235 81.5 213 c 128,-1,11
 61 191 61 191 50.5 172.5 c 128,-1,12
 40 154 40 154 40 126 c 0,13,14
 40 76 40 76 67.5 44 c 128,-1,15
 95 12 95 12 145 12 c 0,16,17
 228 12 228 12 250 69 c 1,18,-1
 261 69 l 1,19,20
 261 30 261 30 222 7 c 128,-1,21
 183 -16 183 -16 134 -16 c 0,22,23
 85 -16 85 -16 50 21.5 c 128,-1,24
 15 59 15 59 4 116 c 1,0,1
165 495 m 1,25,26
 157 486 157 486 138.5 453 c 128,-1,27
 120 420 120 420 117 410 c 0,28,29
 50 235 50 235 50 221 c 1,30,31
 92 250 92 250 128 342.5 c 128,-1,32
 164 435 164 435 165 495 c 1,25,26
EndSplineSet
EndChar

StartChar: m
Encoding: 109 109 80
Width: 706
Flags: HW
LayerCount: 2
Fore
SplineSet
732 67 m 1,0,1
 733 63 733 63 733 61 c 0,2,3
 733 37 733 37 668.5 18 c 128,-1,4
 604 -1 604 -1 571 -1 c 0,5,6
 447 -1 447 -1 447 116 c 0,7,8
 447 147 447 147 462 205 c 128,-1,9
 477 263 477 263 477 293 c 1,10,11
 414 273 414 273 346 186.5 c 128,-1,12
 278 100 278 100 239 12 c 1,13,14
 233 6 233 6 223 3 c 128,-1,15
 213 0 213 0 208.608108108 4.72972972973 c 128,-1,16
 204.216216216 9.45945945946 204.216216216 9.45945945946 204.216216216 17.527027027 c 128,-1,17
 204.216216216 25.5945945946 204.216216216 25.5945945946 212 47 c 1,18,-1
 274 255 l 1,19,20
 269.420157561 262.592896676 269.420157561 262.592896676 261.1427458 262.592896676 c 0,21,22
 234.567324976 262.592896676 234.567324976 262.592896676 169.877642948 184.325899619 c 0,23,24
 153.172514253 164.114635359 153.172514253 164.114635359 95.5605294465 90.3508279143 c 0,25,26
 24.9935304614 0 24.9935304614 0 4 0 c 0,27,28
 2 0 2 0 -2 3.5 c 128,-1,29
 -6 7 -6 7 -5 9 c 2,30,-1
 67 197 l 1,31,-1
 113 328 l 1,32,33
 118.130569192 329.585812296 118.130569192 329.585812296 122.171087066 329.585812296 c 0,34,35
 137.148166038 329.585812296 137.148166038 329.585812296 137.148166038 312.681160467 c 128,-1,36
 137.148166038 295.776508639 137.148166038 295.776508639 132.913711058 278.449904292 c 128,-1,37
 128.679256077 261.123299945 128.679256077 261.123299945 99 180 c 1,38,-1
 250 302 l 1,39,40
 268.747061125 312.570151485 268.747061125 312.570151485 280.701980866 312.570151485 c 0,41,42
 301.743961292 312.570151485 301.743961292 312.570151485 301.743961292 279.823936689 c 0,43,44
 301.743961292 261.486686799 301.743961292 261.486686799 290.227399593 210.330661291 c 128,-1,45
 278.710837894 159.174635783 278.710837894 159.174635783 278 151 c 1,46,47
 296 166 296 166 353 228 c 0,48,49
 451.821631879 335.490196078 451.821631879 335.490196078 492.130718954 335.490196078 c 0,50,51
 505.647058824 335.490196078 505.647058824 335.490196078 516 326 c 1,52,53
 516 293 516 293 496 228 c 128,-1,54
 476 163 476 163 476 119.5 c 0,55,56
 476 28 476 28 580 28 c 0,57,58
 636 28 636 28 732 67 c 1,0,1
EndSplineSet
EndChar

StartChar: n
Encoding: 110 110 81
Width: 431
Flags: HW
LayerCount: 2
Fore
SplineSet
228 103.5 m 2,0,1
 228 122 228 122 228.5 166.5 c 128,-1,2
 229 211 229 211 229 243 c 1,3,4
 201 237 201 237 147.5 171 c 128,-1,5
 94 105 94 105 89 102 c 1,6,7
 50 50 50 50 28 28 c 1,8,9
 19 16 19 16 -1 16 c 1,10,-1
 -1 38 l 1,11,-1
 42 177 l 1,12,13
 42 250.229764393 42 250.229764393 66.8460533896 285.128766678 c 0,14,15
 73.8185624072 294.922418986 73.8185624072 294.922418986 79.5416396323 294.922418986 c 0,16,17
 90 294.922418986 90 294.922418986 90 261.461209493 c 128,-1,18
 90 228 90 228 80 187.5 c 128,-1,19
 70 147 70 147 70 120 c 1,20,21
 78 128 78 128 118 176 c 128,-1,22
 158 224 158 224 166 232 c 1,23,24
 173 236 173 236 190 251.5 c 0,25,26
 225.64516129 284 225.64516129 284 253 284 c 0,27,28
 268 284 268 284 272 274 c 1,29,30
 272.75 262.75 272.75 262.75 272.75 238.375 c 128,-1,31
 272.75 214 272.75 214 264.875 161.5 c 128,-1,32
 257 109 257 109 256 78 c 1,33,34
 256 31 256 31 295 31 c 0,35,36
 323 31 323 31 349 46.5 c 128,-1,37
 375 62 375 62 391 81.5 c 128,-1,38
 407 101 407 101 428 126.5 c 128,-1,39
 449 152 449 152 465 164 c 1,40,-1
 465 154 l 2,41,42
 465 106 465 106 403 54.5 c 128,-1,43
 341 3 341 3 290 3 c 2,44,-1
 257 3 l 1,45,46
 242.5 13.3571428571 242.5 13.3571428571 237.75 22.1785714286 c 128,-1,47
 233 31 233 31 231 35 c 128,-1,48
 229 39 229 39 228.5 47.5 c 128,-1,49
 228 56 228 56 228 59.5 c 2,50,-1
 228 103.5 l 2,0,1
EndSplineSet
EndChar

StartChar: o
Encoding: 111 111 82
Width: 384
Flags: HW
LayerCount: 2
Fore
SplineSet
281 283 m 1,0,-1
 283 245 l 1,1,2
 283 223.5 283 223.5 280.5 212.25 c 128,-1,3
 278 201 278 201 277 195 c 128,-1,4
 276 189 276 189 272 179.5 c 128,-1,5
 268 170 268 170 267 166 c 128,-1,6
 266 162 266 162 260 151 c 128,-1,7
 254 140 254 140 252.5 137 c 128,-1,8
 251 134 251 134 243.5 120.5 c 128,-1,9
 236 107 236 107 234 103 c 1,10,-1
 254 103 l 2,11,12
 312 103 312 103 424 159 c 1,13,-1
 432 150 l 1,14,15
 336 73 336 73 206 66 c 1,16,-1
 118 12 l 1,17,18
 106 2 106 2 65.5 2 c 128,-1,19
 25 2 25 2 13.5 24.5 c 128,-1,20
 2 47 2 47 2 95 c 128,-1,21
 2 143 2 143 42.5 204 c 128,-1,22
 83 265 83 265 136 265 c 0,23,24
 160 265 160 265 167 245 c 1,25,26
 111 228 111 228 71 186 c 128,-1,27
 31 144 31 144 31 89 c 0,28,29
 31 70 31 70 33 59 c 128,-1,30
 35 48 35 48 44 39 c 128,-1,31
 53 30 53 30 79 30 c 0,32,33
 132.8 30 132.8 30 167 75 c 1,34,35
 157 92 157 92 157 130.5 c 128,-1,36
 157 169 157 169 163.5 203.5 c 128,-1,37
 170 238 170 238 190 270 c 128,-1,38
 210 302 210 302 240 302 c 128,-1,39
 270 302 270 302 281 283 c 1,0,-1
255 236.5 m 1,40,-1
 256 249 l 1,41,42
 256 269 256 269 244 273 c 1,43,44
 218 258 218 258 202 219 c 128,-1,45
 186 180 186 180 186 147 c 128,-1,46
 186 114 186 114 196 112 c 1,47,48
 224 128 224 128 239.5 164 c 128,-1,49
 255 200 255 200 255 234 c 2,50,-1
 255 236.5 l 1,40,-1
EndSplineSet
EndChar

StartChar: p
Encoding: 112 112 83
Width: 373
Flags: HW
LayerCount: 2
Fore
SplineSet
85 -53 m 1,0,-1
 67 -194 l 1,1,2
 63 -204 63 -204 52 -243 c 128,-1,3
 41 -282 41 -282 40 -295 c 1,4,5
 17 -371 17 -371 -17 -376 c 1,6,-1
 -22 -375 l 2,7,8
 -24 -375 -24 -375 -32.5 -369 c 128,-1,9
 -41 -363 -41 -363 -42.5 -360.5 c 128,-1,10
 -44 -358 -44 -358 -48 -339 c 128,-1,11
 -52 -320 -52 -320 -56.5 -302.5 c 128,-1,12
 -61 -285 -61 -285 -61 -254 c 128,-1,13
 -61 -223 -61 -223 -56.5 -198.5 c 128,-1,14
 -52 -174 -52 -174 -40.5 -142 c 128,-1,15
 -29 -110 -29 -110 -19.5 -89 c 128,-1,16
 -10 -68 -10 -68 6.5 -33 c 128,-1,17
 23 2 23 2 29.1 16 c 128,-1,18
 35.2 30 35.2 30 35.2 46.96 c 1,19,-1
 29.0588235294 125.735294118 l 1,20,21
 29.0588235294 186.658088235 29.0588235294 186.658088235 53 251 c 1,22,23
 55.8778606894 251.767429517 55.8778606894 251.767429517 58.4319656307 251.767429517 c 0,24,25
 78.5592187135 251.767429517 78.5592187135 251.767429517 78.5592187135 207.408923121 c 0,26,27
 78.5592187135 186.613187369 78.5592187135 186.613187369 72 163 c 1,28,29
 104 215 104 215 150.5 250.5 c 128,-1,30
 197 286 197 286 245 298 c 1,31,32
 297.190481028 291.15534675 297.190481028 291.15534675 297.190481028 233.177199 c 0,33,34
 297.190481028 219.682009044 297.190481028 219.682009044 294.362863727 203.416468042 c 0,35,36
 281.578978691 129.878650131 281.578978691 129.878650131 230.540910442 65.2636493704 c 0,37,38
 199.714358128 26.2367471076 199.714358128 26.2367471076 175 22 c 1,39,40
 174.484497751 20.5940847746 174.484497751 20.5940847746 174.484497751 18.0085050477 c 128,-1,41
 174.484497751 15.4229253209 174.484497751 15.4229253209 184.871840285 15.4229253209 c 128,-1,42
 195.25918282 15.4229253209 195.25918282 15.4229253209 236.368834744 31.3436117071 c 0,43,44
 331.484261979 68.1793137044 331.484261979 68.1793137044 376.451020963 105.923601699 c 0,45,46
 386.563894574 114.902197808 386.563894574 114.902197808 390 121 c 1,47,48
 390.978330478 134.696626692 390.978330478 134.696626692 395.967860024 133.744696146 c 128,-1,49
 400.957584244 132.792728458 400.957584244 132.792728458 400.957584244 126.235542884 c 128,-1,50
 400.957584244 119.678357311 400.957584244 119.678357311 398.69436608 111.277875352 c 0,51,52
 384.463501001 58.4565754733 384.463501001 58.4565754733 288.196872391 15.3902809877 c 0,53,54
 221.529413809 -14.4343887384 221.529413809 -14.4343887384 122 -34 c 0,55,56
 119 -35 119 -35 111.5 -37 c 0,57,58
 93 -41.9333333333 93 -41.9333333333 93 -43 c 2,59,-1
 85 -53 l 1,0,-1
56 -4 m 1,60,61
 7 -66 7 -66 -14.45 -130.35 c 128,-1,62
 -35.9 -194.7 -35.9 -194.7 -35.9 -231.1 c 128,-1,63
 -35.9 -267.5 -35.9 -267.5 -32.95 -281.25 c 128,-1,64
 -30 -295 -30 -295 -29 -301.5 c 128,-1,65
 -28 -308 -28 -308 -26.5 -311.5 c 128,-1,66
 -25 -315 -25 -315 -23 -320.5 c 0,67,68
 -19.0425531915 -331.382978723 -19.0425531915 -331.382978723 -10 -335 c 1,69,70
 28 -265 28 -265 40.5 -188 c 128,-1,71
 53 -111 53 -111 56 -4 c 1,60,61
236.012536515 257.337221071 m 0,72,73
 228.88144007 257.337221071 228.88144007 257.337221071 220 255 c 0,74,75
 161 239 161 239 119.5 155.5 c 0,76,77
 88.4684684685 93.0630630631 88.4684684685 93.0630630631 88.4684684685 38.7334631929 c 0,78,79
 88.4684684685 20.4054054054 88.4684684685 20.4054054054 92 3 c 1,80,81
 137.631079196 7.19596130538 137.631079196 7.19596130538 196.952551528 88.8380553004 c 0,82,83
 260.34299185 176.080129438 260.34299185 176.080129438 260.34299185 229.342574432 c 0,84,85
 260.34299185 257.337221071 260.34299185 257.337221071 236.012536515 257.337221071 c 0,72,73
EndSplineSet
EndChar

StartChar: q
Encoding: 113 113 84
Width: 391
Flags: HW
LayerCount: 2
Fore
SplineSet
253 -25 m 1,0,1
 266.058823529 -93.1960784314 266.058823529 -93.1960784314 266.058823529 -135.598039216 c 128,-1,2
 266.058823529 -178 266.058823529 -178 261.529411765 -220 c 128,-1,3
 257 -262 257 -262 230.5 -300.5 c 128,-1,4
 204 -339 204 -339 158 -354 c 1,5,6
 115 -354 115 -354 115 -259 c 1,7,-1
 126 -93 l 1,8,-1
 125 -50 l 1,9,10
 104 -41 104 -41 85.5098039216 -23.862745098 c 128,-1,11
 67.0196078431 -6.72549019608 67.0196078431 -6.72549019608 67.0196078431 7.90272971934 c 0,12,13
 67.0196078431 11.4705882353 67.0196078431 11.4705882353 69.0098039216 16.2352941176 c 128,-1,14
 71 21 71 21 87 43 c 1,15,16
 75.5294117647 38.0294117647 75.5294117647 38.0294117647 61.1985294118 38.0294117647 c 128,-1,17
 46.8676470588 38.0294117647 46.8676470588 38.0294117647 25.4338235294 55.0147058824 c 0,18,19
 -1.4 76.279245283 -1.4 76.279245283 -1.4 107.639622642 c 128,-1,20
 -1.4 139 -1.4 139 13 159 c 1,21,22
 49 204 49 204 107.5 233 c 128,-1,23
 166 262 166 262 221 262 c 0,24,25
 233 262 233 262 240.5 254 c 128,-1,26
 248 246 248 246 248 235 c 128,-1,27
 248 224 248 224 245.5 219.5 c 128,-1,28
 243 215 243 215 238 206.5 c 128,-1,29
 233 198 233 198 230 187 c 128,-1,30
 227 176 227 176 202.5 102 c 128,-1,31
 178 28 178 28 175 15 c 1,32,33
 205 11 205 11 209.5 9.5 c 0,34,35
 217 7 217 7 245 7 c 1,36,37
 399.010606056 139.834147723 399.010606056 139.834147723 418.667966493 139.834147723 c 0,38,39
 421.545697508 139.834147723 421.545697508 139.834147723 421.545697508 136.926588331 c 0,40,41
 421.545697508 121.550621393 421.545697508 121.550621393 359.787947053 62.7362274899 c 128,-1,42
 298.030196598 3.92183358706 298.030196598 3.92183358706 253 -25 c 1,0,1
166 -23 m 1,43,44
 140.96875 -213.515625 140.96875 -213.515625 140.96875 -249.9765625 c 128,-1,45
 140.96875 -286.4375 140.96875 -286.4375 143.484375 -297.21875 c 128,-1,46
 146 -308 146 -308 161 -318 c 1,47,48
 229 -318 229 -318 229 -149 c 0,49,50
 229 -34 229 -34 220 -28 c 1,51,-1
 166 -23 l 1,43,44
130 16 m 128,-1,53
 115 16 115 16 115 2 c 128,-1,54
 115 -12 115 -12 135 -12 c 0,55,56
 145 -12 145 -12 145 2 c 128,-1,52
 145 16 145 16 130 16 c 128,-1,53
163 82 m 1,57,-1
 111 47 l 1,58,-1
 153 47 l 2,59,60
 156 47 156 47 159.5 60 c 128,-1,61
 163 73 163 73 163 82 c 1,57,-1
30 89 m 2,62,-1
 30 86 l 2,63,64
 30 72 30 72 59 72 c 0,65,66
 120 72 120 72 156.5 112.5 c 128,-1,67
 193 153 193 153 193 216 c 1,68,69
 170 216 170 216 135 186 c 0,70,71
 119 173 119 173 79 137 c 0,72,73
 30 92.9 30 92.9 30 89 c 2,62,-1
31 129 m 1,74,-1
 87 186 l 1,75,76
 70 182 70 182 50 165 c 128,-1,77
 30 148 30 148 30 133 c 2,78,-1
 30 130 l 1,79,-1
 31 129 l 1,74,-1
EndSplineSet
EndChar

StartChar: r
Encoding: 114 114 85
Width: 381
Flags: HW
LayerCount: 2
Fore
SplineSet
264 64 m 1,0,1
 265.112554113 40.6363636364 265.112554113 40.6363636364 298.508264463 40.6363636364 c 0,2,3
 319 40.6363636364 319 40.6363636364 344 48.8181818182 c 128,-1,4
 369 57 369 57 392.5 59 c 128,-1,5
 416 61 416 61 416 47 c 1,6,7
 374.179487179 19.1196581197 374.179487179 19.1196581197 300 13.5 c 0,8,9
 295.769230769 13.1794871795 295.769230769 13.1794871795 291.752136752 13.1794871795 c 0,10,11
 264.435897436 13.1794871795 264.435897436 13.1794871795 248.575091575 26.6611721612 c 128,-1,12
 232.714285714 40.1428571429 232.714285714 40.1428571429 232.714285714 56.1428571429 c 128,-1,13
 232.714285714 72.1428571429 232.714285714 72.1428571429 235 83 c 1,14,15
 235 105 235 105 244.5 147 c 128,-1,16
 254 189 254 189 254 210 c 1,17,18
 236 210 236 210 192.5 202.5 c 128,-1,19
 149 195 149 195 130 189 c 1,20,21
 105.089469828 64.4473491389 105.089469828 64.4473491389 43.1334670548 23.339765632 c 0,22,23
 25.2220894178 11.4556314242 25.2220894178 11.4556314242 15.4993974977 11.4556314242 c 128,-1,24
 5.77670557757 11.4556314242 5.77670557757 11.4556314242 1.63419562501 15.9320176892 c 128,-1,25
 -2.50831432756 20.4084039542 -2.50831432756 20.4084039542 -2.50831432756 26.7049256434 c 128,-1,26
 -2.50831432756 33.0014473327 -2.50831432756 33.0014473327 6 44 c 1,27,28
 36.7045009785 41.9530332681 36.7045009785 41.9530332681 52 73.5 c 0,29,30
 66.8943089431 104.219512195 66.8943089431 104.219512195 76.4471544715 138.609756098 c 128,-1,31
 86 173 86 173 92 189 c 1,32,33
 45 208 45 208 45 237 c 0,34,35
 45.4694478036 289.578154007 45.4694478036 289.578154007 91.0611517714 308.620581426 c 0,36,37
 107.327012583 315.41439361 107.327012583 315.41439361 123.15006395 315.41439361 c 128,-1,38
 138.973115318 315.41439361 138.973115318 315.41439361 152.452368363 304.110217758 c 128,-1,39
 165.931621409 292.806041907 165.931621409 292.806041907 165.931621409 272.662470735 c 128,-1,40
 165.931621409 252.518899563 165.931621409 252.518899563 140 218 c 1,41,42
 143 218 143 218 176 226.5 c 0,43,44
 267.235294118 250 267.235294118 250 286 250 c 1,45,46
 286 219 286 219 275 156.5 c 128,-1,47
 264 94 264 94 264 64 c 1,0,1
114.328929186 287.892949712 m 0,48,49
 94.815699613 287.892949712 94.815699613 287.892949712 82 247 c 1,50,51
 82 229 82 229 111 218 c 1,52,53
 131.728218957 238.728218957 131.728218957 238.728218957 131.728218957 259.057454054 c 0,54,55
 131.728218957 266.899798033 131.728218957 266.899798033 127.568020536 277.396373873 c 128,-1,56
 123.407822116 287.892949712 123.407822116 287.892949712 114.328929186 287.892949712 c 0,48,49
EndSplineSet
EndChar

StartChar: s
Encoding: 115 115 86
Width: 443
Flags: HW
LayerCount: 2
Fore
SplineSet
67 103 m 2,0,-1
 77 103 l 1,1,2
 89.6 112 89.6 112 128.3 143.5 c 128,-1,3
 167 175 167 175 171.5 178.5 c 128,-1,4
 176 182 176 182 229 235 c 0,5,6
 233 240 233 240 241 256.5 c 0,7,8
 258.212121212 292 258.212121212 292 281 292 c 0,9,10
 295 292 295 292 295 277.5 c 128,-1,11
 295 263 295 263 285 245 c 128,-1,12
 275 227 275 227 275 217 c 2,13,-1
 275 30 l 1,14,15
 356.76 30 356.76 30 387 61.5 c 0,16,17
 399 74 399 74 420.5 98 c 128,-1,18
 442 122 442 122 465 140 c 1,19,-1
 465 130 l 2,20,21
 465 95 465 95 422 58.5 c 128,-1,22
 379 22 379 22 332.235294118 4.79411764706 c 128,-1,23
 285.470588235 -12.4117647059 285.470588235 -12.4117647059 267.382352941 -12.4117647059 c 128,-1,24
 249.294117647 -12.4117647059 249.294117647 -12.4117647059 242 -11 c 1,25,26
 215 -11 215 -11 191 -1.5 c 128,-1,27
 167 8 167 8 135.5 27 c 128,-1,28
 104 46 104 46 85 55 c 1,29,30
 43.3577295831 26.9040103211 43.3577295831 26.9040103211 16.7560693531 26.9040103211 c 128,-1,31
 -9.84559087684 26.9040103211 -9.84559087684 26.9040103211 -9.84559087684 38.1148693742 c 0,32,33
 -9.84559087684 43.207824245 -9.84559087684 43.207824245 -0.250612413225 53.0598081103 c 128,-1,34
 9.34436605039 62.9117919757 9.34436605039 62.9117919757 40 74 c 1,35,-1
 21 103 l 1,36,37
 16.2500719424 106.562446043 16.2500719424 106.562446043 22.1066488744 109.281223022 c 128,-1,38
 27.9632258065 112 27.9632258065 112 31 112 c 2,39,-1
 48.5 107.5 l 2,40,41
 66 103 66 103 67 103 c 2,0,-1
124 84 m 1,42,43
 135 62 135 62 176 47 c 128,-1,44
 217 32 217 32 250 32 c 1,45,46
 250 119 250 119 238 188 c 1,47,48
 216 175 216 175 210 169.5 c 128,-1,49
 204 164 204 164 168 127 c 128,-1,50
 132 90 132 90 124 84 c 1,42,43
EndSplineSet
EndChar

StartChar: t
Encoding: 116 116 87
Width: 251
Flags: HW
LayerCount: 2
Fore
SplineSet
17 212 m 1,0,-1
 5 209 l 1,1,2
 2 206 2 206 -12 204 c 128,-1,3
 -26 202 -26 202 -39 204 c 128,-1,4
 -52 206 -52 206 -51 214 c 1,5,6
 -52.7866108787 242.585774059 -52.7866108787 242.585774059 -14 240 c 0,7,8
 26.8196721311 237.278688525 26.8196721311 237.278688525 34 266 c 2,9,-1
 81 445 l 1,10,-1
 100 464 l 1,11,12
 110 461 110 461 110 446 c 1,13,-1
 109 436 l 1,14,-1
 62 247 l 1,15,-1
 62 242 l 1,16,17
 69.6595744681 238.553191489 69.6595744681 238.553191489 85.5957446809 238.553191489 c 128,-1,18
 101.531914894 238.553191489 101.531914894 238.553191489 142.765957447 250.276595745 c 128,-1,19
 184 262 184 262 190 262 c 1,20,21
 190 206.85106383 190 206.85106383 116.0769579 206.85106383 c 0,22,23
 93.4893617021 206.85106383 93.4893617021 206.85106383 64 212 c 1,24,25
 42 162 42 162 42 120.5 c 128,-1,26
 42 79 42 79 64 44.5 c 128,-1,27
 86 10 86 10 132 10 c 1,28,29
 179 17 179 17 204.5 32.5 c 128,-1,30
 230 48 230 48 241.785714286 54.2857142857 c 128,-1,31
 253.571428571 60.5714285714 253.571428571 60.5714285714 265.928571429 60.5714285714 c 128,-1,32
 278.285714286 60.5714285714 278.285714286 60.5714285714 292 58 c 1,33,34
 264 8 264 8 130 -8 c 0,35,36
 127.345454545 -8.07272727273 127.345454545 -8.07272727273 124.753719008 -8.07272727273 c 0,37,38
 56.0727272727 -8.07272727273 56.0727272727 -8.07272727273 31.5 43 c 0,39,40
 13.6849315068 80.0273972603 13.6849315068 80.0273972603 13.6849315068 128.534246575 c 128,-1,41
 13.6849315068 177.04109589 13.6849315068 177.04109589 17 212 c 1,0,-1
EndSplineSet
EndChar

StartChar: u
Encoding: 117 117 88
Width: 379
Flags: HW
LayerCount: 2
Fore
SplineSet
245 247 m 1,0,1
 232.464285714 181.1875 232.464285714 181.1875 232.464285714 137.325892857 c 128,-1,2
 232.464285714 93.4642857143 232.464285714 93.4642857143 238.732142857 72.7321428571 c 128,-1,3
 245 52 245 52 260.5 41 c 128,-1,4
 276 30 276 30 287.5 29 c 128,-1,5
 299 28 299 28 316 29 c 1,6,7
 387.821191342 64.4672549835 387.821191342 64.4672549835 402.256400891 64.4672549835 c 128,-1,8
 416.69161044 64.4672549835 416.69161044 64.4672549835 416.69161044 59.3435854947 c 0,9,10
 416.69161044 51.8942299905 416.69161044 51.8942299905 387.978563283 34.727596987 c 128,-1,11
 359.265516127 17.5609639834 359.265516127 17.5609639834 316 10 c 1,12,13
 205.748148148 10 205.748148148 10 205.748148148 110.451687243 c 0,14,15
 205.748148148 121.155555556 205.748148148 121.155555556 207 133 c 1,16,17
 201 122 201 122 190.5 99.5 c 128,-1,18
 180 77 180 77 174 65 c 128,-1,19
 168 53 168 53 156 36.5 c 128,-1,20
 144 20 144 20 131.5 12 c 0,21,22
 98.6875 -9 98.6875 -9 55 -9 c 1,23,24
 36 -7 36 -7 24.5 -0.5 c 0,25,26
 3.72727272727 11.2411067194 3.72727272727 11.2411067194 3.72727272727 46.7603305785 c 0,27,28
 3.72727272727 111.387012987 3.72727272727 111.387012987 85 260 c 1,29,30
 90.8775510204 248.244897959 90.8775510204 248.244897959 90.8775510204 233.795918367 c 128,-1,31
 90.8775510204 219.346938776 90.8775510204 219.346938776 81.4387755102 193.673469388 c 128,-1,32
 72 168 72 168 51.5 123 c 128,-1,33
 31 78 31 78 28 43 c 1,34,35
 28 21.9 28 21.9 42 20.5 c 0,36,37
 47 20 47 20 62 20 c 0,38,39
 99 20 99 20 137.5 64.5 c 128,-1,40
 176 109 176 109 198 161.5 c 128,-1,41
 220 214 220 214 220 245 c 1,42,-1
 231 257 l 1,43,44
 245 257 245 257 245 247 c 1,0,1
EndSplineSet
EndChar

StartChar: v
Encoding: 118 118 89
Width: 256
Flags: HW
LayerCount: 2
Fore
SplineSet
20 279 m 1,0,1
 21 280 21 280 23 286 c 128,-1,2
 25 292 25 292 27.5 296 c 128,-1,3
 30 300 30 300 34 300 c 128,-1,4
 38 300 38 300 38 299 c 2,5,-1
 85 43 l 1,6,-1
 94 52 l 1,7,8
 129.230769231 104.846153846 129.230769231 104.846153846 147.5 156 c 0,9,10
 164.375 203.25 164.375 203.25 167.1875 215.125 c 128,-1,11
 170 227 170 227 177.5 233.5 c 128,-1,12
 185 240 185 240 188 241 c 128,-1,13
 191 242 191 242 198.5 237.5 c 128,-1,14
 206 233 206 233 208 232.5 c 128,-1,15
 210 232 210 232 274 210 c 1,16,-1
 274 200 l 2,17,18
 274 196.090909091 274 196.090909091 194 207 c 1,19,-1
 113 14 l 2,20,21
 105 -5 105 -5 80 -5 c 0,22,23
 68 -5 68 -5 67 -4 c 0,24,25
 65.5813953488 8.76744186047 65.5813953488 8.76744186047 20 279 c 1,0,1
EndSplineSet
EndChar

StartChar: w
Encoding: 119 119 90
Width: 386
Flags: HW
LayerCount: 2
Fore
SplineSet
12.5922065064 181.844880117 m 0,0,1
 12.5922065064 237.058513337 12.5922065064 237.058513337 17 309 c 1,2,3
 27 309 27 309 34.5 301.5 c 128,-1,4
 42 294 42 294 41 279 c 128,-1,5
 40 264 40 264 40 194 c 128,-1,6
 40 124 40 124 42 105 c 0,7,8
 46.0215336032 47.3580183542 46.0215336032 47.3580183542 65.3990631953 47.3580183542 c 0,9,10
 75.4315338279 47.3580183542 75.4315338279 47.3580183542 89.5802091837 62.8090641399 c 0,11,12
 126.467094325 103.091347596 126.467094325 103.091347596 155.892136903 189.939592022 c 0,13,14
 167.424122994 223.976339604 167.424122994 223.976339604 167.424122994 233.321831568 c 128,-1,15
 167.424122994 242.667323531 167.424122994 242.667323531 167 245 c 1,16,-1
 191 245 l 1,17,18
 193 234 193 234 198.5 184 c 0,19,20
 211.590909091 64.9917355372 211.590909091 64.9917355372 229 46 c 1,21,22
 252 51 252 51 262 110.5 c 128,-1,23
 272 170 272 170 272 207 c 1,24,-1
 291 227 l 1,25,26
 299 201 299 201 302.5 192 c 128,-1,27
 306 183 306 183 314 173 c 128,-1,28
 322 163 322 163 332.5 161 c 128,-1,29
 343 159 343 159 362 159 c 1,30,31
 399.403596581 183.456197764 399.403596581 183.456197764 406.49753039 183.456197764 c 128,-1,32
 413.5914642 183.456197764 413.5914642 183.456197764 413.5914642 179.937382523 c 0,33,34
 413.5914642 165.677725398 413.5914642 165.677725398 389.491354817 148.275062472 c 128,-1,35
 365.391245434 130.872399546 365.391245434 130.872399546 359.237924646 130.872399546 c 128,-1,36
 353.084603859 130.872399546 353.084603859 130.872399546 352 131 c 0,37,38
 315 131 315 131 301 141 c 1,39,40
 300 137 300 137 296 117 c 128,-1,41
 292 97 292 97 287 81.5 c 128,-1,42
 282 66 282 66 274 47.5 c 0,43,44
 256.918918919 8 256.918918919 8 224 8 c 0,45,46
 210.5 8 210.5 8 200 29 c 0,47,48
 187.4 54.2 187.4 54.2 177.2 91.6 c 128,-1,49
 167 129 167 129 167 131 c 1,50,51
 96.256123009 3.44664603136 96.256123009 3.44664603136 57.92444503 3.44664603136 c 0,52,53
 12.5922065064 3.44664603136 12.5922065064 3.44664603136 12.5922065064 181.844880117 c 0,0,1
EndSplineSet
EndChar

StartChar: x
Encoding: 120 120 91
Width: 303
Flags: HW
LayerCount: 2
Fore
SplineSet
347 91 m 1,0,1
 335.551515152 33.7575757576 335.551515152 33.7575757576 289.542240588 33.7575757576 c 0,2,3
 250.850909091 33.7575757576 250.850909091 33.7575757576 203.925454545 52.3787878788 c 128,-1,4
 157 71 157 71 149 74 c 1,5,6
 130 52 130 52 105.5 1 c 128,-1,7
 81 -50 81 -50 64.4567901235 -71.9197530864 c 128,-1,8
 47.9135802469 -93.8395061728 47.9135802469 -93.8395061728 36.9320987654 -93.8395061728 c 128,-1,9
 25.950617284 -93.8395061728 25.950617284 -93.8395061728 18 -89 c 1,10,-1
 125 108 l 1,11,-1
 39 310 l 1,12,13
 48.9587628866 320.907216495 48.9587628866 320.907216495 57.6804123711 320.907216495 c 128,-1,14
 66.4020618557 320.907216495 66.4020618557 320.907216495 76.7010309278 301.453608247 c 128,-1,15
 87 282 87 282 106 227.5 c 128,-1,16
 125 173 125 173 148 149 c 1,17,18
 159 162 159 162 190.5 214.5 c 0,19,20
 224.142857143 270.571428571 224.142857143 270.571428571 228.071428571 275.285714286 c 128,-1,21
 232 280 232 280 236 283.5 c 128,-1,22
 240 287 240 287 245 290 c 0,23,24
 256.914893617 297.14893617 256.914893617 297.14893617 265 283 c 1,25,-1
 168 102 l 1,26,27
 205.931506849 72.8219178082 205.931506849 72.8219178082 266.5 63 c 0,28,29
 285 60 285 60 287.814285714 59.4714285714 c 128,-1,30
 290.628571429 58.9428571429 290.628571429 58.9428571429 291.275102041 58.9428571429 c 0,31,32
 301.942857143 58.9428571429 301.942857143 58.9428571429 317.971428571 74.9714285714 c 128,-1,33
 334 91 334 91 347 91 c 1,0,1
EndSplineSet
EndChar

StartChar: y
Encoding: 121 121 92
Width: 316
Flags: HW
LayerCount: 2
Fore
SplineSet
49 266 m 0,0,1
 60.9375 266 60.9375 266 59.96875 241.5 c 128,-1,2
 59 217 59 217 49 151.5 c 128,-1,3
 39 86 39 86 39 74.5 c 2,4,-1
 39 46 l 2,5,6
 39 33.5 39 33.5 40.5 32.75 c 128,-1,7
 42 32 42 32 44 28 c 128,-1,8
 46 24 46 24 49.5 25 c 128,-1,9
 53 26 53 26 57.5 23.5 c 128,-1,10
 62 21 62 21 69 24 c 1,11,12
 108.888888889 24 108.888888889 24 132.5 58 c 0,13,14
 145 76 145 76 153.5 90 c 128,-1,15
 162 104 162 104 170.5 132.5 c 128,-1,16
 179 161 179 161 182.5 171.5 c 128,-1,17
 186 182 186 182 192.5 212 c 2,18,-1
 199 242 l 1,19,20
 204.333333333 245 204.333333333 245 211.833333333 245 c 128,-1,21
 219.333333333 245 219.333333333 245 228 233 c 1,22,-1
 228 229 l 2,23,24
 228 195 228 195 213.5 124.5 c 128,-1,25
 199 54 199 54 199 6 c 1,26,27
 210 14 210 14 260.5 45 c 128,-1,28
 311 76 311 76 317.361862748 81.6894901985 c 128,-1,29
 323.723725496 87.378980397 323.723725496 87.378980397 331.66947838 94.9481341005 c 128,-1,30
 339.615231264 102.517287804 339.615231264 102.517287804 339.615231264 99.0712212645 c 0,31,32
 339.615231264 92.9913754319 339.615231264 92.9913754319 314 49 c 1,33,34
 309 44 309 44 265.5 6.5 c 128,-1,35
 222 -31 222 -31 218 -35 c 1,36,37
 186.019093079 -103.758949881 186.019093079 -103.758949881 174 -255.5 c 0,38,39
 170 -306 170 -306 158 -352 c 0,40,41
 135.24137931 -439.24137931 135.24137931 -439.24137931 45.9084423306 -439.24137931 c 0,42,43
 35 -439.24137931 35 -439.24137931 18.5 -438.620689655 c 128,-1,44
 2 -438 2 -438 -9 -424.5 c 128,-1,45
 -20 -411 -20 -411 -20 -390 c 0,46,47
 -20 -309 -20 -309 36 -202 c 128,-1,48
 92 -95 92 -95 161 -23 c 1,49,50
 170 -3.2 170 -3.2 170 28.9 c 128,-1,51
 170 61 170 61 171 72 c 1,52,53
 112 -5 112 -5 57 -5 c 0,54,55
 56.2 -5.03333333333 56.2 -5.03333333333 55.4133333333 -5.03333333333 c 0,56,57
 10.7142857143 -5.03333333333 10.7142857143 -5.03333333333 10.7142857143 95.4897959184 c 0,58,59
 10.7142857143 103.428571429 10.7142857143 103.428571429 11.8571428571 137.714285714 c 128,-1,60
 13 172 13 172 31 257 c 0,61,62
 32 259 32 259 39 262.5 c 128,-1,63
 46 266 46 266 49 266 c 0,0,1
68.5 -196.5 m 128,-1,65
 10 -315 10 -315 10 -362.5 c 128,-1,66
 10 -410 10 -410 43 -410 c 0,67,68
 44.76 -410.08 44.76 -410.08 55.58 -410.08 c 128,-1,69
 66.4 -410.08 66.4 -410.08 83.2 -399.04 c 128,-1,70
 100 -388 100 -388 111.5 -365 c 128,-1,71
 123 -342 123 -342 130.5 -317 c 128,-1,72
 138 -292 138 -292 143 -256 c 128,-1,73
 148 -220 148 -220 151 -194 c 128,-1,74
 154 -168 154 -168 156.5 -131.5 c 128,-1,75
 159 -95 159 -95 161 -79 c 1,76,77
 160 -79 160 -79 159 -78 c 1,78,-1
 157 -78 l 2,79,64
 127 -78 127 -78 68.5 -196.5 c 128,-1,65
EndSplineSet
EndChar

StartChar: z
Encoding: 122 122 93
Width: 495
Flags: HW
LayerCount: 2
Fore
SplineSet
293.5 138.625 m 1,0,-1
 292 94 l 1,1,2
 312 77 312 77 327 42.5 c 128,-1,3
 342 8 342 8 347 0 c 1,4,5
 479 94 479 94 537 94 c 0,6,7
 539 94 539 94 542.5 90 c 128,-1,8
 546 86 546 86 546 85 c 2,9,-1
 537 76 l 1,10,11
 493 59 493 59 466.5 47 c 128,-1,12
 440 35 440 35 405.5 12 c 128,-1,13
 371 -11 371 -11 347 -39 c 1,14,15
 347 -84 347 -84 315 -163 c 128,-1,16
 283 -242 283 -242 230 -291 c 0,17,18
 202.947916667 -316.010416667 202.947916667 -316.010416667 177.979166667 -316.010416667 c 128,-1,19
 153.010416667 -316.010416667 153.010416667 -316.010416667 130 -293 c 1,20,21
 130 -277.857142857 130 -277.857142857 135 -266.428571429 c 128,-1,22
 140 -255 140 -255 142.5 -249 c 128,-1,23
 145 -243 145 -243 151 -234.5 c 128,-1,24
 157 -226 157 -226 160 -222.5 c 0,25,26
 175 -205 175 -205 177.5 -201 c 128,-1,27
 180 -197 180 -197 234.5 -129 c 128,-1,28
 289 -61 289 -61 299.5 -48.5 c 128,-1,29
 310 -36 310 -36 310 -21 c 0,30,31
 310 57 310 57 273 57 c 0,32,33
 258 57 258 57 230 37 c 128,-1,34
 202 17 202 17 185.5 17 c 128,-1,35
 169 17 169 17 163.5 17.5 c 0,36,37
 148 18.9090909091 148 18.9090909091 148 36.4545454545 c 128,-1,38
 148 54 148 54 166 62 c 128,-1,39
 184 70 184 70 206 74 c 128,-1,40
 228 78 228 78 246 98.5 c 128,-1,41
 264 119 264 119 264 159 c 128,-1,42
 264 199 264 199 231 199 c 0,43,44
 194 199 194 199 159 169.5 c 128,-1,45
 124 140 124 140 80 79 c 128,-1,46
 36 18 36 18 26 7 c 1,47,-1
 6 16 l 1,48,49
 22 34 22 34 50 77.5 c 128,-1,50
 78 121 78 121 98.5 148 c 128,-1,51
 119 175 119 175 156.408163265 196.581632653 c 128,-1,52
 193.816326531 218.163265306 193.816326531 218.163265306 236.379841733 218.163265306 c 0,53,54
 240.163265306 218.163265306 240.163265306 218.163265306 251.081632653 218.081632653 c 128,-1,55
 262 218 262 218 273.5 209.5 c 0,56,57
 293.5 194.717391304 293.5 194.717391304 293.5 138.625 c 1,0,-1
301 -86 m 1,58,59
 265 -111 265 -111 215.5 -179.5 c 128,-1,60
 166 -248 166 -248 166 -289 c 0,61,62
 166 -301 166 -301 168 -303 c 1,63,64
 218 -301 218 -301 259.5 -226 c 128,-1,65
 301 -151 301 -151 301 -100 c 2,66,-1
 301 -86 l 1,58,59
187 38 m 1,67,68
 191 37 191 37 195.5 37 c 128,-1,69
 200 37 200 37 216 47 c 1,70,-1
 211 47 l 2,71,72
 203 47 203 47 187 38 c 1,67,68
EndSplineSet
EndChar

StartChar: braceleft
Encoding: 123 123 94
Width: 256
Flags: HW
LayerCount: 2
Fore
SplineSet
308 -33 m 2,0,-1
 307 -39 l 1,1,2
 302 -52 302 -52 293.5 -61.5 c 128,-1,3
 285 -71 285 -71 264 -92 c 128,-1,4
 243 -113 243 -113 241 -113 c 2,5,-1
 109 -113 l 2,6,7
 77 -113 77 -113 56 -87.5 c 0,8,9
 22 -46.2142857143 22 -46.2142857143 22 25 c 0,10,11
 22 93.8648648649 22 93.8648648649 66.5 154 c 0,12,13
 85 179 85 179 103.5 201.5 c 128,-1,14
 122 224 122 224 135 248 c 128,-1,15
 148 272 148 272 148 294 c 128,-1,16
 148 316 148 316 132.5 327 c 128,-1,17
 117 338 117 338 99 339.5 c 128,-1,18
 81 341 81 341 65.5 343.5 c 128,-1,19
 50 346 50 346 50 354 c 0,20,21
 50 369 50 369 69.5 382 c 128,-1,22
 89 395 89 395 108.5 411 c 128,-1,23
 128 427 128 427 128 449.5 c 128,-1,24
 128 472 128 472 113 496.5 c 128,-1,25
 98 521 98 521 80 539 c 128,-1,26
 62 557 62 557 47 586 c 128,-1,27
 32 615 32 615 32 647 c 0,28,29
 32 700 32 700 76.5 733 c 128,-1,30
 121 766 121 766 175 766 c 0,31,32
 244 766 244 766 244 725 c 1,33,34
 230 725 230 725 208.5 731.5 c 128,-1,35
 187 738 187 738 174 738 c 0,36,37
 114 738 114 738 80 690 c 1,38,-1
 79 647 l 2,39,40
 79 617 79 617 94 590.5 c 128,-1,41
 109 564 109 564 127 548.5 c 128,-1,42
 145 533 145 533 160 510 c 128,-1,43
 175 487 175 487 175 460.5 c 128,-1,44
 175 434 175 434 138 378 c 1,45,46
 141 375 141 375 151 368 c 128,-1,47
 161 361 161 361 164 358.5 c 128,-1,48
 167 356 167 356 173.5 350 c 128,-1,49
 180 344 180 344 182.5 340 c 128,-1,50
 185 336 185 336 188.5 329 c 0,51,52
 194 318 194 318 194 292 c 128,-1,53
 194 266 194 266 174.5 232.5 c 128,-1,54
 155 199 155 199 132 174 c 128,-1,55
 109 149 109 149 89.5 111 c 128,-1,56
 70 73 70 73 70 22.5 c 0,57,58
 70 -77 70 -77 193 -77 c 0,59,60
 237 -77 237 -77 253.5 -69.5 c 128,-1,61
 270 -62 270 -62 307 -29 c 1,62,-1
 307 -32 l 2,63,64
 307 -33 307 -33 308 -33 c 2,0,-1
EndSplineSet
EndChar

StartChar: bar
Encoding: 124 124 95
Width: 94
Flags: HW
LayerCount: 2
Fore
SplineSet
71 737 m 1,0,-1
 72 614 l 2,1,2
 72 529 72 529 66.2647058824 352.088235294 c 128,-1,3
 60.5294117647 175.176470588 60.5294117647 175.176470588 60.5294117647 110.294117647 c 128,-1,4
 60.5294117647 45.4117647059 60.5294117647 45.4117647059 61 20 c 1,5,6
 47 7 47 7 22 7 c 1,7,8
 22 400 22 400 33 737 c 1,9,10
 45 746 45 746 55.5 746 c 128,-1,11
 66 746 66 746 71 737 c 1,0,-1
EndSplineSet
EndChar

StartChar: braceright
Encoding: 125 125 96
Width: 359
Flags: HW
LayerCount: 2
Fore
SplineSet
146 350 m 1,0,-1
 156 378 l 1,1,2
 154 383 154 383 135.5 395.5 c 128,-1,3
 117 408 117 408 117 426 c 128,-1,4
 117 444 117 444 127 463 c 1,5,6
 241 568 241 568 241 633 c 0,7,8
 241 687 241 687 213.5 717.5 c 128,-1,9
 186 748 186 748 136 748 c 0,10,11
 109 748 109 748 109 746 c 1,12,13
 96 742 96 742 64.5 725 c 128,-1,14
 33 708 33 708 24 699 c 1,15,-1
 10 699 l 1,16,17
 10 726 10 726 58.5 755 c 128,-1,18
 107 784 107 784 137 784 c 0,19,20
 279 784 279 784 279 640 c 0,21,22
 279 599 279 599 257.5 567.5 c 128,-1,23
 236 536 236 536 206 504.5 c 128,-1,24
 176 473 176 473 165 445 c 1,25,26
 163.139534884 436.627906977 163.139534884 436.627906977 169 421 c 1,27,-1
 238 421 l 1,28,29
 233.307692308 399.884615385 233.307692308 399.884615385 228.653846154 391.942307692 c 128,-1,30
 224 384 224 384 213.5 374.5 c 128,-1,31
 203 365 203 365 198 356.5 c 128,-1,32
 193 348 193 348 193 329 c 128,-1,33
 193 310 193 310 208 293.5 c 128,-1,34
 223 277 223 277 244 261.5 c 128,-1,35
 265 246 265 246 286 226.5 c 128,-1,36
 307 207 307 207 322 173 c 128,-1,37
 337 139 337 139 337 94 c 0,38,39
 337 17 337 17 279.5 -57.5 c 128,-1,40
 222 -132 222 -132 146 -132 c 0,41,42
 100 -132 100 -132 75 -102.5 c 128,-1,43
 50 -73 50 -73 50 -24 c 0,44,45
 50 -22 50 -22 50.5 -11.5 c 128,-1,46
 51 -1 51 -1 51 0 c 1,47,48
 67 -10 67 -10 80.5 -34.5 c 128,-1,49
 94 -59 94 -59 109 -77 c 128,-1,50
 124 -95 124 -95 150 -95 c 0,51,52
 214 -95 214 -95 252 -28 c 128,-1,53
 290 39 290 39 290 107 c 0,54,55
 290 143 290 143 267.5 173 c 128,-1,56
 245 203 245 203 218 220.5 c 128,-1,57
 191 238 191 238 168.5 265.5 c 128,-1,58
 146 293 146 293 146 326 c 2,59,-1
 146 350 l 1,0,-1
EndSplineSet
EndChar

StartChar: asciitilde
Encoding: 126 126 97
Width: 378
Flags: HW
LayerCount: 2
Fore
SplineSet
172 534 m 128,-1,1
 131 560 131 560 108.5 560 c 128,-1,2
 86 560 86 560 52 521 c 1,3,-1
 41 521 l 1,4,5
 40.8644067797 523.847457627 40.8644067797 523.847457627 40.8644067797 526.580005745 c 0,6,7
 40.8644067797 564.152542373 40.8644067797 564.152542373 62.6725880052 577.633963494 c 128,-1,8
 84.4807692308 591.115384615 84.4807692308 591.115384615 96.4326923077 591.115384615 c 128,-1,9
 108.384615385 591.115384615 108.384615385 591.115384615 116 588 c 1,10,11
 139 588 139 588 177 566 c 128,-1,12
 215 544 215 544 240 544 c 0,13,14
 252.5 544 252.5 544 260.25 544 c 128,-1,15
 268 544 268 544 276 544.5 c 128,-1,16
 284 545 284 545 286.5 546.5 c 128,-1,17
 289 548 289 548 295 550.5 c 128,-1,18
 301 553 301 553 303 557 c 128,-1,19
 305 561 305 561 308 566 c 0,20,21
 313 574.333333333 313 574.333333333 313 600.666666667 c 128,-1,22
 313 627 313 627 305.5 639 c 128,-1,23
 298 651 298 651 276 651 c 1,24,25
 276 667 276 667 298.5 667 c 128,-1,26
 321 667 321 667 332 648 c 128,-1,27
 343 629 343 629 343 602 c 0,28,29
 343 548 343 548 315.5 528 c 128,-1,30
 288 508 288 508 240 508 c 0,31,0
 213 508 213 508 172 534 c 128,-1,1
EndSplineSet
EndChar

StartChar: exclamdown
Encoding: 161 161 99
Width: 113
Flags: HW
LayerCount: 2
Fore
SplineSet
75 408 m 0,0,1
 75 419 75 419 91 419 c 128,-1,2
 107 419 107 419 107 389 c 1,3,4
 96 389 96 389 85.5 394.5 c 128,-1,5
 75 400 75 400 75 408 c 0,0,1
35 19 m 1,6,-1
 37 60 l 2,7,8
 38 69 38 69 40.5 167 c 128,-1,9
 43 265 43 265 48 279 c 1,10,11
 52 286 52 286 64 286 c 128,-1,12
 76 286 76 286 76 269 c 2,13,-1
 76 257 l 1,14,15
 75 243 75 243 74.5 203.5 c 128,-1,16
 74 164 74 164 73 133 c 0,17,18
 69.188172043 14.8333333333 69.188172043 14.8333333333 45.0520833333 14.8333333333 c 0,19,20
 40.4166666667 14.8333333333 40.4166666667 14.8333333333 35 19 c 1,6,-1
EndSplineSet
EndChar

StartChar: cent
Encoding: 162 162 100
Width: 334
Flags: HW
LayerCount: 2
Fore
SplineSet
183 49 m 1,0,1
 201.985232684 54.7595649715 201.985232684 54.7595649715 255.355134486 72.7844913074 c 128,-1,2
 308.725036288 90.8094176433 308.725036288 90.8094176433 327.301886092 90.8094176433 c 128,-1,3
 345.878735896 90.8094176433 345.878735896 90.8094176433 345.878735896 79.6086503657 c 0,4,5
 345.878735896 75.5187866935 345.878735896 75.5187866935 344 70 c 1,6,7
 254 30 254 30 184 12 c 1,8,-1
 184 -42 l 1,9,10
 172 -54 172 -54 145 -54 c 1,11,-1
 145 5 l 1,12,13
 123.537184997 2.07740391446 123.537184997 2.07740391446 105.397511917 2.07740391446 c 0,14,15
 24.7275406097 2.07740391446 24.7275406097 2.07740391446 9.7800250562 59.8781829239 c 0,16,17
 6.49448146664 72.5831022308 6.49448146664 72.5831022308 6.49448146664 85.9806495821 c 0,18,19
 6.49448146664 130.230771849 6.49448146664 130.230771849 46.1872213215 187.603382042 c 128,-1,20
 85.8799611765 244.975992235 85.8799611765 244.975992235 141 256 c 1,21,22
 141 267 141 267 143 307 c 1,23,24
 157 316 157 316 166.5 316 c 128,-1,25
 176 316 176 316 181 307 c 1,26,-1
 181 256 l 1,27,28
 220 243 220 243 241 202 c 1,29,-1
 241 199 l 1,30,-1
 223 181 l 1,31,32
 206 215 206 215 182 222 c 1,33,-1
 182 64 l 2,34,35
 182 56 182 56 183 49 c 1,0,1
144 40 m 1,36,-1
 138 194.75 l 2,37,38
 138 218 138 218 140 221 c 1,39,40
 99 208 99 208 68 163.5 c 128,-1,41
 37 119 37 119 37 67 c 1,42,43
 47.6153846154 34.4461538462 47.6153846154 34.4461538462 96.794556213 34.4461538462 c 0,44,45
 117.107692308 34.4461538462 117.107692308 34.4461538462 144 40 c 1,36,-1
EndSplineSet
EndChar

StartChar: sterling
Encoding: 163 163 101
Width: 717
Flags: HW
LayerCount: 2
Fore
SplineSet
137.5 316 m 2,0,-1
 153 315 l 1,1,2
 169 315 169 315 223 302.5 c 128,-1,3
 277 290 277 290 300 283 c 1,4,5
 309 373 309 373 339 433 c 128,-1,6
 369 493 369 493 408.5 515.5 c 0,7,8
 450.835897436 539.615384615 450.835897436 539.615384615 494.898717949 539.615384615 c 0,9,10
 579.578249337 539.615384615 579.578249337 539.615384615 641 476 c 1,11,12
 661.00859155 441.031713833 661.00859155 441.031713833 661.00859155 435.854123362 c 128,-1,13
 661.00859155 430.676532891 661.00859155 430.676532891 658.62100342 430.676532891 c 128,-1,14
 656.233415289 430.676532891 656.233415289 430.676532891 613.062880725 458.795600021 c 0,15,16
 538.357650583 507.45474688 538.357650583 507.45474688 483.07879001 507.45474688 c 0,17,18
 360.352759501 507.45474688 360.352759501 507.45474688 323 274 c 1,19,20
 466.495513863 274 466.495513863 274 498.814645647 244.597506667 c 0,21,22
 512.478286512 232.166940397 512.478286512 232.166940397 492.443056953 226.634369067 c 0,23,24
 487.884721495 225.375620521 487.884721495 225.375620521 482 225 c 1,25,-1
 314 247 l 2,26,27
 311.764705882 247 311.764705882 247 289.882352941 185 c 128,-1,28
 268 123 268 123 261 112 c 1,29,30
 348 110 348 110 425.5 92.5 c 128,-1,31
 503 75 503 75 543 56.5 c 0,32,33
 619.545814107 21.0975609756 619.545814107 21.0975609756 636.894858273 21.0975609756 c 128,-1,34
 654.243902439 21.0975609756 654.243902439 21.0975609756 660.5 25.5 c 0,35,36
 674 35 674 35 680 73 c 1,37,-1
 698 85 l 1,38,39
 697 34 697 34 689.5 9 c 0,40,41
 680.164 -22.12 680.164 -22.12 651.1872 -22.12 c 0,42,43
 633.39 -22.12 633.39 -22.12 577.695 0.44 c 128,-1,44
 522 23 522 23 479 38.5 c 0,45,46
 382.402580645 73.32 382.402580645 73.32 259.6832 73.32 c 0,47,48
 248.88 73.32 248.88 73.32 238 73 c 1,49,50
 193 64 193 64 148 51.5 c 128,-1,51
 103 39 103 39 82 35.5 c 128,-1,52
 61 32 61 32 51 34 c 0,53,54
 24.5869565217 39.2826086957 24.5869565217 39.2826086957 19.2490338164 61.3968599034 c 128,-1,55
 13.9111111111 83.5111111111 13.9111111111 83.5111111111 13.9111111111 107.20345679 c 0,56,57
 13.9111111111 151.711111111 13.9111111111 151.711111111 55 167 c 0,58,59
 77.9333333333 175.533333333 77.9333333333 175.533333333 102.366666667 175.533333333 c 128,-1,60
 126.8 175.533333333 126.8 175.533333333 152 169 c 0,61,62
 206 155 206 155 238 125 c 1,63,64
 246 135 246 135 265 191 c 128,-1,65
 284 247 284 247 290 257 c 1,66,-1
 132 292 l 1,67,68
 125 291 125 291 125 303.5 c 128,-1,69
 125 316 125 316 137.5 316 c 2,0,-1
115.415702479 149.236363636 m 0,70,71
 36.6631578947 149.236363636 36.6631578947 149.236363636 36.6631578947 96.0222714681 c 0,72,73
 36.6631578947 92.6210526316 36.6631578947 92.6210526316 37 89 c 0,74,75
 44.4298245614 69.8947368421 44.4298245614 69.8947368421 62.3464912281 69.8947368421 c 128,-1,76
 80.2631578947 69.8947368421 80.2631578947 69.8947368421 100.631578947 77.9473684211 c 0,77,78
 158.391304348 100.782608696 158.391304348 100.782608696 211.603024575 100.782608696 c 0,79,80
 220.869565217 100.782608696 220.869565217 100.782608696 230 100 c 1,81,82
 217 125 217 125 179.081818182 137.118181818 c 128,-1,83
 141.163636364 149.236363636 141.163636364 149.236363636 115.415702479 149.236363636 c 0,70,71
EndSplineSet
EndChar

StartChar: currency
Encoding: 164 164 102
Width: 479
Flags: HW
LayerCount: 2
Fore
SplineSet
427.169390963 81.7983896953 m 128,-1,1
 427.169390963 67.7341464416 427.169390963 67.7341464416 415.938529488 67.7341464416 c 128,-1,2
 404.707668012 67.7341464416 404.707668012 67.7341464416 392.200991325 83.5716402516 c 128,-1,3
 379.694314638 99.4091340616 379.694314638 99.4091340616 372.347157319 114.704567031 c 128,-1,4
 365 130 365 130 353 146.5 c 128,-1,5
 341 163 341 163 339 166 c 1,6,7
 294 114 294 114 230 114 c 0,8,9
 227.240662637 113.408713422 227.240662637 113.408713422 224.134272494 113.408713422 c 0,10,11
 206.757321011 113.408713422 206.757321011 113.408713422 178.520347508 131.911332114 c 0,12,13
 176.399499143 132.19730464 176.399499143 132.19730464 176 132 c 0,14,15
 171 121 171 121 157 105 c 128,-1,16
 143 89 143 89 133 74.5 c 0,17,18
 115.413793103 49 115.413793103 49 108.676593521 49 c 128,-1,19
 101.939393939 49 101.939393939 49 101.939393939 52.694214876 c 0,20,21
 101.939393939 73.7878787879 101.939393939 73.7878787879 116.96969697 102.393939394 c 128,-1,22
 132 131 132 131 149 150 c 1,23,24
 106.2 192.8 106.2 192.8 111 260 c 1,25,26
 113 323 113 323 136 356 c 1,27,28
 105 368 105 368 73 408 c 1,29,30
 53.7191210803 429.332036252 53.7191210803 429.332036252 53.7191210803 439.697893566 c 128,-1,31
 53.7191210803 450.063750881 53.7191210803 450.063750881 68.0945755024 450.063750881 c 128,-1,32
 82.4700299244 450.063750881 82.4700299244 450.063750881 97.082396249 435.845985259 c 128,-1,33
 111.694762574 421.628219636 111.694762574 421.628219636 116.847381287 413.314109818 c 128,-1,34
 122 405 122 405 128.5 400 c 128,-1,35
 135 395 135 395 144 390 c 128,-1,36
 153 385 153 385 157 382 c 1,37,38
 159 383 159 383 171 390.5 c 128,-1,39
 183 398 183 398 186.5 399.5 c 128,-1,40
 190 401 190 401 200.5 406.5 c 128,-1,41
 211 412 211 412 217.5 413.5 c 0,42,43
 241.333333333 419 241.333333333 419 253 419 c 0,44,45
 315 419 315 419 347 391 c 1,46,47
 364 405 364 405 375 426 c 0,48,49
 398.704284819 469.9226454 398.704284819 469.9226454 422.297152465 469.9226454 c 0,50,51
 432.331466605 469.9226454 432.331466605 469.9226454 432.331466605 458.594797582 c 0,52,53
 432.331466605 435.807390405 432.331466605 435.807390405 408 408 c 0,54,55
 401 400 401 400 398 396 c 128,-1,56
 395 392 395 392 389 386.5 c 0,57,58
 378.317073171 376.707317073 378.317073171 376.707317073 365 371 c 1,59,60
 385 339 385 339 385 283 c 128,-1,61
 385 227 385 227 353 184 c 1,62,63
 375.315789474 172.842105263 375.315789474 172.842105263 385.157894737 159.421052632 c 128,-1,64
 395 146 395 146 396.5 144.5 c 128,-1,65
 398 143 398 143 404 133.5 c 128,-1,66
 410 124 410 124 418.584695482 109.958135068 c 128,-1,0
 427.169390963 95.9162701362 427.169390963 95.9162701362 427.169390963 81.7983896953 c 128,-1,1
168 353 m 128,-1,68
 133 321 133 321 133 263 c 128,-1,69
 133 205 133 205 166.5 176.5 c 128,-1,70
 200 148 200 148 238.5 148 c 128,-1,71
 277 148 277 148 316.5 177.5 c 128,-1,72
 356 207 356 207 356 246 c 1,73,74
 360 266 360 266 360 283.5 c 128,-1,75
 360 301 360 301 357.5 313 c 128,-1,76
 355 325 355 325 348.5 336 c 128,-1,77
 342 347 342 347 337 353.5 c 128,-1,78
 332 360 332 360 321 366 c 128,-1,79
 310 372 310 372 304.5 374.5 c 128,-1,80
 299 377 299 377 287 380 c 128,-1,81
 275 383 275 383 272.5 383 c 128,-1,82
 270 383 270 383 260 385 c 1,83,67
 203 385 203 385 168 353 c 128,-1,68
EndSplineSet
EndChar

StartChar: yen
Encoding: 165 165 103
Width: 514
Flags: HW
LayerCount: 2
Fore
SplineSet
187 292 m 0,0,1
 187 306 187 306 210 306 c 2,2,-1
 239 306 l 2,3,4
 270 306 270 306 289 305 c 1,5,-1
 292 342 l 1,6,-1
 113 661 l 1,7,-1
 109 661 l 1,8,-1
 103 662 l 1,9,10
 86 662 86 662 55.5 656 c 128,-1,11
 25 650 25 650 7 650 c 1,12,13
 7 664 7 664 20 670 c 1,14,15
 27 676 27 676 72 691 c 128,-1,16
 117 706 117 706 123 709 c 1,17,-1
 128 709 l 2,18,19
 138 709 138 709 141.12600171 693.919571306 c 0,20,21
 142 691 142 691 142 690 c 2,22,-1
 324 400 l 1,23,24
 327.476190476 403.476190476 327.476190476 403.476190476 336.238095238 423.738095238 c 0,25,26
 379.285714286 523.285714286 379.285714286 523.285714286 461 709 c 1,27,28
 463 718 463 718 461.5 730 c 0,29,30
 457.411764706 762.705882353 457.411764706 762.705882353 476 772 c 1,31,-1
 478 772 l 1,32,-1
 481 773 l 1,33,34
 495 773 495 773 495 760 c 2,35,-1
 495 754 l 1,36,37
 493 734 493 734 440 587 c 128,-1,38
 387 440 387 440 356 365 c 1,39,-1
 346 337 l 1,40,-1
 344 302 l 1,41,42
 423 297 423 297 436 276 c 1,43,-1
 427 268 l 1,44,-1
 342 268 l 1,45,-1
 340 234 l 1,46,-1
 354 234 l 2,47,48
 407 234 407 234 425 223 c 1,49,50
 416 207 416 207 339 200 c 1,51,-1
 329 -7 l 1,52,53
 322.483763995 -32.4725589299 322.483763995 -32.4725589299 316.489508464 -32.4725589299 c 0,54,55
 307.842897102 -32.4725589299 307.842897102 -32.4725589299 299.481402051 26.1449760253 c 128,-1,56
 291.119907001 84.7625109804 291.119907001 84.7625109804 287 196 c 1,57,58
 253 194 253 194 239 194 c 2,59,-1
 213 194 l 2,60,61
 194 194 194 194 194 215 c 0,62,63
 194 230 194 230 204 233 c 1,64,-1
 216.5 233.5 l 2,65,66
 229 234 229 234 248.5 234 c 2,67,-1
 286 234 l 1,68,-1
 286 251 l 2,69,70
 286 263 286 263 287 268 c 1,71,-1
 216 268 l 2,72,73
 209 268 209 268 198 276 c 128,-1,74
 187 284 187 284 187 292 c 0,0,1
EndSplineSet
EndChar

StartChar: brokenbar
Encoding: 166 166 104
Width: 98
Flags: HW
LayerCount: 2
Fore
SplineSet
77 368 m 1,0,1
 69.3333333333 92 69.3333333333 92 69.3333333333 66.6666666667 c 128,-1,2
 69.3333333333 41.3333333333 69.3333333333 41.3333333333 70 -22 c 1,3,4
 57 -33 57 -33 31 -33 c 1,5,6
 31 231 31 231 34 366 c 1,7,-1
 77 368 l 1,0,1
75 712 m 1,8,-1
 76 638 l 1,9,-1
 76 524 l 2,10,11
 76 505 76 505 74 435 c 1,12,-1
 23 431 l 1,13,14
 23 433 23 433 37 737 c 1,15,16
 47 746 47 746 58.5 746 c 128,-1,17
 70 746 70 746 75 737 c 1,18,-1
 75 712 l 1,8,-1
EndSplineSet
EndChar

StartChar: section
Encoding: 167 167 105
Width: 423
Flags: HW
LayerCount: 2
Fore
SplineSet
149.015411247 43.1662128097 m 0,0,1
 149.015411247 7.50885142029 149.015411247 7.50885142029 189.964889539 7.50885142029 c 128,-1,2
 230.914367831 7.50885142029 230.914367831 7.50885142029 282.453371283 45.6553225533 c 128,-1,3
 333.992374734 83.8017936862 333.992374734 83.8017936862 333.992374734 120.075808193 c 0,4,5
 333.992374734 132.727357599 333.992374734 132.727357599 328 143 c 1,6,7
 97.4595257849 166.90790103 97.4595257849 166.90790103 97.4595257849 252.940829451 c 0,8,9
 97.4595257849 289.748253434 97.4595257849 289.748253434 146 326 c 1,10,11
 49.9221312163 368.520948685 49.9221312163 368.520948685 49.9221312163 425.397701111 c 0,12,13
 49.9221312163 486.414482122 49.9221312163 486.414482122 133.887968409 527.274709341 c 0,14,15
 181.905567705 550.641474722 181.905567705 550.641474722 214.153717907 550.641474722 c 0,16,17
 326.132686934 550.641474722 326.132686934 550.641474722 326.132686934 450.988393497 c 0,18,19
 326.132686934 447.553061225 326.132686934 447.553061225 326 444 c 1,20,-1
 323 439 l 1,21,22
 303 434 303 434 299 434 c 1,23,24
 300.28 442.64 300.28 442.64 300.28 450.4224 c 0,25,26
 300.28 491.28 300.28 491.28 265 508.5 c 0,27,28
 244 518.75 244 518.75 219.375 518.75 c 128,-1,29
 194.75 518.75 194.75 518.75 166.5 508.5 c 0,30,31
 110 488 110 488 80 440 c 1,32,33
 78.2465753425 433.424657534 78.2465753425 433.424657534 78.2465753425 427.281666354 c 0,34,35
 78.2465753425 405.397260274 78.2465753425 405.397260274 103.623287671 386.698630137 c 128,-1,36
 129 368 129 368 184 349 c 1,37,38
 233.576271186 372.13559322 233.576271186 372.13559322 274.822033898 372.13559322 c 128,-1,39
 316.06779661 372.13559322 316.06779661 372.13559322 344.5 346.5 c 128,-1,40
 373.123076923 320.692307692 373.123076923 320.692307692 373.123076923 267.142248521 c 0,41,42
 373.123076923 263.630769231 373.123076923 263.630769231 373 260 c 1,43,44
 381.265625 251.375 381.265625 251.375 381.265625 233.4453125 c 128,-1,45
 381.265625 215.515625 381.265625 215.515625 355 179 c 1,46,47
 371.436411537 159.912554345 371.436411537 159.912554345 371.436411537 132.100158764 c 128,-1,48
 371.436411537 104.287763184 371.436411537 104.287763184 338.196857924 63.7856212677 c 0,49,50
 291.513933627 6.90283496381 291.513933627 6.90283496381 225.083909173 -16.6362437459 c 0,51,52
 199.654070585 -25.6471537528 199.654070585 -25.6471537528 180.886325059 -25.6471537528 c 0,53,54
 147.18812318 -25.6471537528 147.18812318 -25.6471537528 134.968222983 3.40363280155 c 0,55,56
 129.53208373 16.3271525178 129.53208373 16.3271525178 129.53208373 32.7047925604 c 128,-1,57
 129.53208373 49.0824326031 129.53208373 49.0824326031 133 67 c 1,58,59
 136.634615385 71.8461538462 136.634615385 71.8461538462 146.317307692 75.9230769231 c 128,-1,60
 156 80 156 80 157 82 c 1,61,62
 149.015411247 59.0443073339 149.015411247 59.0443073339 149.015411247 43.1662128097 c 0,0,1
148 230 m 0,63,64
 224.88372093 192.220930233 224.88372093 192.220930233 276.727825852 192.220930233 c 0,65,66
 303.104651163 192.220930233 303.104651163 192.220930233 323 202 c 1,67,68
 352.090909091 220.181818182 352.090909091 220.181818182 352.090909091 248.94214876 c 0,69,70
 352.090909091 259.727272727 352.090909091 259.727272727 348 272 c 0,71,72
 335 319 335 319 284 334 c 0,73,74
 269.566037736 338.245283019 269.566037736 338.245283019 255.292274831 338.245283019 c 0,75,76
 219.132075472 338.245283019 219.132075472 338.245283019 184 311 c 1,77,78
 150 293 150 293 129 260 c 1,79,80
 135 243 135 243 146 229 c 1,81,82
 148 231 148 231 148 230 c 0,63,64
EndSplineSet
EndChar

StartChar: dieresis
Encoding: 168 168 106
Width: 303
Flags: HW
LayerCount: 2
Fore
SplineSet
78 601 m 1,0,1
 85 601 85 601 96 590.5 c 128,-1,2
 107 580 107 580 107 571 c 1,3,4
 100.559969785 548.057392361 100.559969785 548.057392361 85.3552275041 548.057392361 c 0,5,6
 81.3767010636 548.057392361 81.3767010636 548.057392361 76.7980740741 549.628222222 c 0,7,8
 56.4231290079 556.618433962 56.4231290079 556.618433962 56.4231290079 574.76355367 c 0,9,10
 56.4231290079 592.908673378 56.4231290079 592.908673378 78 601 c 1,0,1
202 601 m 1,11,12
 209 601 209 601 219.5 590.5 c 128,-1,13
 230 580 230 580 230 571 c 1,14,15
 223.559187674 548.054606089 223.559187674 548.054606089 208.551030852 548.054606089 c 0,16,17
 204.620701 548.054606089 204.620701 548.054606089 200.102814815 549.628222222 c 0,18,19
 180.235708329 556.548095368 180.235708329 556.548095368 180.235708329 574.693242996 c 0,20,21
 180.235708329 592.838390623 180.235708329 592.838390623 202 601 c 1,11,12
EndSplineSet
EndChar

StartChar: copyright
Encoding: 169 169 107
Width: 523
Flags: HW
LayerCount: 2
Fore
SplineSet
226 -1 m 0,0,1
 144 -1 144 -1 85.5428571429 55.5714285714 c 128,-1,2
 27.0857142857 112.142857143 27.0857142857 112.142857143 27.0857142857 180.191020408 c 0,3,4
 27.0857142857 188.971428571 27.0857142857 188.971428571 28 198 c 0,5,6
 28 298 28 298 93.5 357.5 c 128,-1,7
 159 417 159 417 254.5 417 c 128,-1,8
 350 417 350 417 416.5 367.5 c 128,-1,9
 483 318 483 318 483 244 c 0,10,11
 483 140 483 140 407.5 69.5 c 128,-1,12
 332 -1 332 -1 226 -1 c 0,0,1
192.638296161 98.0548199877 m 0,13,14
 139.246302678 98.0548199877 139.246302678 98.0548199877 114.102496085 131.245687494 c 0,15,16
 96.6107368589 154.335535119 96.6107368589 154.335535119 96.6107368589 184.251173286 c 128,-1,17
 96.6107368589 214.166811452 96.6107368589 214.166811452 110.972798965 249.423351271 c 0,18,19
 138.504244792 317.008598351 138.504244792 317.008598351 192.04916024 343.806418526 c 0,20,21
 215.103032419 355.344274471 215.103032419 355.344274471 236.841236708 355.344274471 c 0,22,23
 284.019071711 355.344274471 284.019071711 355.344274471 325 301 c 1,24,-1
 325 298 l 1,25,26
 324 296 324 296 316 288 c 2,27,-1
 307 279 l 1,28,29
 286.654309951 324.258779905 286.654309951 324.258779905 248.564096968 324.258779905 c 128,-1,30
 210.473883984 324.258779905 210.473883984 324.258779905 173.073717734 286.069072874 c 0,31,32
 121 232.896046559 121 232.896046559 121 165 c 1,33,34
 132.473214286 142.053571429 132.473214286 142.053571429 168.620535714 142.053571429 c 128,-1,35
 204.767857143 142.053571429 204.767857143 142.053571429 245.112978851 152.719523144 c 128,-1,36
 285.458100559 163.38547486 285.458100559 163.38547486 405.5 205 c 0,37,38
 443 218 443 218 456 219 c 1,39,40
 457.44548381 230.837964867 457.44548381 230.837964867 457.44548381 241.840846514 c 0,41,42
 457.44548381 319.596943356 457.44548381 319.596943356 385.256778539 355.648265636 c 0,43,44
 349.813133133 373.348961037 349.813133133 373.348961037 266 386 c 1,45,46
 175 386 175 386 109.5 334 c 128,-1,47
 44 282 44 282 44 202.5 c 128,-1,48
 44 123 44 123 106.5 73 c 128,-1,49
 169 23 169 23 240 23 c 0,50,51
 290 23 290 23 369.5 80.5 c 128,-1,52
 449 138 449 138 452 193 c 1,53,54
 286.200208038 98.0548199877 286.200208038 98.0548199877 192.638296161 98.0548199877 c 0,13,14
EndSplineSet
EndChar

